<svg id="_001-facebook" data-name="001-facebook" xmlns="http://www.w3.org/2000/svg" width="16.64" height="16.64" viewBox="0 0 16.64 16.64">
  <path id="_001-facebook-2" data-name="001-facebook" d="M14.4,0H2.244A2.242,2.242,0,0,0,0,2.242V14.4A2.242,2.242,0,0,0,2.244,16.64H8.239l.01-5.946H6.7a.364.364,0,0,1-.364-.363L6.333,8.414A.365.365,0,0,1,6.7,8.048H8.239V6.2a3.026,3.026,0,0,1,3.23-3.32h1.573a.365.365,0,0,1,.365.365V4.857a.365.365,0,0,1-.364.365h-.965c-1.043,0-1.245.5-1.245,1.223v1.6h2.291a.364.364,0,0,1,.362.407l-.227,1.917a.365.365,0,0,1-.362.322H10.843l-.01,5.946H14.4A2.242,2.242,0,0,0,16.642,14.4V2.242A2.242,2.242,0,0,0,14.4,0Z" transform="translate(-0.002)" fill="#1b2d54"/>
</svg>
