<svg id="_002-instagram" data-name="002-instagram" xmlns="http://www.w3.org/2000/svg" width="16.933" height="16.933" viewBox="0 0 16.933 16.933">
  <path id="Trazado_8784" data-name="Trazado 8784" d="M11.889,0H5.045A5.05,5.05,0,0,0,0,5.045v6.844a5.05,5.05,0,0,0,5.045,5.045h6.844a5.05,5.05,0,0,0,5.045-5.045V5.045A5.05,5.05,0,0,0,11.889,0ZM15.23,11.889a3.341,3.341,0,0,1-3.341,3.341H5.045A3.341,3.341,0,0,1,1.7,11.889V5.045A3.341,3.341,0,0,1,5.045,1.7h6.844A3.341,3.341,0,0,1,15.23,5.045v6.844Z" fill="#1b2d54"/>
  <path id="Trazado_8785" data-name="Trazado 8785" d="M137.38,133a4.38,4.38,0,1,0,4.38,4.38A4.385,4.385,0,0,0,137.38,133Zm0,7.056a2.676,2.676,0,1,1,2.676-2.676A2.676,2.676,0,0,1,137.38,140.056Z" transform="translate(-128.913 -128.913)" fill="#1b2d54"/>
  <circle id="Elipse_10" data-name="Elipse 10" cx="1.049" cy="1.049" r="1.049" transform="translate(11.805 3.071)" fill="#1b2d54"/>
</svg>
