<svg id="_003-twitter" data-name="003-twitter" xmlns="http://www.w3.org/2000/svg" width="20.841" height="16.933" viewBox="0 0 20.841 16.933">
  <g id="Grupo_17" data-name="Grupo 17" transform="translate(0 0)">
    <path id="Trazado_8786" data-name="Trazado 8786" d="M20.841,50a8.908,8.908,0,0,1-2.462.675,4.249,4.249,0,0,0,1.88-2.362,8.539,8.539,0,0,1-2.709,1.034,4.272,4.272,0,0,0-7.391,2.922,4.4,4.4,0,0,0,.1.974,12.094,12.094,0,0,1-8.807-4.469,4.274,4.274,0,0,0,1.313,5.71,4.22,4.22,0,0,1-1.93-.526v.047a4.292,4.292,0,0,0,3.423,4.2,4.264,4.264,0,0,1-1.12.141,3.778,3.778,0,0,1-.809-.073A4.313,4.313,0,0,0,6.32,61.252a8.585,8.585,0,0,1-5.3,1.822A8,8,0,0,1,0,63.016a12.029,12.029,0,0,0,6.555,1.917A12.077,12.077,0,0,0,18.715,52.775c0-.189-.007-.371-.016-.552A8.524,8.524,0,0,0,20.841,50Z" transform="translate(0 -48)" fill="#1b2d54"/>
  </g>
</svg>
