<svg xmlns="http://www.w3.org/2000/svg" width="23.515" height="16.64" viewBox="0 0 23.515 16.64">
  <g id="_004-youtube" data-name="004-youtube" transform="translate(-9)">
    <path id="_004-youtube-2" data-name="004-youtube" d="M18.631,67.393H4.884A4.884,4.884,0,0,0,0,72.277v6.872a4.884,4.884,0,0,0,4.884,4.884H18.631a4.884,4.884,0,0,0,4.884-4.884V72.277A4.884,4.884,0,0,0,18.631,67.393Zm-3.3,8.654L8.9,79.114a.258.258,0,0,1-.369-.233V72.556a.258.258,0,0,1,.375-.23l6.43,3.258A.258.258,0,0,1,15.328,76.047Z" transform="translate(9 -67.393)" fill="#1b2d54"/>
  </g>
</svg>
