<?xml version="1.0" encoding="iso-8859-1"?>
<!-- Generator: Adobe Illustrator 19.0.0, SVG Export Plug-In . SVG Version: 6.00 Build 0)  -->
<svg version="1.1" id="Capa_1" xmlns="http://www.w3.org/2000/svg" xmlns:xlink="http://www.w3.org/1999/xlink" x="0px" y="0px"
	 viewBox="0 0 512 512" style="enable-background:new 0 0 512 512;" xml:space="preserve">
<path style="fill:#303C42;" d="M512,213.333c0-58.813-47.854-106.667-106.667-106.667c-2.026,0-4.128,0.421-6.134,0.6
	C380.978,45.358,323.729,0,256,0c-50.737,0-95.578,25.483-122.578,64.27C131.615,64.184,129.835,64,128,64
	C57.417,64,0,121.417,0,192c0,63.688,47.595,136.75,111.526,147.762l-3.734,7.467c-1.656,3.302-1.479,7.229,0.469,10.375
	c1.716,2.771,4.65,4.345,7.835,4.74c-1.509,6.232-4.279,10.702-7.637,15.74C102.906,386.406,96,396.771,96,416
	c0,19.229,6.906,29.594,12.458,37.917c4.958,7.438,8.875,13.313,8.875,26.083c0,5.896,4.771,10.667,10.667,10.667
	c5.896,0,10.667-4.771,10.667-10.667c0-19.229-6.906-29.594-12.458-37.917c-4.958-7.438-8.875-13.313-8.875-26.083
	c0-12.771,3.917-18.646,8.875-26.083c4.401-6.598,9.504-14.688,11.492-27.25h0.966c3.698,0,7.125-1.917,9.073-5.063
	c1.948-3.146,2.125-7.073,0.469-10.375l-3.746-7.492c21.271-3.716,41.921-14.504,59.921-31.436
	c10.043,4.618,20.618,7.987,31.68,9.844l-20.594,27.46c-2.427,3.229-2.813,7.552-1.01,11.167c1.813,3.615,5.5,5.896,9.542,5.896
	h20.535c-1.46,9.069-4.767,14.905-8.462,21.375C230.417,393.948,224,405.167,224,426.667s6.417,32.719,12.073,42.625
	c4.969,8.698,9.26,16.208,9.26,32.042c0,5.896,4.771,10.667,10.667,10.667c5.896,0,10.667-4.771,10.667-10.667
	c0-21.5-6.417-32.719-12.073-42.625c-4.969-8.698-9.26-16.208-9.26-32.042c0-15.833,4.292-23.344,9.26-32.042
	c4.604-8.064,9.521-17.316,11.262-31.958H288c4.042,0,7.729-2.281,9.542-5.896c1.802-3.615,1.417-7.938-1.01-11.167l-20.594-27.46
	c18.762-3.15,36.247-10.473,51.868-21.073c16.661,22.546,38.357,37.418,61.243,42.31l-3.924,7.848
	c-1.656,3.302-1.479,7.229,0.469,10.375c1.948,3.146,5.375,5.063,9.073,5.063h1.139c2.223,10.451,7.424,17.113,11.861,22.667
	c5.021,6.271,8.333,10.406,8.333,20s-3.313,13.729-8.333,20c-5.792,7.25-13,16.26-13,33.333c0,5.896,4.771,10.667,10.667,10.667
	S416,464.563,416,458.667c0-9.594,3.313-13.729,8.333-20c5.792-7.25,13-16.26,13-33.333s-7.208-26.083-13-33.333
	c-2.784-3.477-4.956-6.374-6.417-9.832c2.901-0.559,5.568-1.999,7.156-4.564c1.948-3.146,2.125-7.073,0.469-10.375l-3.932-7.865
	C472.896,328.099,512,265.865,512,213.333z"/>
<path style="fill:#8869AE;" d="M256,21.333c70.583,0,128,57.417,128,128c0,69.063-55.917,149.333-128,149.333
	s-128-80.271-128-149.333C128,78.75,185.417,21.333,256,21.333z"/>
<path style="opacity:0.2;fill:#FFFFFF;enable-background:new    ;" d="M160,181.333c0-70.583,57.417-128,128-128
	c27.133,0,52.273,8.543,73.001,22.999C337.853,43.138,299.451,21.333,256,21.333c-70.583,0-128,57.417-128,128
	c0,47.18,26.117,99.551,65.634,128.027C172.698,249.315,160,214.107,160,181.333z"/>
<path style="fill:#ED1944;" d="M128,320c-59.083,0-106.667-70.021-106.667-128c0-56.393,44.134-102.236,99.603-105.952
	c-9.056,19.246-14.27,40.643-14.27,63.285c0,55.732,30.589,115.984,77.724,147.859C166.988,311.732,147.445,320,128,320z"/>
<path style="opacity:0.2;fill:#FFFFFF;enable-background:new    ;" d="M53.333,223.285c0-39.753,22.161-73.911,54.535-92.118
	c1.991-15.939,6.477-31.109,13.068-45.118C65.467,89.764,21.333,135.607,21.333,192c0,41.625,24.589,89.319,60.286,112.991
	C64.099,280.844,53.333,250.751,53.333,223.285z"/>
<polygon style="fill:#8869AE;" points="245.333,341.333 256,327.115 266.667,341.333 "/>
<path style="fill:#00B5EF;" d="M405.333,320c-22.046,0-44.247-13.423-60.833-36.193c37.374-33.66,60.833-85.749,60.833-134.474
	c0-7.202-0.686-14.23-1.677-21.163c0.569-0.022,1.102-0.171,1.677-0.171c47.052,0,85.333,38.281,85.333,85.333
	C490.667,261.344,451.292,320,405.333,320z"/>
<path style="opacity:0.1;enable-background:new    ;" d="M447.22,139.447c7.076,12.427,11.447,26.592,11.447,41.887
	c0,48.01-39.375,106.667-85.333,106.667c-8.964,0-17.931-2.322-26.557-6.486c-0.784,0.734-1.479,1.576-2.276,2.293
	C361.086,306.577,383.288,320,405.333,320c45.958,0,85.333-58.656,85.333-106.667C490.667,181.576,473.025,154.139,447.22,139.447z"
	/>
<linearGradient id="SVGID_1_" gradientUnits="userSpaceOnUse" x1="-46.4343" y1="639.3904" x2="-25.0571" y2="629.4233" gradientTransform="matrix(21.3333 0 0 -21.3333 996.3334 13791.667)">
	<stop  offset="0" style="stop-color:#FFFFFF;stop-opacity:0.2"/>
	<stop  offset="1" style="stop-color:#FFFFFF;stop-opacity:0"/>
</linearGradient>
<path style="fill:url(#SVGID_1_);" d="M512,213.333c0-58.813-47.854-106.667-106.667-106.667c-2.026,0-4.128,0.421-6.134,0.6
	C380.978,45.358,323.729,0,256,0c-50.737,0-95.578,25.483-122.578,64.27C131.615,64.184,129.835,64,128,64
	C57.417,64,0,121.417,0,192c0,63.688,47.595,136.75,111.526,147.762l-3.734,7.467c-1.656,3.302-1.479,7.229,0.469,10.375
	c1.716,2.771,4.65,4.345,7.835,4.74c-1.509,6.232-4.279,10.702-7.637,15.74C102.906,386.406,96,396.771,96,416
	c0,19.229,6.906,29.594,12.458,37.917c4.958,7.438,8.875,13.313,8.875,26.083c0,5.896,4.771,10.667,10.667,10.667
	c5.896,0,10.667-4.771,10.667-10.667c0-19.229-6.906-29.594-12.458-37.917c-4.958-7.438-8.875-13.313-8.875-26.083
	c0-12.771,3.917-18.646,8.875-26.083c4.401-6.598,9.504-14.688,11.492-27.25h0.966c3.698,0,7.125-1.917,9.073-5.063
	c1.948-3.146,2.125-7.073,0.469-10.375l-3.746-7.492c21.271-3.716,41.921-14.504,59.921-31.436
	c10.043,4.618,20.618,7.987,31.68,9.844l-20.594,27.46c-2.427,3.229-2.813,7.552-1.01,11.167c1.813,3.615,5.5,5.896,9.542,5.896
	h20.535c-1.46,9.069-4.767,14.905-8.462,21.375C230.417,393.948,224,405.167,224,426.667s6.417,32.719,12.073,42.625
	c4.969,8.698,9.26,16.208,9.26,32.042c0,5.896,4.771,10.667,10.667,10.667c5.896,0,10.667-4.771,10.667-10.667
	c0-21.5-6.417-32.719-12.073-42.625c-4.969-8.698-9.26-16.208-9.26-32.042c0-15.833,4.292-23.344,9.26-32.042
	c4.604-8.064,9.521-17.316,11.262-31.958H288c4.042,0,7.729-2.281,9.542-5.896c1.802-3.615,1.417-7.938-1.01-11.167l-20.594-27.46
	c18.762-3.15,36.247-10.473,51.868-21.073c16.661,22.546,38.357,37.418,61.243,42.31l-3.924,7.848
	c-1.656,3.302-1.479,7.229,0.469,10.375c1.948,3.146,5.375,5.063,9.073,5.063h1.139c2.223,10.451,7.424,17.113,11.861,22.667
	c5.021,6.271,8.333,10.406,8.333,20s-3.313,13.729-8.333,20c-5.792,7.25-13,16.26-13,33.333c0,5.896,4.771,10.667,10.667,10.667
	S416,464.563,416,458.667c0-9.594,3.313-13.729,8.333-20c5.792-7.25,13-16.26,13-33.333s-7.208-26.083-13-33.333
	c-2.784-3.477-4.956-6.374-6.417-9.832c2.901-0.559,5.568-1.999,7.156-4.564c1.948-3.146,2.125-7.073,0.469-10.375l-3.932-7.865
	C472.896,328.099,512,265.865,512,213.333z"/>
<g>
</g>
<g>
</g>
<g>
</g>
<g>
</g>
<g>
</g>
<g>
</g>
<g>
</g>
<g>
</g>
<g>
</g>
<g>
</g>
<g>
</g>
<g>
</g>
<g>
</g>
<g>
</g>
<g>
</g>
</svg>
