<?xml version="1.0" encoding="iso-8859-1"?>
<!-- Generator: Adobe Illustrator 19.0.0, SVG Export Plug-In . SVG Version: 6.00 Build 0)  -->
<svg version="1.1" id="Layer_1" xmlns="http://www.w3.org/2000/svg" xmlns:xlink="http://www.w3.org/1999/xlink" x="0px" y="0px"
	 viewBox="0 0 512 512" style="enable-background:new 0 0 512 512;" xml:space="preserve">
<circle style="fill:#9EA7DB;" cx="255.991" cy="255.991" r="255.991"/>
<path style="fill:#8C95C9;" d="M511.633,242.467c0.238,4.471,0.367,8.998,0.367,13.524C512,397.391,397.391,512,255.991,512
	c-4.526,0-9.035-0.128-13.506-0.348L140.558,409.725l231.215-307.138L511.633,242.467z"/>
<path style="fill:#F8F8F8;" d="M154.045,96.961h203.909c10.904,0,19.847,8.925,19.847,19.847v278.385
	c0,10.922-8.943,19.847-19.847,19.847H154.045c-10.904,0-19.847-8.925-19.847-19.847V116.808
	C134.199,105.886,143.142,96.961,154.045,96.961z"/>
<path style="fill:#B3B3BD;" d="M315.732,190.715h28.423c3.445,0,6.267,2.822,6.267,6.267v28.423c0,3.445-2.822,6.249-6.267,6.249
	h-28.423c-3.445,0-6.267-2.804-6.267-6.249v-28.423C309.465,193.537,312.287,190.715,315.732,190.715z"/>
<path style="fill:#5ED1B3;" d="M315.732,297.737h28.423c3.445,0,6.267,2.822,6.267,6.267v79.662c0,3.445-2.822,6.267-6.267,6.267
	h-28.423c-3.445,0-6.267-2.822-6.267-6.267v-79.662C309.465,300.54,312.287,297.737,315.732,297.737z"/>
<path style="fill:#B3B3BD;" d="M264.787,348.975h28.423c3.445,0,6.267,2.822,6.267,6.267v28.423c0,3.445-2.822,6.267-6.267,6.267
	h-28.423c-3.445,0-6.249-2.822-6.249-6.267v-28.423C258.538,351.797,261.342,348.975,264.787,348.975z"/>
<path style="fill:#FF8C8A;" d="M158.81,348.975h82.081c3.445,0,6.267,2.822,6.267,6.267v28.423c0,3.445-2.822,6.267-6.267,6.267
	H158.81c-3.445,0-6.267-2.822-6.267-6.267v-28.423C152.543,351.797,155.365,348.975,158.81,348.975z"/>
<g>
	<path style="fill:#B3B3BD;" d="M264.787,296.216h28.423c3.445,0,6.267,2.822,6.267,6.267v28.423c0,3.445-2.822,6.267-6.267,6.267
		h-28.423c-3.445,0-6.249-2.822-6.249-6.267v-28.423C258.538,299.038,261.342,296.216,264.787,296.216z"/>
	<path style="fill:#B3B3BD;" d="M211.789,296.216h28.441c3.445,0,6.249,2.822,6.249,6.267v28.423c0,3.445-2.804,6.267-6.249,6.267
		h-28.441c-3.445,0-6.249-2.822-6.249-6.267v-28.423C205.54,299.038,208.344,296.216,211.789,296.216z"/>
	<path style="fill:#B3B3BD;" d="M158.81,296.216h28.423c3.445,0,6.249,2.822,6.249,6.267v28.423c0,3.445-2.804,6.267-6.249,6.267
		H158.81c-3.445,0-6.267-2.822-6.267-6.267v-28.423C152.543,299.038,155.365,296.216,158.81,296.216z"/>
	<path style="fill:#B3B3BD;" d="M264.787,243.474h28.423c3.445,0,6.267,2.804,6.267,6.249v28.423c0,3.445-2.822,6.267-6.267,6.267
		h-28.423c-3.445,0-6.249-2.822-6.249-6.267v-28.423C258.538,246.278,261.342,243.474,264.787,243.474z"/>
	<path style="fill:#B3B3BD;" d="M211.789,243.474h28.441c3.445,0,6.249,2.804,6.249,6.249v28.423c0,3.445-2.804,6.267-6.249,6.267
		h-28.441c-3.445,0-6.249-2.822-6.249-6.267v-28.423C205.54,246.278,208.344,243.474,211.789,243.474z"/>
	<path style="fill:#B3B3BD;" d="M158.81,243.474h28.423c3.445,0,6.249,2.804,6.249,6.249v28.423c0,3.445-2.804,6.267-6.249,6.267
		H158.81c-3.445,0-6.267-2.822-6.267-6.267v-28.423C152.543,246.278,155.365,243.474,158.81,243.474z"/>
	<path style="fill:#B3B3BD;" d="M264.787,190.715h28.423c3.445,0,6.267,2.822,6.267,6.267v28.423c0,3.445-2.822,6.249-6.267,6.249
		h-28.423c-3.445,0-6.249-2.804-6.249-6.249v-28.423C258.538,193.537,261.342,190.715,264.787,190.715z"/>
	<path style="fill:#B3B3BD;" d="M211.789,190.715h28.441c3.445,0,6.249,2.822,6.249,6.267v28.423c0,3.445-2.804,6.249-6.249,6.249
		h-28.441c-3.445,0-6.249-2.804-6.249-6.249v-28.423C205.54,193.537,208.344,190.715,211.789,190.715z"/>
	<path style="fill:#B3B3BD;" d="M158.81,190.715h28.423c3.445,0,6.249,2.822,6.249,6.267v28.423c0,3.445-2.804,6.249-6.249,6.249
		H158.81c-3.445,0-6.267-2.804-6.267-6.249v-28.423C152.543,193.537,155.365,190.715,158.81,190.715z"/>
</g>
<g>
	<polygon style="fill:#D9D9DD;" points="354.125,122.47 359.457,122.47 359.457,142.83 354.125,142.83 	"/>
	<polygon style="fill:#D9D9DD;" points="345.163,122.47 349.58,122.47 349.58,142.83 345.163,142.83 	"/>
	<polygon style="fill:#D9D9DD;" points="336.184,122.47 340.6,122.47 340.6,142.83 336.184,142.83 	"/>
	<polygon style="fill:#D9D9DD;" points="327.223,122.47 331.639,122.47 331.639,142.83 327.223,142.83 	"/>
	<polygon style="fill:#D9D9DD;" points="317.345,122.47 322.66,122.47 322.66,142.83 317.345,142.83 	"/>
</g>
<polygon style="fill:#68606E;" points="152.543,115.561 302.208,115.561 302.208,158.15 152.543,158.15 "/>
<path style="fill:#B3B3BD;" d="M315.732,243.474h28.423c3.445,0,6.267,2.804,6.267,6.249v28.423c0,3.445-2.822,6.267-6.267,6.267
	h-28.423c-3.445,0-6.267-2.822-6.267-6.267v-28.423C309.465,246.278,312.287,243.474,315.732,243.474z"/>
<path style="fill:#D9D9DD;" d="M364.68,98.134c7.623,2.767,13.121,10.116,13.121,18.674v278.385
	c0,10.922-8.943,19.847-19.847,19.847H154.045c-8.247,0-15.375-5.095-18.344-12.315c2.089,0.77,4.361,1.173,6.726,1.173h203.891
	c10.922,0,19.847-8.925,19.847-19.847V105.666C366.165,103.008,365.633,100.461,364.68,98.134z"/>
<g>
</g>
<g>
</g>
<g>
</g>
<g>
</g>
<g>
</g>
<g>
</g>
<g>
</g>
<g>
</g>
<g>
</g>
<g>
</g>
<g>
</g>
<g>
</g>
<g>
</g>
<g>
</g>
<g>
</g>
</svg>
