<svg xmlns="http://www.w3.org/2000/svg" viewBox="0 0 749.88 926"><defs><style>.cls-1{fill:#1b2d54;}</style></defs><title>Recurso 3</title><g id="Capa_2" data-name="Capa 2"><g id="Capa_1-2" data-name="Capa 1"><path class="cls-1" d="M387.6,754.7H277V699.6H387.4l28-.2H444c2.3,0,7.5-6.8,11.6-21.3.6-2.2,1.1-4.4,1.6-6.5H281.1L179.2,727l-96.1-.2.1-55.1,82.1.2,101.8-55.4H516.5l-.6,28.1a217.79,217.79,0,0,1-7.2,48.2c-4.3,15.6-10.4,28.4-18.2,38.2-12.1,15.3-28.2,23.4-46.5,23.4H415.5Z"/><path class="cls-1" d="M398.1,926a247.08,247.08,0,0,1-89.3-16.7L195.3,865.5H83.2V810.4H205.6l123.1,47.5a191.68,191.68,0,0,0,162.8-11.3L694.4,711.1a11.69,11.69,0,0,0-4.5-6.2c-2.6-1.9-7.8-4.4-13.7,0l-2.2,1.6L442.4,813.2,331.2,755l25.6-48.8,87.1,45.7,202.3-93.2c23.7-15.8,53.4-15.1,76.5,2,24,17.8,33.1,47.4,23.3,75.6l-3,8.7L520.3,893.7l-.9.5A248.09,248.09,0,0,1,398.1,926Z"/><path class="cls-1" d="M138.2,893.1H0V644.2H138.2ZM55.2,838h28V699.3h-28Z"/><polygon class="cls-1" points="631.7 109.3 577.6 109.3 577.6 54.1 523.2 54.1 523.2 0 631.7 0 631.7 109.3"/><polygon class="cls-1" points="631.8 543 387.5 543 387.5 0 468.8 0 468.8 54.1 441.6 54.1 441.6 488.9 577.7 488.9 577.7 162.9 631.8 162.9 631.8 543"/><path class="cls-1" d="M441.8,543H197.5V135.9H441.8ZM251.6,488.9H387.8v-299H251.6Z"/><path class="cls-1" d="M251.8,543H7.5V298.7H251.8ZM61.6,488.9H197.8V352.7H61.6Z"/><path class="cls-1" d="M284.3,277.9a25.1,25.1,0,1,1,25.3-25.1A25.22,25.22,0,0,1,284.3,277.9Zm0-36.2a11.1,11.1,0,1,0,11.3,11.1A11.25,11.25,0,0,0,284.3,241.7Z"/><path class="cls-1" d="M356.4,332.2a25.1,25.1,0,1,1,25.3-25.1A25.22,25.22,0,0,1,356.4,332.2Zm0-36.2a11.1,11.1,0,1,0,11.3,11.1A11.25,11.25,0,0,0,356.4,296Z"/><rect class="cls-1" x="262.26" y="273.35" width="115.99" height="14" transform="translate(-98.43 356.89) rotate(-51.56)"/><path class="cls-1" d="M472.4,137.5a25.1,25.1,0,1,1,25.3-25.1A25.22,25.22,0,0,1,472.4,137.5Zm0-36.2a11.1,11.1,0,1,0,11.3,11.1A11.25,11.25,0,0,0,472.4,101.3Z"/><path class="cls-1" d="M544.6,191.8a25.1,25.1,0,1,1,25.3-25.1A25.22,25.22,0,0,1,544.6,191.8Zm0-36.2a11.1,11.1,0,1,0,11.3,11.1A11.25,11.25,0,0,0,544.6,155.6Z"/><rect class="cls-1" x="450.38" y="132.99" width="115.99" height="14" transform="translate(82.66 451.13) rotate(-51.56)"/><path class="cls-1" d="M93.3,422.5a25.1,25.1,0,1,1,25.3-25.1A25.22,25.22,0,0,1,93.3,422.5Zm0-36.2a11.1,11.1,0,1,0,11.3,11.1A11.25,11.25,0,0,0,93.3,386.3Z"/><path class="cls-1" d="M165.5,476.8a25.1,25.1,0,1,1,25.3-25.1A25.22,25.22,0,0,1,165.5,476.8Zm0-36.1a11.1,11.1,0,1,0,11.3,11.1A11.25,11.25,0,0,0,165.5,440.7Z"/><rect class="cls-1" x="71.27" y="417.99" width="115.99" height="14" transform="translate(-283.96 262.01) rotate(-51.56)"/></g></g></svg>