<svg xmlns="http://www.w3.org/2000/svg" width="33.941" height="33.941" viewBox="0 0 33.941 33.941"><defs><style>.a{fill:#72787a;}</style></defs><g transform="translate(0 16.971) rotate(-45)"><path class="a" d="M22.7,10.326H13.674V1.3A1.619,1.619,0,0,0,12,0a1.619,1.619,0,0,0-1.674,1.3v9.023H1.3A1.619,1.619,0,0,0,0,12a1.619,1.619,0,0,0,1.3,1.674h9.023V22.7A1.619,1.619,0,0,0,12,24a1.619,1.619,0,0,0,1.674-1.3V13.674H22.7A1.619,1.619,0,0,0,24,12,1.619,1.619,0,0,0,22.7,10.326Z" transform="translate(0 0)"/></g></svg>