<?xml version="1.0" encoding="iso-8859-1"?>
<!-- Generator: Adobe Illustrator 19.0.0, SVG Export Plug-In . SVG Version: 6.00 Build 0)  -->
<svg version="1.1" id="Layer_1" xmlns="http://www.w3.org/2000/svg" xmlns:xlink="http://www.w3.org/1999/xlink" x="0px" y="0px"
	 viewBox="0 0 512 512" style="enable-background:new 0 0 512 512;" xml:space="preserve">
<circle style="fill:#5ED1B3;" cx="256" cy="256" r="256"/>
<path style="fill:#4BC2A2;" d="M511.604,241.898c0.255,4.667,0.389,9.371,0.389,14.102c0,141.38-114.613,256-255.994,256
	l-0.498-0.013L99.439,355.931l329.853-196.344L511.604,241.898z"/>
<path style="fill:#F8F8F8;" d="M438.096,335.394c0,15.94-12.653,28.963-28.133,28.963H119.644
	c-15.481,0-28.133-13.023-28.133-28.963V179.881c0-15.934,12.653-28.963,28.133-28.963h290.319
	c15.481,0,28.133,13.029,28.133,28.963V335.394z"/>
<circle style="fill:#FF8C8A;" cx="373.971" cy="291.238" r="36.834"/>
<circle style="fill:#FAD55C;" cx="330.402" cy="291.238" r="36.834"/>
<g>
	<polygon style="fill:#B3B3BD;" points="108.945,302.525 260.035,302.525 260.035,313.351 108.945,313.351 	"/>
	<polygon style="fill:#B3B3BD;" points="108.945,276.83 260.035,276.83 260.035,287.657 108.945,287.657 	"/>
</g>
<polygon style="fill:#68606E;" points="91.504,188.684 438.096,188.684 438.096,234.781 91.504,234.781 "/>
<path style="fill:#D9D9DD;" d="M438.096,335.394c0,15.94-12.653,28.963-28.133,28.963H119.644
	c-15.481,0-28.133-13.023-28.133-28.963v-8.235c0,15.94,12.653,28.963,28.133,28.963h290.319c15.481,0,28.133-13.023,28.133-28.963
	V335.394z"/>
<g>
</g>
<g>
</g>
<g>
</g>
<g>
</g>
<g>
</g>
<g>
</g>
<g>
</g>
<g>
</g>
<g>
</g>
<g>
</g>
<g>
</g>
<g>
</g>
<g>
</g>
<g>
</g>
<g>
</g>
</svg>
