<?xml version="1.0" encoding="utf-8"?>
<!-- Generator: Adobe Illustrator 24.3.0, SVG Export Plug-In . SVG Version: 6.00 Build 0)  -->
<svg version="1.1" xmlns="http://www.w3.org/2000/svg" xmlns:xlink="http://www.w3.org/1999/xlink" x="0px" y="0px"
	 viewBox="0 0 1182.3 1021.7" style="enable-background:new 0 0 1182.3 1021.7;" xml:space="preserve">
<style type="text/css">
	.st0{fill:#FFFFFF;}
	.st1{fill:#E1E0E0;}
	.st2{fill:#1C294A;}
	.st3{opacity:0.62;}
	.st4{fill:#B2B1B1;}
	.st5{fill:#0F1365;}
	.st6{fill:#FFD004;}
	.st7{opacity:0.88;}
	.st8{fill:#E5BC0E;}
	.st9{opacity:0.48;}
	.st10{opacity:0.72;}
	.st11{fill:#A0A0A0;}
	.st12{fill:#919191;}
	.st13{fill:#0E1523;}
</style>
<g id="Capa_4">
</g>
<g id="Capa_2">
</g>
<g id="Capa_6">
	<g>
		<path class="st0" d="M204.3,211.7C229.6,211.7,204.3,211.7,204.3,211.7c11.5-0.2,400.6,0,418.9,0c1.6,0,3.1,0,4.6-0.5
			c-6.8-5-21.1-2.9-27-8.9c-2.9-3-2-7.9-6.3-10.3c-5.2-2.9-10.3,0.1-15.5-0.2c-5-0.3-10.2-3.4-14.2-6.1
			c-7.9-5.5-13.6-13.5-20.1-20.3c-10.3-10.7-21.1-12.2-35.4-9c-7.2,1.6-14.3,4.7-21.8,4.7c-7.2,0-10.2-3.5-16.1-6.5
			c-14.5-7.4-28.2,4.2-42.8,5.4c-12.3,1-22-6.2-32.3-11.3c-12.6-6.2-27.3-6.5-41.1-3.8c-26.8,5.2-47.9,24.2-69.1,39.3
			c-6.5,4.7-11.5,7.2-19.6,6c-7.6-1.2-13.4-2.2-21,0.5c-7.3,2.6-13.9,6.9-20.9,10.1c-5,2.3-10.4,4.2-15.7,5.7
			c-1.1,0.3-11.7,4.2-11.6,4.3C199.4,211.7,201.7,211.7,204.3,211.7"/>
	</g>
	<g>
		<path class="st1" d="M204.3,213.3c-0.1,0-0.2,0-0.3,0c-2.6,0-5,0-7.2-1c-0.6-0.3-1-0.9-1-1.5c0.1-1.1,0.1-1.1,6.4-3.5
			c1.3-0.5,5.5-2.1,6.3-2.3c5.1-1.4,10.4-3.4,15.4-5.6c2.7-1.2,5.4-2.7,8.1-4.1c4.1-2.2,8.4-4.5,12.9-6.1c7.9-2.8,13.8-1.8,21.3-0.7
			l0.5,0.1c7.3,1.1,11.8-0.9,18.5-5.7c3.8-2.7,7.6-5.6,11.3-8.3c17.7-13.2,36-26.9,58.4-31.3c16.1-3.1,30.6-1.8,42.1,3.9
			c2.1,1,4.2,2.2,6.2,3.3c8.2,4.5,15.9,8.7,25.2,7.9c5-0.4,10-2.2,14.9-3.9c9.2-3.2,18.7-6.5,28.7-1.4c1.7,0.8,3.1,1.7,4.4,2.5
			c3.5,2.1,6.3,3.8,11,3.8c4.8,0,9.5-1.4,14.3-2.8c2.3-0.7,4.7-1.4,7.1-1.9c16.3-3.6,27-0.9,36.9,9.5c2,2.1,3.9,4.3,5.8,6.4
			c4.3,4.9,8.7,9.9,14.1,13.7c5.3,3.7,9.7,5.6,13.3,5.8c1.7,0.1,3.4-0.2,5.3-0.5c3.3-0.6,7.1-1.2,10.9,0.9c3,1.7,3.9,4.3,4.7,6.6
			c0.5,1.5,1,2.9,2,3.9c2.7,2.8,8.1,3.7,13.3,4.5c4.9,0.8,10,1.6,13.5,4.2c0.5,0.3,0.7,0.9,0.6,1.5c-0.1,0.6-0.5,1.1-1,1.3
			c-1.7,0.6-3.4,0.6-5.1,0.6c-2.8,0-13.9,0-31,0c-83.9,0-321.7-0.1-376.7,0l0,0c-0.1,0-0.3,0-0.7,0c-0.3,0-0.6,0-0.9,0l-3.6,0
			C207.6,213.3,204.8,213.3,204.3,213.3C204.3,213.3,204.3,213.3,204.3,213.3z M203.7,210.1c0.2,0,0.4,0,0.6,0l4.5,0
			c38-0.1,295.4,0,383.5,0c14.5,0,24.7,0,29.2,0c-2.1-0.5-4.4-0.9-6.7-1.3c-5.7-0.9-11.6-1.9-15-5.5c-1.5-1.5-2.1-3.4-2.7-5.1
			c-0.7-2-1.3-3.8-3.2-4.9c-2.8-1.6-5.6-1.1-8.9-0.6c-1.9,0.3-3.9,0.7-6,0.5c-4.3-0.3-9.2-2.4-15-6.4c-5.7-4-10.3-9.2-14.7-14.2
			c-1.8-2.1-3.8-4.3-5.7-6.3c-9.1-9.5-18.9-11.9-34-8.6c-2.3,0.5-4.6,1.2-6.9,1.8c-4.9,1.4-9.9,2.9-15.2,2.9
			c-5.7,0-9.1-2.1-12.7-4.2c-1.3-0.8-2.7-1.6-4.2-2.4c-8.8-4.5-17.2-1.5-26.2,1.6c-5.1,1.8-10.3,3.6-15.7,4
			c-10.3,0.9-18.8-3.8-27-8.2c-2-1.1-4.1-2.2-6.1-3.2c-13.7-6.8-29.3-5.7-40.1-3.7c-21.7,4.2-39.7,17.7-57.1,30.7
			c-3.7,2.8-7.6,5.7-11.4,8.4c-7.2,5.2-12.4,7.6-20.8,6.3l-0.5-0.1c-7.3-1.1-12.7-2-19.8,0.5c-4.3,1.5-8.5,3.7-12.5,5.9
			c-2.7,1.4-5.4,2.9-8.3,4.2c-5.1,2.3-10.6,4.3-15.9,5.8C208.9,208.2,206.3,209.1,203.7,210.1z"/>
	</g>
	<g>
		<path class="st1" d="M204.3,211.7C229.6,211.7,204.3,211.7,204.3,211.7c11.5,0,400.6,0,418.9,0c1.6,0,3.1,0,4.6-0.1
			c-6.8-1.1-21.1-0.7-27-2c-2.9-0.7-2-1.8-6.3-2.4c-5.2-0.7-10.3,0-15.5-0.1c-5-0.1-10.2-0.8-14.2-1.4c-7.9-1.3-13.6-3.1-20.1-4.6
			c-10.3-2.5-21.1-2.8-35.4-2.1c-7.2,0.4-14.3,1.1-21.8,1.1c-7.2,0-10.2-0.8-16.1-1.5c-14.5-1.7-28.2,1-42.8,1.2
			c-12.3,0.2-22-1.4-32.3-2.6c-12.6-1.4-27.3-1.5-41.1-0.9c-26.8,1.2-47.9,5.6-69.1,9c-6.5,1.1-11.5,1.7-19.6,1.4
			c-7.6-0.3-13.4-0.5-21,0.1c-7.3,0.6-13.9,1.6-20.9,2.3c-5,0.5-10.4,1-15.7,1.3c-1.1,0.1-11.7,1-11.6,1
			C199.4,211.7,201.7,211.7,204.3,211.7"/>
	</g>
	<g>
		<path class="st1" d="M204.3,213.3c-0.1,0-0.1,0-0.2,0c-2.5,0-4.9,0-6.9-0.2c-0.8-0.1-1.4-0.8-1.4-1.6c0-1.4,1-1.5,3.1-1.7
			c1-0.1,2.4-0.2,3.7-0.3c2.5-0.2,5.7-0.5,6.2-0.5c5.2-0.3,10.6-0.8,15.6-1.3c2.7-0.3,5.5-0.6,8.1-0.9c4.1-0.5,8.3-1,12.8-1.4
			c7.6-0.6,13.4-0.4,20.7-0.1l0.5,0c7.7,0.3,12.4-0.2,19.3-1.3c3.7-0.6,7.5-1.3,11.3-1.9c17.6-3,35.8-6.1,58-7.1
			c11-0.5,27.1-0.7,41.3,0.9c2.1,0.2,4.1,0.5,6.2,0.8c8,1,16.2,2,25.9,1.8c5.1-0.1,10.3-0.5,15.2-0.9c9-0.7,18.2-1.4,27.8-0.3
			c1.6,0.2,3,0.4,4.3,0.6c3.5,0.5,6.5,0.9,11.6,0.9c0,0,0,0,0.1,0c5,0,9.9-0.3,14.7-0.6c2.3-0.2,4.7-0.3,7-0.4
			c15.8-0.8,26.2-0.2,35.9,2.1c2,0.5,3.9,1,5.8,1.5c4.3,1.1,8.8,2.3,14.2,3.2c3.5,0.6,8.8,1.3,13.9,1.4c1.8,0,3.7,0,5.5-0.1
			c3.3-0.1,6.7-0.3,10.1,0.2c2.6,0.3,3.6,0.9,4.6,1.6c0.5,0.3,0.9,0.6,1.8,0.8c3,0.7,8.5,0.9,13.9,1.1c4.8,0.2,9.8,0.4,13,0.9
			c0.8,0.1,1.3,0.8,1.3,1.6s-0.6,1.4-1.4,1.5c-1.5,0.1-3.1,0.1-4.7,0.1l-30.8,0c-83.9,0-321.8,0-376.9,0l0,0c0,0-0.3,0-0.8,0
			c-0.2,0-0.3,0-0.5,0l-3.1,0c-2.9,0-6.1,0-6.7,0C204.4,213.3,204.3,213.3,204.3,213.3z M334.1,210.1c91,0,205.3,0,258.3,0l5.6,0
			c-0.2-0.1-0.3-0.2-0.5-0.3c-0.6-0.4-1.2-0.8-3.3-1.1c-3.2-0.4-6.3-0.3-9.6-0.2c-1.8,0.1-3.8,0.1-5.7,0.1
			c-5.4-0.1-10.8-0.9-14.4-1.4c-5.6-0.9-10.1-2.1-14.5-3.2c-1.9-0.5-3.8-1-5.7-1.4c-9.4-2.2-19.5-2.8-35-2c-2.3,0.1-4.6,0.3-7,0.4
			c-4.8,0.3-9.8,0.7-14.9,0.7c-5.4,0-8.4-0.4-12.1-0.9c-1.3-0.2-2.7-0.4-4.3-0.6c-9.2-1.1-17.9-0.4-27.1,0.3
			c-5,0.4-10.2,0.8-15.4,0.9c-9.9,0.2-18.3-0.9-26.3-1.9c-2-0.3-4.1-0.5-6.2-0.7c-11.1-1.3-25.2-1.6-40.8-0.9
			c-21.9,1-40.1,4.1-57.6,7.1c-3.8,0.6-7.5,1.3-11.3,1.9c-7,1.1-12,1.7-19.9,1.4l-0.5,0c-7.2-0.3-12.9-0.5-20.3,0.1
			c-4.4,0.4-8.6,0.9-12.7,1.4c-0.7,0.1-1.5,0.2-2.2,0.3C254.4,210.1,291.7,210.1,334.1,210.1z"/>
	</g>
	<g>
		<path class="st0" d="M517,341.4h285.3c1.8,0,3.4-0.1,5.1-0.9c-0.9-4.9-11.6-3-15.6-5.8c-3.4-2.4-3.7-7.1-7.6-9.2
			c-3.6-1.9-8.3-0.4-12-2.6c-4.5-2.7-4-7.7-7.4-10.9c-8.7-8.3-24.5,1.1-34.9,0c-9.3-0.9-12.9-8.2-19.3-13.6
			c-8.2-7-17.4-13.3-28.8-13.9c-27.9-1.6-52.3,11.7-75.5,24.4c-7,3.8-15,9-23,10.5c-6.7,1.3-12.7-2.1-19.2-1.9
			c-11.3,0.3-21.3,6.5-30.4,12.2c-1.9,1.2-18.3,12-19.4,11.1C514.9,341.4,515.9,341.4,517,341.4"/>
	</g>
	<g>
		<path class="st1" d="M802.2,342.9H517c-1,0-2.2,0-3.1-0.6c-0.2-0.1-0.4-0.3-0.6-0.5c0,0,0,0,0,0c-0.6-0.6-0.6-1.6,0-2.2
			c0.4-0.4,0.9-0.6,1.4-0.5c1-0.3,4.6-2.1,16.8-9.9c0.7-0.4,1.1-0.7,1.4-0.9c8.6-5.4,19.2-12.1,31.2-12.4c3-0.1,5.9,0.5,8.6,1.1
			c3.5,0.8,6.8,1.5,10.3,0.8c6.3-1.2,12.9-4.9,18.7-8.2c1.3-0.7,2.6-1.5,3.8-2.1c23.6-12.9,47.9-26.3,76.4-24.6
			c12.4,0.7,22.4,8,29.7,14.3c1.8,1.6,3.4,3.2,4.9,4.9c3.9,4.2,7.3,7.8,13.5,8.4c3.6,0.4,7.9-0.6,12.5-1.6c8.1-1.8,17.3-3.8,23.4,2
			c1.7,1.7,2.6,3.7,3.3,5.5c0.9,2.1,1.7,4,3.8,5.2c1.6,0.9,3.5,1,5.5,1.2c2.2,0.1,4.4,0.3,6.5,1.4c2.5,1.3,3.7,3.5,4.8,5.5
			c0.8,1.5,1.6,2.9,2.9,3.8c1.3,0.9,3.9,1.2,6.4,1.5c4.3,0.6,9.1,1.2,9.9,5.2c0.1,0.7-0.2,1.4-0.9,1.7
			C805.9,342.9,804.1,342.9,802.2,342.9z M520.6,339.8h281.7c0.9,0,1.8,0,2.6-0.2c-1.3-0.8-3.8-1.2-6.3-1.5
			c-2.9-0.4-5.8-0.8-7.8-2.1c-1.9-1.3-3-3.2-3.9-4.9c-1-1.8-1.9-3.3-3.5-4.2c-1.5-0.8-3.3-0.9-5.2-1c-2.3-0.1-4.7-0.3-6.9-1.6
			c-3-1.8-4.1-4.4-5.1-6.7c-0.7-1.7-1.3-3.2-2.6-4.4c-4.9-4.7-12.8-2.9-20.5-1.2c-4.8,1.1-9.4,2.1-13.5,1.7
			c-7.3-0.7-11.5-5.1-15.5-9.4c-1.5-1.6-3-3.2-4.7-4.6c-7.4-6.3-16.4-12.9-27.8-13.5c-27.5-1.6-51.5,11.5-74.7,24.2
			c-1.2,0.7-2.5,1.4-3.8,2.1c-6,3.4-12.8,7.3-19.7,8.6c-4.1,0.8-7.9,0-11.5-0.8c-2.7-0.6-5.3-1.1-7.9-1.1
			c-11.1,0.3-21.3,6.8-29.6,11.9c-0.2,0.1-0.7,0.5-1.4,0.9C527.4,335.7,523.4,338.2,520.6,339.8z"/>
	</g>
	<g>
		<path class="st1" d="M517,341.4h285.3c1.8,0,3.4,0,5.1-0.2c-0.9-1.2-11.6-0.8-15.6-1.4c-3.4-0.6-3.7-1.8-7.6-2.3
			c-3.6-0.5-8.3-0.1-12-0.6c-4.5-0.7-4-1.9-7.4-2.8c-8.7-2.1-24.5,0.3-34.9,0c-9.3-0.2-12.9-2.1-19.3-3.4
			c-8.2-1.8-17.4-3.3-28.8-3.5c-27.9-0.4-52.3,2.9-75.5,6.2c-7,1-15,2.3-23,2.7c-6.7,0.3-12.7-0.5-19.2-0.5
			c-11.3,0.1-21.3,1.6-30.4,3.1c-1.9,0.3-18.3,3-19.4,2.8C514.9,341.4,515.9,341.4,517,341.4"/>
	</g>
	<g>
		<path class="st1" d="M802.2,342.9H517c-1.3,0-2.2,0-3-0.2c-0.8-0.2-1.4-1.1-1.2-1.9c0.2-0.8,1-1.3,1.8-1.2c0.7,0,3.8-0.3,17.8-2.6
			l1.1-0.2c8.5-1.3,19-3,30.6-3.1c2.9,0,5.6,0.1,8.3,0.3c3.5,0.2,7.1,0.4,10.8,0.2c6.5-0.3,13.2-1.3,19.1-2.1
			c1.3-0.2,2.6-0.4,3.8-0.5c23.4-3.2,47.7-6.6,75.8-6.2c12.1,0.2,21.9,2,29.1,3.6c1.8,0.4,3.4,0.8,4.9,1.2c3.9,1,7.6,2,14.1,2.2
			c3.7,0.1,8.2-0.2,12.8-0.4c8.2-0.5,16.7-0.9,22.4,0.4c1.7,0.4,2.6,1,3.4,1.4c0.9,0.5,1.6,1,3.8,1.3c1.8,0.3,3.9,0.3,6,0.3
			c2,0,4.1,0.1,6,0.3c2.3,0.3,3.5,0.9,4.6,1.3c0.9,0.4,1.6,0.7,3,1c1.5,0.3,4.2,0.4,6.9,0.4c6.6,0.2,8.8,0.4,9.7,1.6
			c0.3,0.5,0.4,1,0.2,1.6c-0.2,0.5-0.7,0.9-1.3,0.9C805.7,342.9,804.1,342.9,802.2,342.9z M535.3,339.8h251.8
			c-0.8-0.3-1.7-0.6-3.2-0.8c-1.7-0.2-3.7-0.3-5.6-0.3c-2.2,0-4.4-0.1-6.4-0.4c-2.9-0.4-4-1.1-5-1.7c-0.7-0.4-1.3-0.8-2.5-1.1
			c-5.3-1.3-13.5-0.8-21.5-0.4c-4.7,0.3-9.2,0.5-13.1,0.4c-6.9-0.2-10.8-1.2-14.8-2.3c-1.5-0.4-3-0.8-4.8-1.2
			c-7.5-1.6-16.7-3.3-28.4-3.5c-27.8-0.4-52,2.9-75.3,6.1c-1.2,0.2-2.5,0.4-3.8,0.5c-5.9,0.9-12.7,1.8-19.4,2.1
			c-3.9,0.2-7.5,0-11.1-0.2c-2.7-0.1-5.4-0.3-8.2-0.3C553.3,337,543.8,338.4,535.3,339.8z M514.6,339.7c0,0,0.1,0,0.1,0
			C514.7,339.7,514.7,339.7,514.6,339.7z"/>
	</g>
	<g>
		<rect x="255.2" y="4.8" class="st0" width="108.1" height="779.8"/>
	</g>
	<g>
		<polygon class="st0" points="757.4,784.6 660.7,784.6 660.7,98.1 757.4,145.7 		"/>
	</g>
	<g>
		<path class="st1" d="M254.5,786.1H139.9c-0.9,0-1.6-0.7-1.6-1.6V4.8c0-0.9,0.7-1.6,1.6-1.6h114.5c0.9,0,1.6,0.7,1.6,1.6v779.8
			C256.1,785.4,255.3,786.1,254.5,786.1z M141.5,783h111.4V6.4H141.5V783z"/>
	</g>
	<g>
		<path class="st1" d="M857.2,786.1h-99.8c-0.9,0-1.6-0.7-1.6-1.6V143.3c0-0.5,0.3-1.1,0.8-1.3c0.5-0.3,1.1-0.3,1.5-0.1
			c55.5,28.1,100.6,96.2,100.6,151.8v490.9C858.7,785.4,858,786.1,857.2,786.1z M759,783h96.6V293.6c0-53.7-43.1-119.4-96.6-147.7
			V783z"/>
	</g>
	<g>
		<path class="st1" d="M660.7,786.1H363.3c-0.9,0-1.6-0.7-1.6-1.6V4.8c0-0.9,0.7-1.6,1.6-1.6h115.2c0.2,0,0.5,0.1,0.7,0.2
			l182.2,90.2c0.5,0.3,0.9,0.8,0.9,1.4v689.6C662.2,785.4,661.5,786.1,660.7,786.1z M364.9,783h294.2V96l-181-89.6H364.9V783z"/>
	</g>
	<g>
		<path class="st2" d="M915.5,47c-0.9,0-1.6-0.7-1.6-1.6c-0.1-12.8-0.2-25.5-0.1-37.8c0-0.9,0.7-1.5,1.6-1.6c0.9,0,1.6,0.7,1.6,1.6
			c-0.1,12.3-0.1,25,0.1,37.8C917.1,46.3,916.4,47,915.5,47C915.5,47,915.5,47,915.5,47z"/>
	</g>
	<g>
		<path class="st2" d="M824.5,141.7c-0.9,0-1.6-0.7-1.6-1.6c-0.3-42.6-0.3-87.2,0-132.5c0-0.9,0.7-1.6,1.6-1.6c0,0,0,0,0,0
			c0.9,0,1.6,0.7,1.6,1.6c-0.2,45.3-0.2,89.9,0,132.5C826.1,141,825.4,141.7,824.5,141.7C824.5,141.7,824.5,141.7,824.5,141.7z"/>
	</g>
	<g>
		<path class="st2" d="M737.7,23.4c-0.8,0-1.5-0.6-1.6-1.5c-0.3-4.6-0.4-9.3-0.3-14.1c0-0.9,0.8-1.6,1.6-1.6c0.9,0,1.6,0.7,1.6,1.6
			c-0.1,4.7,0.1,9.4,0.3,13.9C739.4,22.6,738.7,23.3,737.7,23.4C737.8,23.4,737.8,23.4,737.7,23.4z"/>
	</g>
	<g>
		<path class="st0" d="M863.1,181.7c0,21.3-17.3,38.5-38.5,38.5c-21.3,0-38.5-17.2-38.5-38.5c0-21.3,17.3-38.5,38.5-38.5
			C845.8,143.2,863.1,160.4,863.1,181.7"/>
	</g>
	<g>
		<path class="st1" d="M824.5,221.8c-22.1,0-40.1-18-40.1-40.1c0-22.1,18-40.1,40.1-40.1c22.1,0,40.1,18,40.1,40.1
			C864.7,203.8,846.7,221.8,824.5,221.8z M824.5,144.8c-20.4,0-37,16.6-37,37c0,20.4,16.6,36.9,37,36.9c20.4,0,37-16.6,37-36.9
			C861.5,161.3,844.9,144.8,824.5,144.8z"/>
	</g>
	<g>
		<path class="st1" d="M832.5,205.5c-5.1-1.4-10.1-4.6-13.7-7.7c-4.8-4.2-12.2-8.7-18.8-6.2c-3.3,1.2-5.4,3.9-6.3,7.2
			c-1.3,4.8,2.5,9.3,5.9,12.2c6.9,6,15.9,9.3,25.1,9.3c10.3,0,20.4-4.2,27.6-11.6c4.8-4.9,8.5-11.8,9.8-18.6c0.5-2.7-0.1-5.2,0.4-8
			c-0.9,4.8-3.2,9.7-6.3,13.7c-4,5.3-10.8,10.2-17.7,10.5C836.4,206.4,834.4,206.1,832.5,205.5"/>
	</g>
	<g>
		<path class="st0" d="M766.5,53.5c0,15.9-12.9,28.7-28.7,28.7c-15.9,0-28.7-12.9-28.7-28.7c0-15.9,12.9-28.7,28.7-28.7
			C753.6,24.8,766.5,37.7,766.5,53.5"/>
	</g>
	<g>
		<path class="st1" d="M737.7,83.8c-16.7,0-30.3-13.6-30.3-30.3s13.6-30.3,30.3-30.3S768,36.8,768,53.5S754.4,83.8,737.7,83.8z
			 M737.7,26.4c-15,0-27.1,12.2-27.1,27.1s12.2,27.1,27.1,27.1c15,0,27.1-12.2,27.1-27.1S752.7,26.4,737.7,26.4z"/>
	</g>
	<g>
		<path class="st1" d="M718.6,62c-1.9,0.7-3.5,1.9-4.1,4.1c-1.1,3.6,2.5,7.5,5,9.6c5.1,4.2,11.6,6.5,18.2,6.5
			c4.9,0,9.8-1.3,14.1-3.7c3.9-2.2,10.2-8.2,11.2-12.8c-0.7,3.3-6.6,6.4-9.5,7.3c-4.2,1.3-8,0.6-12-1.2
			C734.8,68.7,727.1,58.8,718.6,62"/>
	</g>
	<g>
		<path class="st0" d="M949.2,82.2c0,18.6-15.1,33.7-33.7,33.7c-18.6,0-33.8-15.1-33.8-33.7c0-18.6,15.1-33.7,33.8-33.7
			C934.1,48.5,949.2,63.6,949.2,82.2"/>
	</g>
	<g>
		<path class="st1" d="M915.5,117.6c-19.5,0-35.3-15.8-35.3-35.3s15.9-35.3,35.3-35.3c19.5,0,35.3,15.8,35.3,35.3
			S934.9,117.6,915.5,117.6z M915.5,50.1c-17.7,0-32.2,14.4-32.2,32.2c0,17.7,14.4,32.2,32.2,32.2c17.7,0,32.2-14.4,32.2-32.2
			C947.6,64.5,933.2,50.1,915.5,50.1z"/>
	</g>
	<g>
		<path class="st1" d="M938.4,103c-4.5,2.6-9.9,3.9-14.6,3.6c-4.3-0.3-8.5-2.3-11.1-5.8c-2.8-3.7-3.7-8.6-7-12.1
			c-3.6-3.8-8.9-4.6-13.7-2.7c-3,1.2-5.9,3.2-6.8,6.4c-1.5,5.2,4.1,11.6,7.5,14.7c6.2,5.6,14.3,8.8,22.7,8.8
			c14.6,0,28.7-10.2,32.4-24.4C946.6,96.4,942.9,100.4,938.4,103"/>
	</g>
</g>
<g id="Capa_3">
	<g>
		<path class="st1" d="M1149.8,1020.7v-42.9c0,0,2-10.2-18.4-25.5c0,0,71.5-66.1,5.1-159.7l-142-94.1l-11.2-166
			c0,0,6.1-17.4-41.9-17.4H1.9v505.5H1149.8z"/>
	</g>
	<g class="st3">
		<path class="st4" d="M675,542.7C675,542.7,675,542.8,675,542.7c-0.1,0.1-0.7,0.4-1.4,0.7c-0.5,0.6-1.7,0.9-2.8,1.1
			c-0.6,0.2-1,0.4-1,0.3c0,0.2,0.3,0.5,0.7,0.7c1,0.4,2,0.8,3.1,1.2c0.9,0.3,1.7,0.5,1.9,0.6c4.1,1.5,8.2,2.8,12.4,4
			c8.7,2.4,17.5,4.2,26.4,5.7c18.1,2.9,36.4,4.1,54.6,4.1c0.1,0,0.1,0.1,0,0.1c-4.8,0-9.6,0.6-14.4,1.3c-0.5,0.1-1.4,0.1-2.3,0.2
			c-0.3,0-0.6,0.1-0.9,0.1c-0.9,0.2-1.3,0.5,0.4,0.9c2.1,0.6,4.3,1.2,6.4,1.7c8.7,2.2,17.5,4,26.3,5.6c18.2,3.3,36.5,5.5,54.9,7.4
			c0.1,0,0.1,0.1,0,0.1c-6.4,0-12.9,0-19.2,0.9c-0.3,0-0.8,0.1-1.3,0.1c-0.9,0.2-1.7,0.3-2.5,0.5c-0.1,0-0.2,0.1-0.3,0.2
			c-0.7,0.6-0.1,0.4,0.6,0.8c0.7,0.3,1.5,0.4,2.2,0.7c3,0.9,6,1.6,9.1,2.4c10.6,2.5,21.4,4.2,32.2,5.1c1.4,0,2.9,0.1,4.2,0.3
			c0.4,0,0.7,0.1,1.1,0.1c0.2,0,0.4,0,0.5,0c0.4,0,0.7,0.1,1.1,0.1c0,0,0.1,0.1,0,0.1c-1.4,0.7-3.1,1.3-4.4,2.2
			c-1.4,0.9-1.1,1.2,0.3,1.9c2.3,1.1,4.8,2.1,7.3,2.8c4.4,1.3,9,2.2,13.5,3c6.7,1.2,13.6,2.3,20,4.6c2.1,0.7,4,1.5,5,2.2
			c0.4,0.2,0.8,0.4,1.2,0.6c0,0,0,0.1,0,0.1c-0.2,0.2-0.5,0.3-0.7,0.5c-0.3,0.4-1.2,0.9-2.1,1.3c-2.6,1.6-5.4,3-8.1,4.5
			c-0.9,0.5-1.8,1-2.7,1.6c-1,0.6-1.7,0.8-0.4,1.2c0.2,0.1,0.5,0.2,0.7,0.2c1,0.2,2.1,0.4,3.1,0.5c1,0.1,2.1,0.1,3,0.2
			c0.1,0,0.1,0.1,0,0.1c-3.5,1-6.2,3.4-9.4,5c0.2-0.1-1.6,0.8-1.5,0.7c-1,0.7-0.8,0.4,0.2,0.7c0.2,0.1,0.4,0.1,0.5,0.2
			c1.2,0.2,2.5,0.4,3.7,0.5c0.6,0,1.1,0.1,1.6,0.1c5.7,0.6,11.8,0.4,17.1,2.9c0,0,0,0.1,0,0.1c-0.5,0.3-1,0.5-1.4,0.8
			c-0.7,0.7-2.2,1.4-3.4,1.9c-2.3,1.3-4.7,2.5-7,3.7c-0.9,0.5-1.8,0.9-2.7,1.4c-0.6,0.3-1.2,0.6-1.8,0.9c-0.1,0.3,0,0.5,0.1,0.6
			c0.2,0,0.4,0.1,0.6,0.1c0.1,0,0.2,0,0.3,0c0.2,0.1,0.3,0.1,0.5,0.2c1.5,0.2,3,0.4,4.6,0.6c0.7,0,1.4,0.1,2.1,0.2
			c7.4,0.8,14.8,1.2,22.2,2.3c0.9,0.1,1.9,0.2,2.4,0.4c0.4,0.1,0.7,0.1,1.1,0.2c0,0,0,0.1,0,0.1c-0.3,0.3-0.7,0.6-1,0.9
			c-0.2,0.2-0.4,0.4-0.6,0.6c-2.4,2-4.9,3.8-7.5,5.5c-1.8,1.2-3.7,2.4-5.5,3.6c-0.6,0.4-1.4,0.8-1.9,1.3c-1.5,1.4-0.6,1.5,1,1.7
			c9.6,1.6,19.3,1.6,28.9,2.6c0,0,0.1,0.1,0,0.1c-5.7,4.8-12.2,8.2-18.6,11.9c-0.2,0.1-1.3,0.7-2.4,1.3c-0.8,0.5-1.7,1-2.5,1.5
			c-0.1,0.1-0.2,0.2-0.2,0.2c0.1,0.3,0.6,0.4,1.3,0.5c0.7,0,1.4,0,2.1,0c0.8,0,1.5-0.1,1.9-0.1c3.3,0.1,6.5,0.3,9.8,0.6
			c0.5,0,1,0.1,1.2,0.2c0.4,0.1,0.8,0.1,1.3,0.2c0,0,0.1,0.1,0,0.1c-3.8,3-8.1,5.4-12.4,7.7c-0.3,0.2-0.8,0.3-1.3,0.5
			c-0.7,0.4-1.5,0.7-2.2,1.1c-0.1,0.1-0.2,0.2-0.3,0.2c-0.5,0.6-0.6,0.2,0.1,0.6c0.4,0.2,1.4,0.1,1.9,0.1c3,0.2,5.9,0.5,8.9-0.2
			c0.1,0,0.1,0.1,0,0.1c-0.3,0.2-0.6,0.3-0.9,0.5c-0.1,0.1-0.2,0.1-0.4,0.2c-2.5,1.3-5,2.5-7.7,3.5c-1.6,0.7-3.3,1.3-5,1.9
			c-0.5,0.2-1.6,0.3-1.5,0.8c0,0.1,2.2,0,2.3,0c6.6,0.2,13.1,0.9,19.6,1.7c0.5,0,1,0.1,1.3,0.2c0.5,0.1,0.9,0.1,1.4,0.2
			c0.1,0,0.1,0.1,0,0.1c-4.2,1.7-8.4,3.4-12.3,5.5c-0.2,0.1-0.6,0.3-1,0.5c-0.2,0.1-0.5,0.3-0.7,0.4c-0.4,0.3-0.6,0.5-0.4,0.8
			c0.1,0.2,2.6,0.2,2.8,0.2c2.1,0.1,4.2,0.2,6.3,0.2c7.4,0.2,14.9,0.1,22.2,1.2c0.3,0,0.7,0.1,1,0.1c0.5,0.1,1,0.1,1.5,0.2
			c0,0,0,0.1,0,0.1c-1.5,0.8-3.1,1.5-4.7,2.1c-0.3,0.1-1.5,0.5-1.6,0.5c0.1,0,0.2,0,0.3,0c0.8-0.2,1.5-0.5,2.3-0.7
			c0.5-0.2,1-0.4,1.3-0.4c3.4-0.8,6.9-1.4,10.4-1.6c0.2,0,0.4,0,0.6,0c6.6-2.5,13.7-4.1,20.5-5.1c0.8-0.1,1.6-0.2,2.4-0.4l-11.1-164
			c0,0,6.1-17.4-41.9-17.4H579.4c9.1,3,18.4,5.6,27.6,8.1c21.2,5.7,42.7,10.7,63.5,17.8c0.8,0.2,1.6,0.4,2.3,0.8
			C673.5,542.2,674.2,542.5,675,542.7z"/>
	</g>
	<g class="st3">
		<path class="st4" d="M965.9,704.8c1.2-0.2,2.4-0.8,3.5-1.2c0.3-0.1,3.1-1.2,3-1.2c-0.1-0.1-0.3-0.2-0.6-0.2
			c-2,0.7-3.9,1.5-5.7,2.5C965.7,704.9,965,704.9,965.9,704.8z"/>
	</g>
	<g>
		<path class="st2" d="M807.7,900.6c-0.5-0.4-0.9-0.9-1.2-1.5c-0.4-0.5-0.7-1.1-0.8-1.7c-0.2-0.6-0.1-1.4,0.4-1.9
			c0.4-0.6,1-0.8,1.6-1.1l0,0l0,0l23.2-4.6l23.2-4.5c0.2,0,0.4,0,0.5,0.1l0,0l15.1,7.9l15.1,7.9l30.2,16l-0.2-0.1
			c0.5,0.2,0.8,0.4,1.2,0.6c0.4,0.2,0.7,0.5,1,0.8c0.6,0.6,1.1,1.4,1.4,2.3c0.3,0.8,0.3,1.7,0.2,2.6c0,0.4-0.1,0.8-0.2,1.2l-0.4,1.1
			c-0.1,0.4-0.5,0.7-0.8,0.7l-0.1,0l-25.8,4.3l-25.8,4.2l0,0c0,0-0.1,0-0.1,0c-1.1-0.1-2.1-0.2-3.2-0.4c-1-0.2-2-0.5-3-0.8
			c-1-0.3-2-0.8-2.9-1.2c-0.9-0.5-1.8-1.1-2.7-1.7l0.1,0c-7.5-4.7-15.1-9.3-22.6-14c-7.5-4.7-15-9.4-22.5-14.2
			c7.7,4.4,15.3,8.9,23,13.3c7.7,4.4,15.3,9,22.9,13.5l0,0l0,0c0.8,0.5,1.6,1.1,2.5,1.5c0.9,0.4,1.8,0.8,2.7,1.1
			c0.9,0.3,1.9,0.5,2.8,0.7c0.9,0.2,1.9,0.3,2.8,0.3l-0.2,0l25.8-4.5l25.8-4.4l-0.9,0.7l0.3-0.9c0-0.3,0.1-0.6,0.1-0.9
			c0.1-0.6,0-1.1-0.1-1.6c-0.2-0.5-0.4-0.9-0.8-1.3c-0.3-0.4-0.9-0.7-1.3-0.9l-0.1,0l-0.1,0l-30.1-16.1l-15-8.1l-15-8.2l0.5,0.1
			l-23.3,4l-23.3,3.8l0,0c-0.6,0.2-1.2,0.4-1.6,0.9c-0.4,0.5-0.5,1.1-0.4,1.7C806.1,898.6,806.9,899.7,807.7,900.6z"/>
	</g>
	<g>
		<path class="st2" d="M814.4,900.6c3.7,2,7.3,4.1,10.9,6.2c3.6,2.1,7.2,4.2,10.8,6.4c7.2,4.3,14.3,8.7,21.3,13.1l-0.1,0
			c0.3,0.2,0.8,0.3,1.3,0.5c0.5,0.1,1,0.3,1.5,0.4c1,0.2,2,0.3,3,0.3c2.1,0.1,4.1-0.2,6.2-0.6c4.3-0.7,8.5-1.5,12.8-2.2
			c4.3-0.7,8.5-1.4,12.8-2c4.3-0.6,8.6-1.3,12.9-1.8c-4.2,1.1-8.4,1.9-12.7,2.9c-4.2,0.9-8.5,1.8-12.7,2.7
			c-4.2,0.9-8.5,1.7-12.7,2.5c-2.1,0.4-4.4,0.7-6.7,0.7c-1.1,0-2.3-0.1-3.4-0.3c-0.6-0.1-1.1-0.2-1.7-0.4c-0.6-0.2-1.1-0.3-1.7-0.7
			l-0.1,0l0,0c-7.1-4.5-14.1-9-21-13.6c-3.5-2.3-7-4.6-10.4-7C821.2,905.4,817.7,903,814.4,900.6z"/>
	</g>
	<g>
		<path class="st2" d="M994.6,698.6c-4-2.1-8.3-3.6-12.6-5c-4.3-1.3-8.8-2.3-13.2-3c-8.9-1.4-18.1-1.3-26.9,0.1
			c-4.4,0.7-8.8,1.8-13,3.2c-4.3,1.3-8.4,3.2-12.4,5.2c-7.9,4.1-15.3,9.4-21.9,15.5l0,0l-0.1,0.1c-3.4,2.8-6.6,6.3-9.5,9.8
			c-2.9,3.6-5.4,7.4-7.6,11.4c-2.2,4-4.1,8.2-5.5,12.6c-1.5,4.3-2.5,8.8-3.2,13.3c-0.6,4.5-0.9,9.1-0.7,13.7l0.1,1.7l0.2,1.7
			c0.1,1.1,0.2,2.3,0.3,3.4l0.5,3.4c0.1,0.6,0.2,1.1,0.3,1.7l0.4,1.7c1.9,9,5.1,17.7,9.3,25.9l-0.2-0.4l24.8,30.6l24.6,30.7
			l24.6,30.8l6.2,7.7l1.5,1.9c0.5,0.6,0.9,1.2,1.5,1.8c1,1.2,2.1,2.4,3.2,3.5c4.5,4.6,9.6,8.6,14.9,12.2c10.7,7.3,22.6,12.7,35,16.6
			c12.4,3.8,25.3,6.2,38.3,7.2l4.9,0.4c1.6,0.1,3.3,0.1,4.9,0.2l4.9,0.2l4.9,0c1.6,0,3.3,0,4.9,0l4.9-0.2l4.9-0.2l4.9-0.4
			c13.1-1,26-3,38.9-5.7c0.1,0,0.1,0,0.1,0.1c0,0.1,0,0.1-0.1,0.1c-25.6,5.6-52,8.7-78.2,6.8c-13.1-0.9-26.1-3.2-38.7-7
			c-12.5-3.9-24.7-9.2-35.6-16.6c-5.5-3.7-10.6-7.8-15.3-12.4c-1.1-1.2-2.3-2.4-3.3-3.6c-0.5-0.6-1.1-1.3-1.6-1.9l-1.5-1.9l-6.2-7.7
			l-24.7-30.7L877,816.1l0,0c-4.2-8.4-7.5-17.3-9.4-26.4l-0.4-1.7c-0.1-0.6-0.2-1.2-0.3-1.7l-0.5-3.5c-0.1-1.2-0.2-2.3-0.3-3.5
			l-0.2-1.8l-0.1-1.8c-0.2-4.7,0.1-9.4,0.7-14c1.3-9.3,4.5-18.3,9.1-26.5c2.3-4.1,4.9-8,7.9-11.6c3-3.6,6.2-7.1,9.9-10l0,0
			c6.7-6.1,14.2-11.4,22.3-15.5c4.1-2,8.3-3.8,12.6-5.2c4.3-1.4,8.8-2.5,13.3-3.1c9-1.3,18.2-1.2,27.2,0.3c4.5,0.7,8.9,1.8,13.3,3.2
			c4.3,1.4,8.6,3,12.6,5.2c0.1,0,0.1,0.1,0,0.2C994.7,698.6,994.6,698.6,994.6,698.6L994.6,698.6z"/>
	</g>
	<g>
		<path class="st2" d="M953.8,903.8c-1.5-5.5-2.3-11.2-2.8-16.9c-0.5-5.7-0.5-11.5-0.2-17.2c0.4-5.7,1.1-11.5,2.4-17.1
			c1.3-5.6,3-11.2,5.2-16.6c2.1-5.4,4.9-10.5,8-15.5l2.4-3.6c0.8-1.2,1.7-2.3,2.6-3.5c1.7-2.4,3.7-4.5,5.6-6.7
			c7.9-8.5,17.4-15.6,27.5-21.3c2.5-1.5,5.1-2.7,7.7-4l1.9-1c0.7-0.3,1.4-0.6,2.1-0.9c1.4-0.5,2.7-1,4.1-1.5
			c2.8-0.9,5.5-1.8,8.3-2.5c2.8-0.7,5.6-1.4,8.5-1.9c11.4-2.1,23-2.9,34.5-2.1c5.8,0.4,11.5,1.1,17.2,2.2c5.7,1.1,11.3,2.5,16.7,4.3
			l2,0.7l2,0.8c1.3,0.5,2.7,1,4,1.5c2.6,1.1,5.3,2.2,7.9,3.5c1.3,0.6,2.6,1.2,3.9,1.9l3.8,2c1.3,0.7,2.5,1.4,3.7,2.1l3.7,2.2
			c-20.2-10.7-42.5-17.2-65.1-18c-11.3-0.4-22.6,0.5-33.7,2.7c-5.5,1.1-11,2.5-16.3,4.4c-1.3,0.5-2.6,0.9-3.9,1.5
			c-0.6,0.3-1.3,0.5-1.9,0.8l-1.9,0.9c-2.5,1.3-5.1,2.4-7.5,3.9c-9.8,5.5-18.9,12.3-26.7,20.4c-1.9,2.1-3.8,4.1-5.5,6.3
			c-0.9,1.1-1.8,2.2-2.6,3.3l-2.4,3.5c-0.4,0.6-0.8,1.2-1.1,1.8l-1.1,1.8c-0.7,1.2-1.5,2.4-2.1,3.6c-0.7,1.2-1.3,2.5-2,3.7l-1.8,3.8
			c-2.2,5.2-4.1,10.5-5.5,16c-1.4,5.5-2.4,11.1-3,16.7C951.4,881,951.7,892.5,953.8,903.8z"/>
	</g>
	<g>
		<path class="st2" d="M877.2,816c-6.9,0.2-13.8,0.2-20.7,0.3l-20.7,0c-13.8,0-27.6-0.2-41.4-0.3c-13.8-0.2-27.6-0.5-41.4-0.9
			l-20.7-0.6c-6.9-0.3-13.8-0.5-20.7-0.9c6.9-0.2,13.8-0.2,20.7-0.3l20.7,0c13.8,0,27.6,0.2,41.4,0.4c13.8,0.2,27.6,0.5,41.4,0.9
			l20.7,0.6C863.4,815.4,870.3,815.6,877.2,816z"/>
	</g>
	<g class="st3">
		<path class="st4" d="M1131,954.3c5.6-1.6-11.4,2.5-17.1,3.8c5.2-1.3-7.5,5.2-3.4,1.7c1.7-0.1,3.5-0.3,5.2-0.4
			c-3.3-0.1-6.5-0.2-9.8-0.3c2.8-0.2,5.6,0.8,7.7,2.7c-6.3,0.3-12.6-0.5-18.7-2.4c2.4,0.7,4.7,1.5,7.1,2.2
			c-12.7-1.6-25.4-3.2-38.2-4.8c3.2,0.6,6.4,1.1,9.5,1.7c-8.2,0.5-16.4,1-24.6,1.5c-0.1,0-0.1,0-0.2,0c-11.5,1.7-23.2,2.3-34.9,1.7
			c-0.2-0.1-0.4-0.2-0.6-0.2c-8.8-0.6-17.6-1.7-26.3-2.9c3.2-0.4,6.5-0.9,9.7-1.3c-7.5-0.2-14.9-0.4-22.4-0.6
			c2.2-0.6,4.4-1.3,6.6-1.9c-7.2-0.1-14.3-0.1-21.5-0.2c3.7-1.2,7.3-2.3,11-3.5c-8.7-0.2-17.4,0.2-26.1,1c6.4-1.9,12.7-4.3,18.8-7.1
			c-3-0.2-5.9-0.4-8.9-0.6c2.1-1.7,4.2-3.4,6.3-5.1c-3.3,0-6.6,0-9.9,0.1c2.4-1.5,4.7-3,7.1-4.5c-1.6-1.3-1.4-4.2,0.3-5.3
			c-1.7-0.3-3.3-0.5-5-0.8c1.5-1.4,0.9-4.2-0.8-5.4c-1.7-1.3-3.9-1.5-6-1.6c2,0,1.5-3.2,0.1-4.7c-1.4-1.4-2.9-4.1-1.2-5
			c-4.8-2.1-9.8-3.8-14.9-5c1.3-0.8,2.6-1.6,4-2.4c-2.4-0.4-4.8-0.8-7.2-1.2c1.6-1.3,3.2-2.6,4.8-3.9c-1.4-1-3-1.6-4.7-1.6
			c1.9-1.6,3.2-3.9,3.7-6.4c-3.6-1.4-7.2-2.8-10.8-4.2c1.4-1.8,2.8-3.5,4.3-5.3c-5-2.2-10.2-4-15.6-5.2c1.4-1.3,2.8-2.6,4.2-3.9
			c-5.7-1.7-11.4-3-17.3-3.8c2.6-1.7,5.2-3.4,7.8-5.2c-4.7-1.8-9.6-3-14.6-3.5c3.6-1.8,6.8-4.1,9.6-7c-2.5-1.2-5.3-1.7-8.1-1.7
			c1.8-1.4,3.5-2.7,5.3-4.1c-4-1-8-2-12-3c1.8-1.6,3.6-3.2,5.4-4.9c-5.7-1.8-11.6-2.9-17.5-3.5c2.1-1.3,4.2-2.7,6.3-4
			c-6.3-0.8-12.5-1.7-18.8-2.5c2-0.6,3.9-1.2,5.9-1.8c-7.7,0.2-15.3,0.4-23,0.6c2.1-0.2,4.1-1.1,5.7-2.4
			c-10.9-0.1-21.8-0.2-32.7-0.3c3.4-1,6.9-2,10.3-3c-12.5,0.6-25.1,0.1-37.5-1.6c2.6-0.9,5.1-1.9,7.7-2.8c-6.2-1-12.6-1.3-18.9-1.1
			c2.7,0,5.4-0.5,7.9-1.6c-9.6,0.7-19.2,1.3-28.7,2c40.1-1.3,80.3-2.6,120.4-3.9l82.7,103.4c0,0,18.2,27.5,69.1,38
			C1028,955.6,1090.6,965.6,1131,954.3z"/>
	</g>
	<g>
		<path class="st2" d="M694,715.9c0,0,52.3-43.9,77.3-112.9c0,0,2.6-27.2,18.8-20.4c0,0,15.2,8.9,26.1,11c0,0,18.3,0.5,41.3,8.9
			c0,0,98.2,30.3,130.1,33.4c0,0,48.6-8.4,36.6,16.2l-42.3,69l-106.1,138c0,0-12,62.2-42.9,60.6c0,0-13.1-1.6-40.2-29.8l-51.2-30.8
			l-115-73.7L694,715.9z"/>
	</g>
	<g>
		<path class="st5" d="M837.7,919.7c0,0,21.4-7.3,41.3-31.4c0,0,1-2.6,7.8-7.3c0,0,20.4-21.9,29.8-48.6c0,0-3.1-2.1,6.8-8.9
			c0,0,25.1-24,30.8-35c0,0,20.9-18.3,25.6-40.2c0,0,13.8-38.8,30.3-66.4c1.6-2.6,13.6-26.1,21.4-29.8c0,0,5.9-6.8-5.4-12
			c-3.4-1.5,5.3,0.2-1.9,12l-42.3,69l-106.1,138C875.8,859.1,871.6,902.5,837.7,919.7z"/>
	</g>
	<g class="st3">
		<path class="st4" d="M786.5,813.3c-0.8,0.3-1.6,0.5-2.3,0.8c1-0.3,2-0.6,3-0.9c2.1-0.6,4.3-1.2,6.4-1.8c0.9-0.3,2.2-0.5,3.1-0.9
			c0.3-0.2,0.5-0.3,0.7-0.3c-1.4,0.3-2.9,0.7-4.3,1.1C790.8,811.8,788.6,812.5,786.5,813.3z"/>
	</g>
	<g class="st3">
		<path class="st4" d="M4.9,818.5c8-5,16.7-8.5,25.5-11.8c4.5-1.7,9-3.3,13.5-5c2.7-1,5.4-2.1,8-3.3c0.8-0.4,1.5-0.5,0.9-0.7
			c-4.7-0.1-9.4-0.1-14.1-0.1c-0.1,0-0.1-0.1,0-0.1h3.1c0.3,0,0.7,0,1,0H54c0,0,0.1,0.1,0,0.1c0,0-0.1,0-0.1,0
			c2.3,0,4.5,0.1,6.8,0.1c13.3,0.3,26.5,0.7,39.8,0.9c4.5-0.7,9-1.7,13.4-2.6c2.6-0.6,5.2-1.1,7.8-1.6c1.2-0.2,2.4-0.5,3.6-0.7
			c0.2,0,1.3-0.1,2.4-0.3c0.4-0.1,0.8-0.1,1.2-0.2c0.3-0.1,0.6-0.1,0.6-0.2c0.3-0.7-4.9-1.7-5.7-1.9c-1.9-0.4-3.9-0.8-5.9-1.1
			c-4.7-0.7-9.4-1-14.2-1c-4.7,0-9.4,0.2-14,0.6c0,0,0,0,0,0c-1.2,0.2-2.4,0.3-3.6,0.3c-0.1,0-0.1-0.1,0-0.1
			c1.3-0.1,2.5-0.2,3.8-0.3c0.4-0.1,0.7-0.1,1.1-0.2c2.2-0.4,4.3-1.1,6.4-1.7c1.3-0.4,2.1-0.6,0.3-0.9c-1.2-0.2-2.5-0.2-3.8-0.3
			c-2.2-0.1-4.3-0.3-6.5-0.4c-4.7-0.2-9.4-0.4-14.1-0.5c-9.6-0.2-19.1-0.2-28.7-0.2c0,0-0.1-0.1,0-0.1c0.4-0.2,0.7-0.4,1.1-0.6
			c0.4-0.3,1.2-0.7,1.9-1c2.7-1.5,5.4-3,8.2-4.5c1.9-1,3.8-2.1,5.7-3.1c0.3-0.2,2.1-0.9,2.3-1.2c0.2-0.3,0-0.6-0.3-0.9
			c-0.7-0.3-1.4-0.6-2-0.8c-0.4-0.1-0.7-0.2-0.9-0.3c-7.6-2.8-15.8-3.3-23.6-5.5c0,0,0,0,0,0c-0.5-0.1-1-0.3-1.5-0.5
			c0,0,0-0.1,0-0.1c2.2-2.4,3.1-5.7,4.2-8.7c0.1-0.3,0.2-0.5,0.4-0.8c0.6-1.6,1.3-3.1,2.2-4.5c0.1-0.2,0.2-0.4,0.3-0.6
			c0.6-1.3-0.8-1.7-2-2.4c-1.1-0.6-2.2-1.2-3.3-1.7c-2.3-1.1-4.7-2-7.1-2.8c-9.2-3-18.8-4.5-28.3-6.3v81.3c0.3-0.2,0.6-0.4,0.8-0.6
			C3,819.6,4.1,819,4.9,818.5z"/>
	</g>
	<g>
		<path class="st4" d="M114.2,799.1c-0.6,0-1.2,0-1.8,0c-4.1-0.1-8.2-0.1-12.3-0.2c-0.1,0-0.3,0-0.4,0.1c-0.1,0-0.1,0.1,0.4,0.2
			c0.2,0,0.5,0.1,0.7,0.1h4.5c0.9-0.1,1.7-0.1,2.5-0.1H114.2z"/>
	</g>
	<g>
		<path class="st4" d="M17.2,857c-1.6-0.7-3.3-1.4-4.9-2.1c-2.3-1-4.6-2.1-6.9-3c-0.4-0.1-0.8-0.2-1-0.4c-0.3-0.1-0.6-0.2-0.9-0.3
			c0,0-0.1-0.1,0-0.1c0.4-0.4,0.8-0.8,1.3-1.1c0.6-0.7,1.6-1.5,2.2-2c0.9-0.9,1.9-1.8,2.8-2.8c0.6-0.6,1.2-1.3,1.8-1.9
			c0.1-0.1,0.2-0.3,0.4-0.4c0.1-0.1,0.2-0.2,0.3-0.4c2.7-3.1,5-6.5,6.2-10.3c3.4-10.3-9.4-11.6-16.5-11.7v50.9
			c3.1-2.2,6.3-4.3,9.5-6.3c1.9-1.2,3.9-2.4,5.8-3.6c0.9-0.5,1.9-1,2.7-1.7c0.6-0.2,1.1-0.6,1.4-1.2c-0.3-0.1-0.5-0.2-0.8-0.3
			c-0.2-0.1-0.3-0.2-0.5-0.3c-0.5-0.2-1.1-0.4-1.6-0.6C17.9,857.3,17.5,857.2,17.2,857z"/>
	</g>
	<g class="st3">
		<path class="st4" d="M213.5,1018.5c0.8-0.7,0.4-0.5-0.4-0.9c-0.6-0.3-1.5-0.4-2.2-0.6c-1.4-0.3-2.7-0.6-4.1-0.9
			c-12-2.2-24.4-1.6-36.4-4.1c0,0,0-0.1,0-0.1c2.6-0.7,4.9-1.8,7.3-3c2-1.1,4-2.2,6.1-2.7c0.6-0.2,1.5-0.5,1.5-0.4
			c0-0.2-2.2-0.5-2.4-0.5c-2.8-0.5-5.6-0.9-8.4-1.3c-8.8-1-17.8-1.2-26.6-1.2c-1.1,0.1-2.4,0.1-3.2,0c-0.6,0-1.1,0-1.7,0
			c-0.1,0-0.1-0.1,0-0.1c3-1.1,5.8-2.5,8.6-3.9c0.9-0.4,1.7-0.8,2.6-1.2c1.3-0.5,2.5-0.8,0.4-1.1c-0.6-0.1-1.2-0.2-1.8-0.2
			c-3.2-0.2-6.3-0.4-9.5-0.6c-2-0.1-4-0.1-6-0.3c-10.7-0.6-21.3-1.4-31.9-3c-0.2,0-0.5-0.1-0.7-0.1c-0.5-0.1-1-0.1-1.5-0.2
			c0,0,0-0.1,0-0.1c0.6-0.3,1.1-0.6,1.7-0.9c0.9-0.8,2.2-1.4,3.3-2.1c0.7-0.4,1.4-0.9,2-1.3c1.3-0.8,2.6-1.6,4-2.2
			c0.8-0.4,2.3-0.7,1.9-1.4c0-0.1-0.2-0.2-0.5-0.3c-0.4-0.1-0.8-0.3-1.1-0.4c-0.6-0.2-1.1-0.4-1.3-0.5c-1.7-0.8-3.5-1.6-5.2-2.3
			c-3-1.2-6.1-2.2-9.4-2.3c0,0-0.1-0.1,0-0.1c0.4-0.4,0.7-0.8,1.1-1.2c0.4-0.7,1.1-1.3,1.7-1.9c2.3-2.8,4.4-5.7,6.8-8.3
			c0.9-1,1.9-2,2.9-2.9c0.1-0.1,0.7-0.5,0.7-0.6c0.1-0.6-0.7-0.4-1.4-0.5c-0.5-0.1-0.9-0.1-1.4-0.1c-2.2-0.1-4.5,0-6.7,0
			c-1.2,0.1-2.3,0.1-3.5,0.2c-14.3,0.9-28.4,4.2-42.8,4.6c-0.1,0-0.1,0-0.2,0c-0.6,0-1.1,0-1.7,0c0,0-0.1-0.1,0-0.1
			c10.7-5.4,21.4-10.7,31.7-16.8c0.2-0.1,0.6-0.3,1-0.5c1-0.6,2-1.2,3-1.8c0-0.1,0.1-0.1,0.1-0.2c0.2-0.5-0.1-1-0.7-1.3
			c-0.7-0.3-1.4-0.6-2.1-0.8c-0.4-0.1-0.8-0.2-1.1-0.3c-2.9-0.9-5.9-1.5-8.9-1.9c-5.6-0.7-11.2-0.7-16.9-0.7c0,0-0.1-0.1,0-0.1
			c1-0.9,2.1-1.6,3.3-2.3c0.3-0.2,1-0.5,1.7-0.8c0.2-0.1,0.4-0.2,0.6-0.3c0.7-0.4,1.3-0.9,1.1-1.3c0,0,0-0.1-0.1-0.1
			c-1.5-0.4-2.9-0.6-4.4-0.9c-1-0.1-1.9-0.2-2.1-0.2c-1.6-0.2-3.2-0.3-4.9-0.4c-5.2-0.2-10.5,0-15.7,0.2c-1,0.1-2,0.1-3,0.1
			c-0.9,0-1.7,0-2.6,0c0,0-0.1-0.1,0-0.1c3.1-1.6,5.9-3.6,8.8-5.4c0.1-0.1,1-0.5,2.1-1.1c1-0.6,2-1.1,3-1.5c1.4-0.7,2.5-1.2,2.5-1.1
			c0,0-0.2-0.1-0.6-0.2c-2.1-0.2-4.2-0.8-6.3-1.4c-2.6-0.7-5.3-1.4-8-1.5c-0.1,0-0.1-0.1,0-0.1c2.8-1.9,5.4-4,7.8-6.3
			c0.4-0.4,2.8-2.2,2.2-2.8c-0.1-0.1-0.4-0.1-0.8-0.2c0,0-0.1,0-0.1,0c-0.7-0.1-1.6-0.1-1.9-0.2c-5.1-1-9.9-3.2-15-3.9
			c-0.3,0-0.5-0.1-0.8-0.1c-0.7-0.1-1.5-0.1-2.2-0.2c-0.1,0-0.1-0.1,0-0.1c0.8-0.6,1.5-1.2,2.2-1.8c0.9-0.9,1.9-2,2.8-2.9
			c1.1-1.2,2.1-2.5,3.2-3.8c1.2-1.4,2.5-2.8,3.9-4c0,0,1.1-0.8,1.1-0.9c0-0.4-0.4-0.7-0.9-0.9c-0.2-0.1-0.4-0.1-0.6-0.2
			c-0.4-0.1-0.9-0.2-1.1-0.2c-8.6-2.2-17.5-2.5-25.9-5.2c0,0-0.1-0.1,0-0.1c3.2-1.7,5.5-4.4,7.7-7.2c0.9-1.2,1.8-2.3,2.7-3.4
			c0.1-0.2,0.4-0.4,0.8-0.7c0.6-0.6,1.2-1.2,1.9-1.8c0.1-0.1,0.1-0.2,0.2-0.3c0.2-0.5-0.9-1.1-2.4-1.6c-0.1,0-0.2-0.1-0.3-0.1
			c-2.7-0.9-6.4-1.7-7.2-1.9c-3.6-0.7-7.3-1.1-11-1.2v148h203.3c1.2-0.3,2.5-0.6,3.7-0.9c0.3-0.1,0.8-0.2,1.3-0.3
			c1-0.3,2-0.6,3.1-0.9C213.3,1018.7,213.4,1018.6,213.5,1018.5z"/>
	</g>
	<g>
		<path class="st6" d="M270.7,806.1c3.2,9,11.9,14.8,20.3,19.3c36.8,20,77.8,31.1,118.9,38.8c6.2,1.2,12.4,2.2,18.4,4.2
			c14.4,4.8,27.3,15,42.5,15.7c8.9,0.4,17.6-2.5,26-5.8c26.7-10.5,52-24.5,75-41.6c8.5-6.3,16.8-13.2,22.6-22.1
			c1.6-2.5,3.1-5.3,2.7-8.2c-0.7-5.2-6.6-7.8-11.7-9.1c-12.2-3.2-24.8-4.8-37.3-6.3c-41.9-5.3-83.8-10.6-126-13.5
			c-42.3-2.9-83.5-0.2-125.7,1.1C281.7,779.1,263.9,786.8,270.7,806.1z"/>
	</g>
	<g class="st7">
		<path class="st8" d="M597.1,806.5c-0.7-5.2-6.6-7.8-11.7-9.1c-12.2-3.2-24.8-4.8-37.3-6.3c-34.8-4.4-69.6-8.8-104.5-11.8
			c1.7,0.7,3.3,1.5,5,2.3c0,0,0,0.1,0,0.1c-4.3,1.1-8.8,0.8-13.2,0.3c-4-0.5-7.9-1.1-11.9-1.1c-0.5,0-1,0-1.5,0
			c-0.7,0-0.8,0-0.1,0.3c0.8,0.3,1.7,0.6,2.5,1c1.8,0.7,3.6,1.4,5.4,2.1c7.4,2.9,14.8,5.9,21.8,9.7c0,0,0,0.1,0,0.1
			c-2.7,1.9-6.2,2.2-9.4,2.9c-0.8,0.2-1.7,0.4-2.5,0.6c-0.2,0.1-1,0.2-1,0.5c0,0.1,0.6,0.6,0.7,0.7c1.1,1,2.3,1.9,3.6,2.8
			c2.4,1.6,5,2.9,7.6,4.3c5.1,2.6,10.3,5.2,14,9.7c0,0,0,0.1,0,0.1c-2,1.3-4.3,2.1-6.6,2.9c-0.6,0.2-1.2,0.4-1.8,0.6
			c-0.3,0.1-0.6,0.2-0.9,0.3c-0.3,0.1-0.5,0-0.3,0.3c0.1,0.1,0.2,0.2,0.3,0.3c0.1,0.1,0.2,0.1,0.3,0.2c0.4,0.2,0.8,0.4,1,0.5
			c0.6,0.3,1.3,0.6,2,0.9c5,2,10.4,2.4,15.2,4.8c0,0,0,0.1,0,0.1c-2.5,0.6-5,1.4-7.6,1.9c-0.5,0.1-1.1,0.2-1.6,0.3
			c-0.3,0-0.6,0.1-0.9,0.1c-0.3,0-0.5-0.1-0.2,0.1c0.5,0.4,1.4,0.7,2,1c0.8,0.3,1.5,0.7,2.3,1c5.3,2.1,11,3.2,15.9,6.2
			c0,0,0,0.1,0,0.1c-4.2,0.9-8.5,1-12.8,1.1c-2.1,0-4.1,0.1-6.2,0.2c-0.2,0-3,0.2-3,0.2c0,0.2,2,0.5,2.3,0.6
			c3.7,0.8,7.4,1.4,11.2,1.9c7.5,1.1,15,1.9,22.2,4.3c0.1,0,0,0.1,0,0.1c-3.7,0.4-7.5,0.6-11.3,0.7c-3.5,0.1-7,0.1-10.5,0.1
			c-0.5,0-1-0.1-1.5,0c-0.4,0.1,0.2,0.1,0.4,0.2c0.8,0.3,1.6,0.5,2.4,0.7c1.7,0.5,3.4,0.9,5,1.2c6.9,1.5,13.9,2.3,20.8,3.9
			c0,0,0,0.1,0,0.1c-2.5,0.4-5,0.6-7.5,0.7c-1.2,0-2.5,0.1-3.7,0.1c-1.2,0-2.6,0.2-3.8,0c4.7,0.7,9.5,1.4,14.2,2.2
			c0.1,0,0,0.1,0,0.1h-15.2c-0.5,0-4.2,0-6.2,0c0.6,0.1,1.1,0.2,1.7,0.3c1.2,0.3,2.4,0.7,3.6,1.1c0,0,0.1,0.1,0,0.1
			c-6.3,0.9-12.7,1.3-19,2c-3.3,0.4-6.5,0.9-9.7,1.6c-0.7,0.2-1.3,0.3-2,0.5c-0.3,0.1-0.9,0.1-1.1,0.3c-0.4,0.4-0.1,0.8,0.3,1
			c0.6,0.4,1,0.5,1,1.3c0,0,0,0,0,0c-6,2.3-11.5,5.6-16.7,9.2c10.5,5,20.7,10.9,32.3,11.5c8.9,0.4,17.6-2.5,26-5.8
			c26.7-10.5,52-24.5,75-41.6c8.5-6.3,16.8-13.2,22.6-22.1C596,812.2,597.5,809.4,597.1,806.5z"/>
	</g>
	<g>
		<path class="st2" d="M410.4,549c-0.6,0-1-0.4-1.2-1c-0.2-1.3-5.7-31.6,6.2-55.2c0.3-0.6,1-0.8,1.6-0.5c0.6,0.3,0.8,1,0.5,1.6
			c-11.6,22.9-6.1,53.4-6,53.7c0.1,0.6-0.3,1.3-0.9,1.4C410.6,549,410.5,549,410.4,549z"/>
	</g>
	<g>
		<path class="st0" d="M403.7,500c0,0-58.6,16.2-73.3,20.6c0,0-14.6,5.1-23.1,33.4c0,0-17.7,34.7-15.7,63.7l305.7,7.8
			c0,0,11.2-2.7,11.6,8.9l-12.9,159h18c0,0,22.1-6.5,41.2-6.8c0,0,18-12.9,8.9-47.7c0,0-31.3-174.6-33.7-182.1
			c0,0-4.4-26.2-38.8-36.1L535.9,504c0,0-53.9,83.2-71.9,78.7S403.7,500,403.7,500z"/>
		<path class="st2" d="M614,794.5h-18c-0.3,0-0.6-0.1-0.9-0.4s-0.3-0.6-0.3-0.9l12.9-158.9c-0.1-3-1-5.2-2.7-6.5
			c-2.9-2.2-7.4-1.2-7.4-1.2c-0.1,0-0.2,0-0.3,0l-305.7-7.8c-0.6,0-1.1-0.5-1.1-1.1c-2-28.2,14.7-62.1,15.7-64.2
			c8.6-28.4,23.2-33.8,23.9-34c14.5-4.4,72.7-20.5,73.3-20.6c0.5-0.1,1.1,0.1,1.3,0.6c0.4,0.8,42.1,77.7,59.5,82.1
			c14.1,3.5,55.8-55.2,70.7-78.2c0.3-0.4,0.8-0.6,1.3-0.5l55.7,16.6c33.7,9.7,39.3,35.2,39.6,36.9c2.5,8.4,32.4,175.1,33.7,182.2
			c9.3,35-8.6,48.3-9.3,48.8c-0.2,0.1-0.4,0.2-0.7,0.2c-18.7,0.3-40.7,6.7-40.9,6.8C614.2,794.5,614.1,794.5,614,794.5z
			 M597.2,792.1h16.6c2.1-0.6,22.9-6.4,40.9-6.8c2.1-1.8,16.4-15.1,8.1-46.2c-0.3-1.8-31.4-174.7-33.7-182.1c0-0.1,0-0.1,0-0.2
			c0-0.3-4.8-25.6-38-35.2l-54.9-16.4c-7.2,11.1-52,78.6-71,78.6c-0.6,0-1.2-0.1-1.7-0.2c-17.5-4.4-55.7-73.6-60.5-82.4
			c-7.5,2.1-58.9,16.3-72.3,20.3c-0.1,0-14.2,5.3-22.4,32.6c0,0.1,0,0.1-0.1,0.2c-0.2,0.3-17.1,33.9-15.6,62l304.5,7.8
			c1-0.2,5.7-1,9.2,1.7c2.3,1.7,3.5,4.6,3.6,8.3c0,0,0,0.1,0,0.1L597.2,792.1z M307.3,554L307.3,554L307.3,554z"/>
	</g>
	<g>
		<path class="st2" d="M451.3,622.1c-0.4-3.5-0.5-7-0.3-10.5c0.2-3.5,0.5-7,0.9-10.5c0.2-1.7,0.5-3.5,1-5.3c0.5-1.7,1.4-3.4,2.6-4.8
			c1.1-1.4,2.4-2.6,3.5-3.9c1.1-1.3,1.9-2.8,2.4-4.5c-0.2,1.8-0.9,3.4-1.8,5c-1,1.5-2.1,2.8-3.1,4.2c-2.1,2.7-2.7,6.1-3.1,9.5
			l-1.2,10.4C451.8,615.1,451.5,618.6,451.3,622.1z"/>
	</g>
	<g>
		<path class="st2" d="M460.2,587c0.3,1.8,1.7,2.9,3,3.2c1.4,0.4,2.6-0.2,3.4-1.2c0.8-1.1,1.2-2.5,0.8-3.8c-0.2-0.7-0.6-1.3-1.2-1.7
			c-0.6-0.5-1.4-0.7-2.3-0.8c0.8-0.5,1.8-0.6,2.8-0.3c1,0.3,1.9,1.1,2.4,2c0.5,0.9,0.7,2.1,0.6,3.1c-0.1,1.1-0.6,2.1-1.2,2.9
			c-0.7,0.8-1.6,1.5-2.7,1.8c-1.1,0.3-2.3,0.1-3.2-0.4c-1-0.5-1.7-1.2-2.2-2.1C459.9,588.9,459.8,587.9,460.2,587z"/>
	</g>
	<g>
		<path class="st2" d="M606.8,627c-1-3.7-0.7-7.9,1-11.6c0.8-1.8,2-3.5,3.6-4.9c1.5-1.4,3.2-2.4,4.6-3.6c1.5-1.1,2.7-2.5,3.4-4.1
			c0.7-1.6,0.8-3.6,1.5-5.5c0.4-1,0.9-2,1.8-2.6c0.8-0.7,1.7-1,2.3-1.7c0.6-0.6,1.1-1.5,1.3-2.4c0.1-0.5,0.2-0.9,0.2-1.4
			c0-0.2,0.1-0.5-0.1-0.7c-0.1-0.2-0.4-0.3-0.6-0.2c0.2-0.2,0.5-0.1,0.7,0.1c0.2,0.2,0.2,0.5,0.2,0.7c0.1,0.5,0,1,0,1.5
			c-0.1,1-0.5,2-1.1,2.8c-0.6,0.9-1.6,1.4-2.2,2c-0.6,0.6-1,1.4-1.2,2.2c-0.5,1.7-0.6,3.7-1.3,5.7c-0.8,2-2.3,3.6-3.8,4.8
			c-1.6,1.2-3.2,2.2-4.6,3.4c-1.4,1.2-2.5,2.7-3.4,4.3c-0.9,1.6-1.5,3.4-1.9,5.3C606.6,623.2,606.6,625.1,606.8,627z"/>
	</g>
	<g>
		<path class="st2" d="M605.7,621.8c0.9-5.9,1.8-11.8,2.4-17.7c0.7-5.9,1.3-11.8,1.6-17.8c0.4-5.9,0.6-11.9,0.6-17.8c0-3,0-6,0-8.9
			c0-1.5,0.1-3-0.2-4.4c-0.2-0.7-0.5-1.3-1.1-1.7c-0.5-0.4-1.3-0.7-2-0.3c0.6-0.4,1.5-0.4,2.2,0c0.7,0.4,1.2,1.1,1.5,1.8
			c0.3,0.7,0.4,1.5,0.5,2.3l0.3,2.2c0.3,3,0.6,6,0.7,9c0.2,3,0.2,6,0.2,9c0,3-0.1,6-0.3,9c-0.4,6-1.1,12-2.1,17.9
			C608.9,610.2,607.5,616.1,605.7,621.8z"/>
	</g>
	<g>
		<path class="st2" d="M602.9,725.9c2-1,4.1-1.7,6.3-2.3c2.2-0.4,4.5-0.7,6.7-0.7c4.5,0,9,0.9,13.3,2.3c4.3,1.4,8.3,3.4,12.2,5.7
			c1.9,1.1,3.8,2.4,5.5,4c1.6,1.6,3.1,3.4,3.8,5.5c-1.2-1.9-2.8-3.4-4.5-4.6c-1.8-1.3-3.7-2.3-5.6-3.2c-2-0.9-3.9-1.9-6-2.7
			c-2-0.9-4-1.7-6.1-2.3c-2-0.7-4.1-1.3-6.2-1.8c-2.1-0.5-4.2-0.8-6.4-1c-2.2-0.2-4.3-0.2-6.5,0C607.2,725,605,725.4,602.9,725.9z"
			/>
	</g>
	<g>
		<path class="st0" d="M277.2,630.6c0,1.5-5.6,87.8-5.6,87.8s-11.2,36.3,9.2,48L277.2,630.6z"/>
		<path class="st2" d="M280.7,767.6c-0.2,0-0.4-0.1-0.6-0.2c-20.6-11.8-10.6-46.4-9.8-49.2c1.9-29.7,5.6-86.2,5.6-87.6
			c0-0.6,0.5-1.2,1.2-1.2c0,0,0,0,0,0c0.6,0,1.2,0.5,1.2,1.1l3.6,135.8c0,0.4-0.2,0.8-0.6,1C281.2,767.5,280.9,767.6,280.7,767.6z
			 M276.7,657.1c-1.6,25.1-3.8,59.1-4,61.4c0,0.1,0,0.2-0.1,0.3c-0.1,0.3-10,33.2,6.8,45.5L276.7,657.1z M271.5,718.4L271.5,718.4
			L271.5,718.4z"/>
	</g>
	<g>
		<path class="st0" d="M296.1,807.3c0,0-11.9,1-12.6-11.6l-6.3-165.1c0,0-2.9-13.3,11.4-12.3l310.8,6.9c0,0,10.2,0.3,9.5,9.1
			l-14.3,165.1c0,0-20.1,5.1-25.2,9.5L296.1,807.3z"/>
	</g>
	<g>
		<path class="st6" d="M282.8,777.3c0,0-29.6-1.7-43.2-8.9c0,0-95.3-14.3-113,24.9c0,0-32.7,72.9,25.9,91.6l149.8,44.3
			c0,0,11.9,0.3,20.8-2.7l13.6-3.1c0,0,22.8-0.3,26.9-2l42.9-17.7l14-1l4.4-12.3l9.2-2.7l-3.1-25.2c0,0-10.2-8.9-27.2-4.4l-9.9-6.8
			c0,0-14.3-7.5-21.1-8.9c0,0-37.1-19.4-43.9-20.1l-32-10.6l-0.7-4.4c0,0-12.1,2-12.7-14L282.8,777.3z"/>
	</g>
	<g class="st9">
		<path class="st8" d="M422.4,881.4c3.3,2.2,6.6,4.4,9.8,6.7l1.7-0.5l-1.7-14.3c-3.4,1.2-6.8,2.4-10.3,3.3c-0.9,0.2-1.8,0.5-2.8,0.7
			c-0.4,0.1-1.1,0.1-1.4,0.3c-0.8,0.4-0.4,0.4,0.1,0.8c0.2,0.2,0.3,0.3,0.5,0.5c0.7,0.5,1.5,0.9,2.2,1.4
			C421.2,880.7,421.8,881,422.4,881.4z"/>
	</g>
	<g class="st10">
		<path class="st8" d="M194.3,775c0.5,0,1.1-0.1,1.6-0.1c0.5,0,1-0.1,1.5-0.1c0.1,0,0.3,0,0.4,0c3.8-0.1,7.6,0.1,11.4,0.8
			c0.1,0,0,0.1,0,0.1c-0.8,0.3-1.5,0.6-2.3,0.8c-1.9,0.8-4,1.3-6.1,1.6c-0.7,0.1-1.5,0.3-2.2,0.3c-0.4,0-0.9,0.1-1.4,0.1
			c1.9,0,3.9,0,5.8,0c8.9,0.1,17.8,0.6,26.5,2c0.1,0,0,0.1,0,0.1c-1.5,0.6-2.9,1.4-4.2,2.4c-0.3,0.2-0.8,0.5-1.2,0.8
			c-0.5,0.4-1.1,0.8-1.6,1.2c-0.1,0.1-0.2,0.2-0.3,0.3c-0.5,0.1-0.5,0.3-0.2,0.5c0.4,0.1,0.8,0.2,1.2,0.3c0.6,0.1,1.3,0.2,1.9,0.4
			c1.7,0.3,3.5,0.5,5.2,0.8c5.9,0.7,11.9,1.1,17.6,2.5c0,0,0,0,0,0.1c0,0.1-0.2,0.4-0.4,0.8c0,0.1,0,0.1,0,0.2
			c-0.1,0.4-0.5,0.8-0.9,1.2c-0.3,0.5-0.6,0.9-0.6,0.9c0,0.1,0.1,0.1,0.2,0.1c0.2,0.1,0.4,0.1,0.7,0.2c0.8,0.1,2,0.2,2.3,0.2
			c2.2,0.3,4.5,0.4,6.7,0.6c1.2,0.1,3,0.1,4.1,0.8c1.5,0.9,2.6,3.2,3.6,4.6c1.1,1.5,2.3,2.9,3.4,4.4c0.6,0.9,0.7,1.9,0.7,3
			c0,1.5-0.1,3,0.6,4.3c1,2,3.3,3,5.4,3.7c0.1,0,0.2,0.1,0.4,0.1c0.4,0.1,0.9,0.3,1.3,0.4c0,0,0,0.1,0,0.1c-1.5,0.8-2.4,2.1-3.7,3.2
			c-0.1,0.1-0.9,0.7-0.9,0.7c0,0.5,1.6,0.4,1.9,0.4c3,0.3,6,0.5,9,0.7c5.7,0.5,11.4,1.1,16.9,2.7c0.1,0,0.1,0,0.2,0.1
			c0.4,0.1,0.7,0.2,1.1,0.3c0,0,0.1,0.1,0,0.1c-0.3,0.1-0.6,0.1-0.8,0.2c0,0,0,0,0,0c-0.1,0.4-0.2,0.8-0.3,1.2
			c0.3,0.3,0.8,0.6,1,0.6c0.2,0.1,0.6,0.1,0.9,0.1c0.9,0.2,1.8,0.4,2.7,0.7c2.2,0.7,4.4,1.5,6.6,2.1c0,0,0,0,0,0.1
			c-0.2,0.6-0.4,1.1-0.6,1.7c-0.4,1.2-0.5,1.3,0.6,2c2.5,1.7,5.1,3.2,7.7,4.5c5.3,2.7,11,4.7,16.7,6.4c10,3.1,20.2,5.3,30.1,8.5
			c0.9,0.2,1.8,0.5,2.5,0.9c0.4,0.1,0.8,0.3,1.2,0.4c0.1,0,0,0.1,0,0.1c-1.3,0.1-2.4,0.8-3.5,1.5c-0.4,0.3-0.8,0.6-1.3,0.8
			c-0.6,0.4-0.9,0.2-0.3,0.7c0.3,0.2,0.6,0.3,1,0.3c0.3,0,0.5,0.1,0.8,0.1c0.6,0,1.3,0,1.8,0.1c1.1,0.1,2.3,0.2,3.4,0.3
			c4.5,0.3,9,0.6,13.4,1.2c0,0,0,0.1,0,0.1c-0.2,0.2-0.4,0.4-0.6,0.6c-0.1,0.3-0.5,0.5-0.9,0.7c-0.3,0.2-0.5,0.3-0.8,0.4
			c-0.1,0.1-1.1,0.3-1.1,0.3c-0.1,0.3,2,0.8,2.2,0.9c3.3,1,6.7,1.7,10,2.3c6.2,1,12.5,1.6,18.7,2.5c0.2,0,0.5,0.1,0.7,0.1
			c0.5,0.1,1,0.2,1.4,0.2c0,0,0,0.1,0,0.1c-0.5,0.4-1.1,0.6-1.6,1c0,0-0.4,0.1-0.4,0.1c0-0.1,1.8,0.4,1.8,0.4
			c2.2,0.5,4.4,0.9,6.6,1.2c4,0.6,8,1.3,11.8,2.6c0.1,0,0.2,0,0.2,0.1l-1.1-9.4c0,0-10.2-8.9-27.2-4.4l-9.9-6.8
			c0,0-14.3-7.5-21.1-8.9c0,0-37.1-19.4-43.9-20.1l-32-10.6l-0.7-4.4c0,0-12.1,2-12.7-14l-0.6-16c0,0-29.6-1.7-43.2-8.9
			c0,0-95.3-14.3-113,24.9c0,0-1.1,2.5-2.6,6.8c11.5-6.5,23.7-11.9,36.2-16.3c10.2-3.6,20.6-7.2,31.3-8.6c0.3,0,0.7-0.1,1-0.1
			C193.1,775.1,193.7,775,194.3,775z"/>
	</g>
	<g>
		<path class="st0" d="M272.4,810.8c-5.8,1.9-11.6,3.6-17.5,5.3c-5.8,1.6-11.7,3.1-17.6,4.6c-5.9,1.4-11.8,2.8-17.7,4.1
			c-5.9,1.3-11.9,2.5-17.9,3.5c5.8-1.9,11.6-3.6,17.5-5.3c5.8-1.6,11.7-3.1,17.6-4.6c5.9-1.4,11.8-2.8,17.7-4.1
			C260.4,813,266.3,811.8,272.4,810.8z"/>
	</g>
	<g>
		<path class="st0" d="M265.2,802.3c-7.2-2-14.5-3-21.9-3.4c-7.4-0.4-14.7-0.1-22.1,0.5c-7.4,0.6-14.7,1.5-22.1,2.4
			c-3.7,0.4-7.4,0.8-11.1,1.1c-1.9,0.1-3.7,0.3-5.6,0.4c-0.9,0.1-1.9,0.1-2.8-0.1c-0.5-0.1-0.9-0.3-1.3-0.6
			c-0.4-0.3-0.6-0.8-0.6-1.2c0.1,0.5,0.3,0.9,0.7,1.1c0.4,0.2,0.8,0.3,1.3,0.4c0.9,0.1,1.8,0,2.7-0.2c1.8-0.3,3.7-0.6,5.5-0.9
			l11-1.8c7.3-1.2,14.7-2.2,22.2-2.9c7.4-0.6,15-0.8,22.4,0C250.9,797.7,258.3,799.4,265.2,802.3z"/>
	</g>
	<g>
		<path class="st0" d="M248.1,792.6c-4.8-1.2-9.7-1.8-14.7-1.9c-4.9-0.1-9.8,0.1-14.8,0.4c-5,0.3-9.9,0.6-14.9,0.6
			c-5,0-10.1-0.4-14.9-1.7c5,0.3,9.9,0.2,14.9-0.1l14.9-1.1c5-0.3,10-0.4,15,0.1C238.5,789.3,243.6,790.4,248.1,792.6z"/>
	</g>
	<g>
		<path class="st0" d="M241.2,787.7c-3-0.9-5.9-1.8-8.8-2.5c-2.9-0.8-5.9-1.4-8.8-2c-3-0.6-6-1.1-9-2.1c-3-1-5.9-2.4-8.1-4.7
			c2.7,1.5,5.6,2.3,8.5,2.9c2.9,0.6,5.9,1,9,1.6c3,0.6,6.1,1.4,9,2.5C235.8,784.5,238.6,785.9,241.2,787.7z"/>
	</g>
	<g>
		<path class="st0" d="M281.1,793.6c-2.8-1.2-5.5-2.5-8.1-4c-2.6-1.4-5.2-3-7.8-4.5c-2.5-1.6-5.1-3.2-7.5-5
			c-1.2-0.9-2.4-1.8-3.6-2.6c-1.2-0.9-2.4-1.6-4-1.8c1.5-0.3,3.1,0.2,4.5,0.8c1.4,0.7,2.7,1.4,4,2.1c2.6,1.4,5.2,3,7.8,4.5
			c2.5,1.6,5.1,3.2,7.5,5C276.4,789.8,278.8,791.6,281.1,793.6z"/>
	</g>
	<g>
		<path class="st0" d="M279,788.6c-1.9-0.8-3.7-1.8-5.4-2.8c-1.8-1-3.4-2.1-5.1-3.3c-1.7-1.1-3.3-2.3-4.9-3.6
			c-1.6-1.3-3.1-2.6-4.6-4.1c2,0.7,3.8,1.6,5.6,2.5c1.8,1,3.5,2,5.2,3.2c1.7,1.2,3.3,2.4,4.8,3.7C276.1,785.7,277.6,787.1,279,788.6
			z"/>
	</g>
	<g>
		<path class="st0" d="M278.3,782.1c-1-0.3-1.9-0.8-2.8-1.2c-0.9-0.4-1.7-0.8-2.5-1.3c-0.8-0.4-1.6-0.9-2.4-1.4
			c-0.8-0.5-1.6-1-2.5-1.7c1.1-0.3,2.1-0.2,3.1-0.1c1,0.2,2,0.5,2.9,1c0.9,0.5,1.7,1.1,2.5,1.9C277.3,780.2,278,781.1,278.3,782.1z"
			/>
	</g>
	<g>
		<path class="st0" d="M400.3,887.6c-12.3-0.6-24.6-2.3-36.7-4.5c-12.1-2.2-24.2-4.8-36.2-7.3c-12-2.5-24.1-4.8-36.3-6.7
			c-12.1-1.9-24.3-3.6-36.6-5.1c12.3,0.6,24.6,1.6,36.8,3.3c6.1,0.8,12.2,1.7,18.3,2.8c6.1,1.1,12.1,2.2,18.2,3.5l36.1,7.8
			C376,883.8,388.1,886.1,400.3,887.6z"/>
	</g>
	<g>
		<path class="st0" d="M396.2,856.9c-8.4-1.9-16.9-2.7-25.5-2.9c-8.5-0.2-17.1,0-25.7,0.2c-8.6,0.2-17.2,0.3-25.8-0.5
			c-8.6-0.7-17.2-2.3-25.2-5.5c8.3,2.2,16.8,3.2,25.4,3.6c8.5,0.4,17.1,0.2,25.7,0c8.6-0.2,17.2-0.3,25.8,0.3
			C379.4,852.8,388,854.1,396.2,856.9z"/>
	</g>
	<g>
		<path class="st0" d="M339,920.5c-8.3-0.9-16.6-2-24.9-3.4c-8.3-1.3-16.5-2.9-24.7-4.6c-8.2-1.7-16.3-3.6-24.4-5.6
			c-8.1-2-16.2-4.3-24.1-6.8c8.2,1.6,16.4,3.3,24.6,5.1l24.5,5.1l24.5,5.1C322.6,917,330.8,918.7,339,920.5z"/>
	</g>
	<g>
		<path class="st2" d="M349.5,953.7v-30.7l-12.9,0.4l-31.7,5.8l-110.2-31.8c0,0-15.5,7.9-37.2,7.9c-1.7,0-44.4,3.7-40.1,35.1
			c0,0-0.2,2.4-0.3,7.8c0,0-4.2,17,10.1,18c0,0,2,2,47-7.8c0,0,55.5-4.1,81.7-1.7l42.6-0.7L349.5,953.7z"/>
	</g>
	<g>
		<path class="st2" d="M339,954.8c-0.4,0-0.7-0.2-0.9-0.4c-1.8-2.2-1.8-20.9-1.1-27.5c0.4-3.5,0.8-4.2,1.3-4.5
			c0.5-0.4,1.2-0.3,1.7,0.2c0.4,0.5,0.3,1.1-0.1,1.6c-1.3,2.5-1.2,26.5,0.1,28.8c0.4,0.5,0.3,1.2-0.2,1.6
			C339.5,954.8,339.3,954.8,339,954.8z"/>
	</g>
	<g>
		<path class="st0" d="M154.4,961.8c0.4-4.6,0.9-9.2-0.3-13.4c-0.6-2.1-1.6-4.1-2.5-6.3c-0.9-2.2-1.5-4.7-1.5-7.1
			c0-4.9,1.7-9.3,2.6-13.7c0.5-2.2,0.6-4.4,0.7-6.7c0.1-1.2,0.2-2.4,0.6-3.5c0.2-0.6,0.5-1.1,0.9-1.6c0.4-0.5,0.9-0.8,1.4-1.1
			c-0.9,0.7-1.4,1.7-1.6,2.8c-0.2,1.1-0.2,2.2-0.1,3.3c0.1,1.1,0.2,2.3,0.2,3.5c0,1.2-0.1,2.4-0.2,3.5c-0.3,2.3-0.8,4.6-1.2,6.8
			c-0.4,2.2-0.8,4.4-0.8,6.6c-0.1,2.2,0.4,4.2,1.2,6.3c0.7,2.1,1.7,4.2,2.2,6.6c0.5,2.4,0.5,4.8,0.2,7.1
			C155.6,957.3,155,959.6,154.4,961.8z"/>
	</g>
	<g>
		<path class="st2" d="M128.2,964.4c-0.5,0-0.9-0.3-1.1-0.8c-1.8-4.8-3.2-9.2-2.5-13.8c0.1-1,0.4-2,0.6-2.9c0.3-1.1,0.5-2.1,0.6-3.1
			c0.2-2.1-0.1-4.2-0.5-6.4c-0.2-1.3-0.5-2.6-0.6-4c-0.9-11.2,7.8-22.1,18.9-23.7c0.6-0.1,1.2,0.3,1.3,1c0.1,0.6-0.3,1.2-1,1.3
			c-9.8,1.5-17.7,11.4-16.9,21.2c0.1,1.2,0.3,2.5,0.5,3.8c0.4,2.3,0.8,4.7,0.5,7.1c-0.1,1.2-0.4,2.3-0.7,3.4
			c-0.2,0.9-0.5,1.8-0.6,2.7c-0.6,4.1,0.7,8.1,2.4,12.6c0.2,0.6-0.1,1.3-0.7,1.5C128.5,964.4,128.4,964.4,128.2,964.4z"/>
	</g>
	<g>
		<path class="st6" d="M295,954.2c4.2-1.5,8.5-2.6,12.9-3.4l0,0.2c-3.3,0-6.5-0.6-9.6-1.7l-0.5-0.2l0.6-0.1l9.7-1.2l0,0.3
			c-4-0.4-7.9-1.1-11.7-2.1l-1.7-0.4l1.7,0.1c3.7,0.1,7.4,0,11-0.3l0,0.4c-3.3-0.1-6.6-1-9.5-2.7l-0.8-0.5l0.9,0
			c2.9,0,5.9-0.4,8.7-1.2l0.1,0.5c-3.8-0.2-7.5-0.8-11.1-1.8l-1.6-0.4l1.7,0c2.2,0,4.3-0.2,6.4-0.7l0,0.4l-8.1-1.5l-1.2-0.2l1.2-0.1
			l9.2-1l0,0.3c-2.4,0.2-4.9-0.2-7-1.3l-0.3-0.2l0.4-0.1c1.7-0.4,3.4-0.5,5.1-0.4l-0.1,0.2c-2.1-1.4-4.3-2.7-6.6-3.8l-0.5-0.2
			l0.5,0.1c2.1,0.4,4.3,0.6,6.4,0.4l0,0c-1.1,0.2-2.2-0.1-3.1-0.7c0.9,0.6,2,0.8,3.1,0.6l0,0c-2.1,0.2-4.3,0-6.4-0.4l0-0.1
			c2.3,1.1,4.6,2.3,6.7,3.7l0.4,0.2l-0.4,0c-1.7-0.1-3.4,0.1-5.1,0.5l0-0.3c2.1,1.1,4.5,1.5,6.9,1.3l0,0.3l-9.2,1l0-0.3l8.1,1.4
			l0.9,0.2l-0.9,0.2c-2.1,0.5-4.3,0.8-6.5,0.8l0.1-0.4c3.6,0.9,7.3,1.5,11,1.7l1.4,0.1l-1.3,0.4c-2.9,0.8-5.9,1.3-8.9,1.2l0.1-0.4
			c2.8,1.6,6,2.5,9.3,2.7l0,0.4c-3.7,0.3-7.4,0.4-11.1,0.3l0.1-0.4c3.8,1,7.7,1.7,11.7,2.2l1.4,0.2l-1.4,0.2l-9.7,1.2l0-0.3
			c3,1.1,6.3,1.7,9.5,1.8l0,0.2C303.5,951.7,299.2,952.8,295,954.2z"/>
	</g>
	<g>
		<path class="st0" d="M433.9,887.6c0,0,11.9-5.8,15.3-3.4l7.1-2v-3.4l-22.5-6.1V887.6z"/>
		<path class="st2" d="M433.9,888.8c-0.2,0-0.4-0.1-0.6-0.2c-0.3-0.2-0.6-0.6-0.6-1v-15c0-0.4,0.2-0.7,0.5-0.9
			c0.3-0.2,0.7-0.3,1-0.2l22.5,6.1c0.5,0.1,0.9,0.6,0.9,1.1v3.4c0,0.5-0.3,1-0.9,1.1l-7.1,2c-0.3,0.1-0.7,0-1-0.2
			c-2-1.4-9.4,1.2-14.1,3.5C434.3,888.7,434.1,888.8,433.9,888.8z M435.1,874.2v11.6c3.6-1.6,10.9-4.4,14.3-2.8l5.8-1.7v-1.6
			L435.1,874.2z"/>
	</g>
	<g>
		<path class="st0" d="M405.8,906.8l14.4-4.6l-0.3,0.3c1.3-4.1,2.8-8.2,4.1-12.4c0.1-0.2,0.3-0.4,0.5-0.5l0,0l9.1-2.9l-0.7,0.9
			c0-4.2-0.1-8.5-0.5-12.6c-0.2-2.1-0.5-4.2-0.9-6.2c-0.4-2-0.9-4.1-1.8-5.8l0.3,0.4c-1.7-1.3-3.8-2.4-5.9-3.3
			c-2.1-0.9-4.3-1.5-6.6-1.9c-2.3-0.4-4.6-0.5-6.9-0.3c-1.2,0-2.3,0.3-3.4,0.4c-1.1,0.2-2.2,0.5-3.4,0.8l0.8-1.1c0.1,4,0.3,8,0.4,12
			l0.3,12.1L405.8,906.8z M405.8,906.8l-1.7-24l-0.8-12.3c-0.3-4.1-0.5-8.3-0.7-12.4l0,0c0-0.5,0.3-0.9,0.8-1.1
			c2.4-0.6,4.8-1.2,7.2-1.4c2.5-0.2,4.9-0.1,7.4,0.3c2.4,0.4,4.8,1,7.1,2c2.3,1,4.4,2.1,6.5,3.7c0.1,0.1,0.2,0.2,0.3,0.4l0,0
			c1,2.1,1.5,4.2,1.9,6.4c0.4,2.1,0.7,4.3,0.8,6.5c0.2,2.2,0.3,4.3,0.3,6.4c0,2.2,0,4.3-0.1,6.5l0,0c0,0.4-0.3,0.7-0.7,0.9l-9.2,2.6
			l0.5-0.5c-1.6,4-3.1,8.1-4.7,12.2l0,0c-0.1,0.1-0.2,0.2-0.3,0.3L405.8,906.8z"/>
	</g>
	<g>
		<g>
			<path class="st0" d="M419,899.4c-1.7,0.2-3.4,0.2-5.1,0.2c-1.7,0-3.4,0-5.1-0.1c1.6-0.6,3.4-0.8,5.1-0.9
				C415.6,898.6,417.3,898.8,419,899.4z"/>
		</g>
		<g>
			<path class="st0" d="M419.3,895.4c-1.9,0.4-3.7,0.5-5.6,0.5c-1.9,0-3.7-0.1-5.6-0.5c1.9-0.4,3.7-0.5,5.6-0.5
				C415.5,895,417.4,895,419.3,895.4z"/>
		</g>
		<g>
			<path class="st0" d="M421.3,890.3c-2,0.4-4,0.6-5.9,0.7c-2,0-4,0-6-0.3c2-0.4,4-0.6,5.9-0.7C417.4,889.9,419.3,890,421.3,890.3z"
				/>
		</g>
		<g>
			<path class="st0" d="M424.3,885.7c-2.8,1.1-5.8,1.5-8.8,1.6c-3,0-6-0.3-8.9-1.3c3,0.2,5.9,0.3,8.8,0.3
				C418.5,886.2,421.4,886,424.3,885.7z"/>
		</g>
		<g>
			<path class="st0" d="M423,881.4c-2.5,0.5-5,0.7-7.5,0.9c-2.5,0.2-5,0.2-7.6,0.2l0,0c-0.1,0-0.3-0.1-0.3-0.3
				c0-0.1,0.1-0.2,0.1-0.2c0.4-0.2,0.9-0.3,1.3-0.3c0.4,0,0.9,0,1.3,0.2c-0.4,0-0.9,0-1.3,0.1c-0.4,0.1-0.8,0.3-1.1,0.5l-0.1-0.5
				c2.5-0.3,5-0.5,7.5-0.6C418,881.2,420.5,881.2,423,881.4z"/>
		</g>
		<g>
			<path class="st0" d="M423,877.7c-2.4,0.2-4.7,0.2-7,0.2c-2.3-0.1-4.6-0.1-7-0.4c2.3-0.5,4.7-0.6,7-0.6
				C418.4,876.9,420.7,877.1,423,877.7z"/>
		</g>
		<g>
			<path class="st0" d="M421.7,874.3c-2.3,0.4-4.6,0.5-6.9,0.5c-1.2,0-2.3,0-3.5,0c-1.2,0-2.3-0.1-3.5-0.3l0,0
				c-0.1,0-0.2-0.1-0.1-0.2c0-0.1,0.1-0.1,0.1-0.1c0.4-0.1,0.9-0.1,1.3-0.2c-0.4,0.2-0.8,0.4-1.2,0.5l0-0.3c1.2-0.1,2.3-0.2,3.5-0.3
				c1.2-0.1,2.3-0.1,3.5-0.1C417.1,873.9,419.4,874,421.7,874.3z"/>
		</g>
		<g>
			<path class="st0" d="M421.3,870.5c-2.4,0.2-4.8,0.3-7.2,0.3c-2.4,0-4.8-0.1-7.2-0.3l0-0.3c0.3,0,0.7,0.1,1,0.1
				c-0.3,0.1-0.7,0.1-1,0.2c-0.1,0-0.1,0-0.2-0.1c0-0.1,0-0.1,0.1-0.2l0,0c2.4-0.4,4.8-0.4,7.2-0.4C416.6,869.8,419,870,421.3,870.5
				z"/>
		</g>
		<g>
			<path class="st0" d="M421.3,867.6c-1.8,0.2-3.5,0.1-5.3,0.1c-1.8,0-3.5-0.1-5.3-0.2l0-0.6c0.7,0.1,1.4,0.2,2.1,0.3
				c-0.7,0.1-1.4,0.2-2.1,0.3c-0.2,0-0.3-0.1-0.3-0.3c0-0.2,0.1-0.3,0.3-0.3l0.1,0c1.8-0.2,3.5-0.3,5.3-0.2
				C417.8,866.8,419.6,867.1,421.3,867.6z"/>
		</g>
		<g>
			<path class="st0" d="M409.1,862.8c-0.1,0-0.2-0.2-0.1-0.3c0-0.1,0.1-0.2,0.2-0.3c0.2-0.2,0.4-0.3,0.7-0.3c0.5,0,0.9-0.1,1.3-0.1
				c0.8,0,1.7,0,2.5,0.1c1.7,0.2,3.4,0.4,5,1.1c-1.7,0.2-3.4,0.1-5-0.1c-0.8-0.1-1.7-0.2-2.5-0.3c-0.4-0.1-0.8-0.1-1.2-0.2
				c-0.2,0-0.4,0-0.5,0.1C409.2,862.5,409,862.6,409.1,862.8z"/>
		</g>
	</g>
	<g>
		<path class="st0" d="M406,824.9c-3.8-0.6-7.5-1.4-11.2-2.1c-3.7-0.8-7.4-1.7-11.1-2.9c-3.6-1.3-7.1-2.8-10.5-4.6
			c-1.7-0.9-3.3-1.9-4.9-2.9c-1.6-1.1-3.1-2.2-4.6-3.4c1.6,1,3.2,2,4.9,3c1.6,1,3.3,1.9,5,2.7c3.4,1.7,6.9,3.2,10.5,4.3
			c3.6,1.3,7.2,2.2,10.9,3.1l5.5,1.4C402.3,823.9,404.1,824.4,406,824.9z"/>
	</g>
	<g>
		<path class="st0" d="M391,841.5c-5-2.3-9.9-4.8-14.8-7.3c-4.9-2.5-9.7-5.2-14.6-7.8c-4.8-2.7-9.7-5.3-14.5-7.9
			c-2.4-1.3-4.8-2.6-7.3-3.9l-7.3-3.8c2.5,1.1,5,2.2,7.5,3.4c2.5,1.2,5,2.4,7.4,3.6c4.9,2.5,9.8,5.1,14.6,7.7L391,841.5z"/>
	</g>
	<g>
		<path class="st0" d="M446.2,818.5c3.3-0.6,6.5-1.1,9.8-1.6c3.3-0.5,6.5-0.9,9.8-1.4c3.3-0.4,6.6-0.8,9.8-1.1l4.9-0.5
			c1.6-0.1,3.3-0.3,4.9-0.4c-1.6,0.3-3.3,0.6-4.9,0.9l-4.9,0.8c-3.3,0.5-6.5,0.9-9.8,1.4c-3.3,0.4-6.6,0.8-9.8,1.1
			C452.8,817.9,449.5,818.3,446.2,818.5z"/>
	</g>
	<g>
		<path class="st0" d="M441.4,832.4c7.2-1.5,14.5-2.9,21.7-4.3l21.7-4.2l21.7-4.2l21.8-4.1l0,0.2l-3.6-1.5l3.7,1.3
			c0,0,0.1,0.1,0.1,0.1c0,0,0,0.1-0.1,0.1c-7.2,1.7-14.4,3.2-21.6,4.7c-7.2,1.5-14.5,2.9-21.7,4.3c-7.3,1.3-14.5,2.7-21.8,4
			C456,830.1,448.7,831.3,441.4,832.4z"/>
	</g>
	<g>
		<path class="st0" d="M454.3,848.1c6.1-1.4,12.2-2.9,18.2-4.7c6-1.7,12-3.6,17.8-5.8c5.9-2.1,11.7-4.4,17.4-6.9l4.3-1.9l4.3-2
			l4.2-2l4.2-2.1l-4.1,2.3l-4.1,2.2l-4.2,2.1l-4.2,2c-5.7,2.6-11.5,5-17.4,7.2c-5.9,2.1-11.9,4-18,5.6
			C466.6,845.7,460.4,847.1,454.3,848.1z"/>
	</g>
	<g>
		<path class="st6" d="M431.2,953.7c0,0-11.6-30-10.9-51.1l4.4-12.3c0,0,19.4-8.2,24.5-6.1l7.1-2v-3.4c0,0,12.9-20,41.9-30.5
			c0,0,23.3-10.5,30.2-15.9c0,0,7.3-5.4,15.8-4l15-12.4c0,0,14-13.1,35.4-16.5l1.4-6.1l19.6-0.4c0,0,37.6-15.6,64.2,0.4
			c0,0,44.3,15,38.1,68.8c0,0-19.4,43.6-43.6,50.7l-49.4,12.3l-50.4,20.1l-114,7.1L431.2,953.7z"/>
	</g>
	<g class="st9">
		<path class="st8" d="M469.8,944.6c-0.3,0.1-1.4,0.2-1.6,0.4c0-0.1,1.5-0.1,1.8-0.2c1.4-0.2,2.8-0.7,4-1.3c0.1,0,0.1-0.1,0.2-0.1
			c-0.2,0-0.4,0.1-0.6,0.1C472.4,944,471.1,944.3,469.8,944.6z"/>
	</g>
	<g class="st9">
		<path class="st8" d="M683.9,795.1c2.4,4.7,5,9.3,7.5,13.8c3.4,6.2,7.3,12.3,10.1,18.7c0,0,0,0.1,0,0.1
			c-6.5,4.5-13.2,8.7-19.2,13.8c-3,2.5-5.7,5.3-8,8.5c-0.3,0.4-1.4,1.6-1.1,2.1c0,0.1,0.2,0.1,0.5,0.2c0.1,0,0.3,0.1,0.4,0.1
			c0.3,0.1,0.7,0.1,0.8,0.1c2,0.7,3.9,1.5,6.1,1.6c0,0,0.1,0.1,0,0.1c-3.7,2-7.5,3.6-11.4,5.1c-7.9,3.2-15.9,6-23.3,10.1
			c-3.2,1.8-6.4,3.8-8.9,6.4c-0.6,0.6-1.3,1.3-1.8,2.1c-0.2,0.4-0.5,0.4-0.1,0.7c0.3,0.2,1.4,0.1,1.7,0.1c2.7,0.3,5.3,0.5,8-0.1
			c0.1,0,0.1,0.1,0,0.1c-5.5,2.4-11.1,4.4-16.8,6.1c-10.3,3.1-20.9,5.4-31.2,8.6c-2.6,0.8-5.1,1.6-7.6,2.5c-1.4,0.5-2.7,1-4,1.6
			c-0.8,0.3-1.5,0.6-2.3,1c-0.4,0.2-1.2,0.3-0.8,0.5c0.4,0.2,1.4,0.1,1.9,0.1c0.5,0,1,0.1,1.5,0.1c1.1,0.1,2.3,0.2,3.4,0.3
			c1.9,0.2,3.8,0.4,5.7,0.5c0,0,0.1,0.1,0,0.1c-10.4,5.4-21,10.4-31.9,14.9c-19.4,8-39.3,14.5-59.4,20.3c-9.7,2.8-19.5,5.4-29.3,8
			c-2.2,1.1-4.5,1.8-7,1.8c-0.1,0-0.1-0.1,0-0.1c2.4-0.6,4.8-1.2,7.2-1.8c0.3-0.2,0.6-0.3,0.9-0.5c0.6-0.5,0.8-0.5,0-0.8
			c-0.2-0.1-0.5-0.1-0.7-0.2c-1.4-0.2-2.8-0.3-4.2-0.4c-1,0-2,0.1-2.9,0.1c-2.9,0.2-5.7,0.7-8.4,1.6c-0.1,0-0.1-0.1,0-0.1
			c1.9-0.6,3.7-1.2,5.6-1.9c0.4-0.1,2.2-0.9,2.1-1c-0.1-0.1-0.2-0.1-0.4-0.1h-0.5c-0.5,0-1.1,0.1-1.4,0.1h-10.5c0,0-0.1-0.1,0-0.1
			c0.7-0.6,1.6-0.8,2.5-1.2c0.7-0.3,1.6-0.7,0.3-0.6c-0.8,0.1-1.6,0.2-2.3,0.2c-3.9,0.2-7.8-0.1-11.6,0.6c-0.1,0-0.1-0.1,0-0.1
			c0.5-0.2,4.5-1.9,4.6-1.8c0-0.1-0.4-0.1-0.8,0c-0.8,0.1-1.6,0.2-2.4,0.2c-0.7,0.1-1.3,0.1-1.4,0.1c-3.8-0.1-7.5-0.7-11.2-1.4
			c-0.1,0,0-0.1,0-0.1c2.6-1,4.7-2.9,7-4.4c0.5-0.3,1.2-0.5,0.8-1.2c-0.2-0.4-1.1-0.8-1.5-1c-0.8-0.4-1.6-0.8-2.3-1.4
			c0,0,0-0.1,0-0.1c0.8-0.8,1.6-1.5,2.4-2.2c0.4-0.4,0.8-0.8,1.1-1.2c0.4-0.6,0.5-1.6-0.2-2.1c-0.5-0.3-1.7,0.3-2.1-0.2
			c-0.3-0.3-0.1-0.3,0.1-0.7c0.4-0.8,0.9-1.4,1.1-2.2c0.2-0.6,0.4-1.3,0.5-2c0.3-1.5,0.5-3,0.9-4.5c0.2-0.7,0.3-0.9-0.3-1.2
			c-0.5-0.2-1.2-0.2-1.8-0.4c-1.1-0.3-2.2-0.8-3.2-1.3c-0.1,0-0.2-0.1-0.4-0.1c-0.7-0.3-1.4-0.6-2.2-0.8c-0.6-0.2-1.3-0.3-1.9-0.4
			c0,0-0.1-0.1,0-0.1c2.9-2.4,4.9-5.3,6.5-8.7c0.3-0.6,0.6-1.3,0.9-1.9c0.4-1,0.9-1.4-0.1-2.1c-0.2-0.2-0.5-0.3-0.8-0.5
			c-0.4-0.2-0.7-0.4-1.1-0.6c-0.8-0.4-1.6-0.7-2.4-1c-2.7-1.2-5.4-2.2-8.1-3l-4.3,12c-0.7,21,10.9,51.1,10.9,51.1l29.3-1.4l114-7.1
			l50.4-20.1l49.4-12.3c24.2-7.1,43.6-50.7,43.6-50.7C722.8,818.6,694.8,800.5,683.9,795.1z"/>
	</g>
	<g>
		<path class="st0" d="M449.2,884.2c-0.6,1.4-1.4,2.8-1.9,4.2c-0.6,1.4-1.1,2.9-1.4,4.3c-0.8,2.9-1.2,6-1.4,9
			c-0.3,6.1,0.2,12.2,1.2,18.2l0.4,2.3l0.5,2.3l1,4.5c0.6,3,1.5,5.9,2.5,8.8c1.1,2.8,2.3,5.6,4,8.2c1.6,2.5,3.7,4.9,6.5,6.3
			c-3-1-5.4-3.2-7.4-5.7c-2-2.5-3.5-5.3-4.7-8.2c-1.3-2.9-2.2-5.9-3-8.9l-1-4.6l-0.5-2.3l-0.4-2.3c-1-6.2-1.5-12.5-0.7-18.8
			c0.4-3.1,1.1-6.2,2.1-9.2c0.6-1.5,1.2-2.9,2-4.3c0.4-0.7,0.8-1.3,1.2-2C448.4,885.5,448.9,884.9,449.2,884.2z"/>
	</g>
	<g>
		<g>
			<path class="st0" d="M427.8,896.9c1.9-1.1,3.9-1.9,5.9-2.7c2-0.8,4.1-1.5,6.2-2c-1.8,1.2-3.8,2.1-5.9,2.9
				C432.1,895.9,430,896.6,427.8,896.9z"/>
		</g>
		<g>
			<path class="st0" d="M426.9,903.8c1.5-1.3,3.3-2.2,5.2-2.8c1.9-0.5,3.9-0.8,5.9-0.4c-1.9,0.5-3.8,0.8-5.6,1.4
				C430.5,902.5,428.8,903.1,426.9,903.8z"/>
		</g>
		<g>
			<path class="st0" d="M425.1,912.2c2.2-1.9,4.7-3.3,7.3-4.5c2.6-1.2,5.4-2.1,8.3-2.4c-2.6,1.1-5.3,2.2-7.9,3.4
				C430.3,909.7,427.7,911,425.1,912.2z"/>
		</g>
		<g>
			<path class="st0" d="M428.8,915.6c1.6-1.5,3.5-2.6,5.5-3.4c2-0.8,4.1-1.4,6.3-1.6c-2,0.9-4,1.6-5.9,2.5
				C432.8,913.9,430.9,914.8,428.8,915.6z"/>
		</g>
		<g>
			<path class="st0" d="M431.2,919.3c1.4-1.1,3-1.9,4.7-2.5c1.7-0.6,3.4-1,5.2-1c-1.6,0.8-3.2,1.3-4.9,1.9
				C434.6,918.3,432.9,918.9,431.2,919.3z"/>
		</g>
		<g>
			<path class="st0" d="M431.2,925.1c1.3-1.4,3-2.4,4.8-3.2c1.8-0.7,3.7-1.1,5.7-1c-1.8,0.7-3.6,1.3-5.3,2
				C434.7,923.5,433,924.3,431.2,925.1z"/>
		</g>
		<g>
			<path class="st0" d="M430.3,929.3c1.5-1.4,3.4-2.4,5.4-3c2-0.7,4-1,6.1-0.9c-2,0.6-3.9,1.2-5.8,1.8
				C434,927.8,432.2,928.5,430.3,929.3z"/>
		</g>
		<g>
			<path class="st0" d="M431.9,934c1.2-1.4,2.7-2.4,4.4-3.1c1.7-0.7,3.6-1,5.4-0.8c-1.7,0.6-3.4,1.1-5,1.7
				C435.1,932.4,433.6,933.2,431.9,934z"/>
		</g>
		<g>
			<path class="st0" d="M434,938.5c1.4-1.5,3.2-2.5,5.1-3.1c1.9-0.6,4-0.8,6-0.3c-2,0.3-3.9,0.7-5.7,1.3
				C437.6,936.9,435.9,937.6,434,938.5z"/>
		</g>
		<g>
			<path class="st0" d="M434.9,945.4c0.9-1.5,2.4-2.7,4-3.4c1.6-0.7,3.5-1,5.2-0.6c-1.7,0.4-3.3,0.8-4.8,1.5
				C437.8,943.6,436.3,944.4,434.9,945.4z"/>
		</g>
		<g>
			<path class="st0" d="M439.7,948.5c0.6-1,1.6-1.7,2.7-2.1c1.1-0.4,2.3-0.4,3.4,0.1c-1.1,0.3-2.1,0.6-3.1,0.9
				C441.7,947.7,440.8,948.1,439.7,948.5z"/>
		</g>
	</g>
	<g>
		<path class="st0" d="M676.9,910.6c1.4-1.9,2.3-3.9,3-6.1c0.8-2.1,1.4-4.4,2.5-6.5c0.5-1.1,1.2-2.1,2-3.1c0.7-0.9,1.4-1.8,2.1-2.7
			c0.6-0.9,1.1-1.8,1.4-2.9c0.3-1,0.4-2.1,0.1-3.3c0.8,0.9,1.1,2.2,1.1,3.5c-0.1,1.3-0.4,2.5-1,3.6c-0.5,1.1-1.2,2.1-1.8,3.1
			c-0.6,1-1.2,1.8-1.7,2.8c-1,2-1.8,4.1-3,6.2C680.5,907.4,679,909.5,676.9,910.6z"/>
	</g>
	<g>
		<path class="st0" d="M460.8,881.7c3.3-1.5,6.9-2,10.5-2.2c3.6-0.2,7.2,0.1,10.7,0.3c3.5,0.2,7.1,0.5,10.6,0.6
			c3.5,0.2,7.1,0.3,10.6,0.4c7.1,0.1,14.1,0,21.2-0.7c3.5-0.3,7-0.7,10.5-1.3c3.5-0.5,7-1.3,10.5-2c-6.7,2.4-13.7,4.2-20.8,5.1
			c-3.5,0.5-7.1,0.8-10.7,1c-3.6,0.2-7.1,0.2-10.7,0.2c-7.1-0.1-14.3-0.7-21.3-1.5c-3.5-0.4-7-0.9-10.5-1
			C467.7,880.5,464.2,880.7,460.8,881.7z"/>
	</g>
	<g>
		<path class="st0" d="M543.6,829c0.8-0.3,1.7-0.6,2.7-0.6c0.9-0.1,1.9,0,2.8,0.2c1.8,0.4,3.5,1.1,5.2,1.8c1.7,0.8,3.2,1.7,4.9,2.4
			c1.6,0.8,3.3,1.5,4.9,2.1c6.7,2.6,13.6,4.5,20.6,6.4c3.5,0.9,7,1.8,10.5,2.4c3.5,0.6,7.1,1.1,10.6,1.2c7.1,0.2,14.3-0.8,20.8-4
			l0,0.4l-3.1-1l3.2,0.6c0.1,0,0.2,0.1,0.2,0.2c0,0.1,0,0.1-0.1,0.1l0,0c-3.1,1.9-6.5,3.3-10.1,4.2c-3.6,0.9-7.3,1.3-10.9,1.4
			c-7.4,0.1-14.7-1.4-21.7-3.3c-7-1.9-14-4-20.7-7c-1.7-0.8-3.3-1.6-4.9-2.5c-1.6-0.9-3.1-1.9-4.7-2.8c-1.5-0.9-3.1-1.7-4.8-2.2
			C547.2,828.7,545.4,828.5,543.6,829z"/>
	</g>
	<g>
		<path class="st0" d="M564.4,821.4c7.5-3.8,15.8-6.2,24.3-6.8c2.1-0.2,4.2-0.3,6.4-0.2c2.1,0,4.3,0.2,6.4,0.4
			c4.2,0.5,8.4,1.3,12.5,2.3c4.1,1,8.2,2.1,12.2,3.2c4,1.1,8.1,2.2,12.1,3.1c4.1,0.9,8.2,1.6,12.3,1.9c2.1,0.2,4.2,0.3,6.2,0.2
			c2.1-0.1,4.2-0.2,6.3-0.5c-4.1,1.1-8.3,1.4-12.6,1.4c-4.2-0.1-8.5-0.6-12.6-1.3c-8.3-1.5-16.4-4-24.5-5.9
			c-8.1-2-16.3-3.3-24.6-2.9C580.6,816.8,572.3,818.4,564.4,821.4z"/>
	</g>
	<g>
		<path class="st0" d="M586.4,804.9c5.1-0.5,10.1-0.9,15.1-1.2c5-0.3,10.1-0.6,15.1-0.8c5-0.2,10.1-0.4,15.1-0.5
			c5.1-0.1,10.1-0.2,15.2-0.1c-5,0.9-10,1.5-15.1,2c-5,0.5-10.1,0.8-15.2,1.1c-5.1,0.2-10.1,0.3-15.2,0.3
			C596.6,805.5,591.5,805.3,586.4,804.9z"/>
	</g>
	<g>
		<path class="st0" d="M614,797.3c2.7-0.4,5.3-0.7,8-0.8c2.7-0.1,5.3-0.2,8-0.1c2.7,0,5.3,0.2,7.9,0.4c1.3,0.1,2.6,0.2,4,0.4l2,0.3
			c0.3,0,0.7,0.1,0.9,0.1c0.1,0,0.2-0.1,0.2-0.2c0-0.1-0.3-0.2-0.3,0c-0.1-0.1,0-0.2,0.1-0.2c0.1,0,0.2,0,0.3,0.1
			c0.2,0.2,0,0.5-0.2,0.6c-0.4,0.2-0.7,0.2-1.1,0.2l-2,0.2c-1.3,0.1-2.7,0.2-4,0.3c-2.7,0.1-5.3,0.2-8,0.1c-2.7,0-5.3-0.2-7.9-0.4
			C619.3,798.1,616.7,797.8,614,797.3z"/>
	</g>
	<g>
		<path class="st11" d="M542.9,949.6c-2.3,0-4.5-0.4-6.8-0.3c7.6,0,14.9,1.1,22.5,1.4c-3.4-0.1-6.9-0.2-10.2,0
			c3.8,1.8,9.1,2.1,13.2,2c-0.3,0-0.6,0-0.9,0c3.8,0.5,7.2,2.6,10.9,3.5c-0.5-0.1-1.1-0.2-1.4-0.3c2.8-0.3,5.6,0,8.4,0.6
			c-1.4,0-2.8,0-4.2-0.1c9.3,3.3,20.3,2,28.8,7.3c3,1.8,7.4,7.1,9.6,10.1c-0.2-1.7-0.4-3.3-0.7-4.9c0,0.5,0,1.1,0,1.6
			c-0.1-1.7,0.2-3.4,0.7-5.1c-0.2,1.1-0.5,2.3-1,3.3c1.6-0.5,2.5-2.4,2.6-4.1c-1,0.6-1.2,0.9-1.7,1.7c1.9,0.2,3.6-0.2,4.5-1.9
			c-1.1-0.7-2.4-0.6-3.5,0.2c3.3,0.3,6.7-0.8,9.9-1.3c-1.4,0-2.8,0.4-3.7,1.3c4.6,0.3,12.4-2.6,16.6-4.3c-0.3,0-0.6,0-0.9,0
			c2.5-0.5,5.4-1.4,7.2-3.1c-2,0.2-3.8,0.8-5.6,1.8c2.8,1.9,10.5-3.7,12.7-5.5c-1.5,0-3,0.4-4.2,1.4c5.8-0.5,12.6-4.5,17.1-8.2
			c-1.2,0.2-2.3,0.7-3.2,1.4c1-0.2,1.4-0.6,2.2-1.1c-1-0.1-1.8-0.4-2.8-0.3c1.3-0.2,2.6-0.6,3.6-1.3c-0.6,0-1.4-0.1-2-0.1
			c8.1-2.2,16.9-2.6,24.4-6.8c-5-0.2-10.7,1.6-15.4,3.5c1.5,0.1,3-0.4,4.1-1.4c-4.1,0.4-8.3,1.4-12.4,2.2c0.8,0.1,1.3,0,2.1-0.1
			c-2.6-0.9-6.1-0.4-8.8,0.3c1.5,0.1,1.4-0.4,2.3-0.8c-1.5-0.3-3.1-0.2-4.6,0.2c1.1,0.1,2-0.3,3-0.6c-2.7-1.7-8.3-0.8-11.6-1.1
			c0.3-0.2,0.8-0.5,1-0.6c-2.3,0-4.6,0.3-6.8,0.3c1.3-0.1,1.9-0.8,2.8-1.4c-0.6,0-1.8-0.4-2.5-0.4c0.5-1.4-1.4-2.8-2-4.8
			c-0.5-1.6-0.5-4.9-1.7-6.5c-0.2,0.3-0.3,0.6-0.4,1c-3.5-3-4.1-4-8.4-2.2c-11.3,4.5-21.2,10.9-33,14.5c-8,2.5-15,4.9-23.3,5.5
			c-12.6,0.8-24.8,2.4-37.3,4.1c0.4,0,0.8,0,1.2,0"/>
	</g>
	<g>
		<path class="st2" d="M581.1,942.5c0,0-4.7,9.8,4.1,13.2c0,0,19.4,4.8,23.8,9.2l27.9-6.8l-7.3-34.2L581.1,942.5z"/>
	</g>
	<g>
		<path class="st2" d="M117.4,802.2c-9.6,0.3-19.3,0.4-28.9,0.4c-9.6,0-19.3-0.1-28.9-0.2c-9.6-0.2-19.2-0.4-28.9-0.7
			c-9.6-0.3-19.2-0.8-28.9-1.4c9.6-0.3,19.3-0.5,28.9-0.5c9.6,0,19.3,0.1,28.9,0.2c9.6,0.2,19.2,0.4,28.9,0.7
			C98.2,801.1,107.8,801.6,117.4,802.2z"/>
	</g>
	<g>
		<path class="st0" d="M420.3,902.6l-70.8,20.3v30.7h81.7C431.2,953.7,417.6,921.7,420.3,902.6z"/>
		<path class="st2" d="M431.2,954.8h-81.7c-0.6,0-1.2-0.5-1.2-1.2v-30.7c0-0.5,0.3-1,0.9-1.1l70.8-20.3c0.4-0.1,0.8,0,1.1,0.2
			c0.3,0.3,0.4,0.7,0.4,1.1c-2.6,18.5,10.7,50.1,10.8,50.4c0.2,0.4,0.1,0.8-0.1,1.1C432,954.6,431.6,954.8,431.2,954.8z
			 M350.7,952.5h78.8c-2.7-6.6-12-31.4-10.5-48.3l-68.3,19.6V952.5z"/>
	</g>
	<g>
		<path class="st0" d="M431.2,954.8c-0.4,0-0.9-0.3-1.1-0.7c-20.8-46.8-6.9-63.9-6.3-64.6c0.4-0.5,1.2-0.5,1.7-0.1
			c0.5,0.4,0.5,1.2,0.1,1.7l0,0c-0.1,0.2-13.5,16.9,6.6,62.1c0.3,0.6,0,1.3-0.6,1.6C431.5,954.8,431.4,954.8,431.2,954.8z"/>
	</g>
	<g>
		<path class="st1" d="M462.5,533.5c14.3,4.2,29.8,4.5,44.2,0.9c-10.4,8.8-16.9,21.1-25.8,31.4c-4.7,5.5-10,10.4-15.8,14.6
			c-0.8,0.5-1.6,1.1-2.5,1.1c-0.9,0-1.8-0.5-2.5-1.1c-12.9-9.2-22.4-22.9-27.1-38c-1.7-5.6-5.2-14.1,1.7-16.6
			C441.5,523.3,455.9,531.6,462.5,533.5z"/>
	</g>
	<g>
		<circle class="st2" cx="462.3" cy="585.8" r="0.8"/>
	</g>
	<g>
		<circle class="st2" cx="462.3" cy="588.3" r="0.8"/>
	</g>
	<g>
		<circle class="st2" cx="465.2" cy="585.8" r="0.8"/>
	</g>
	<g>
		<circle class="st2" cx="465.2" cy="588.3" r="0.8"/>
	</g>
	<g>
		<path class="st2" d="M435.8,479.3l0.1,51.1c0,0,8.9,32.6,25.6,52.2c0,0-27.1-16.6-46.7-51.6c0,0-32,19.3-27.9,1.7
			C386.9,532.7,395.5,488.2,435.8,479.3"/>
	</g>
	<g>
		<path class="st2" d="M499.7,479.3l-0.1,51.1c0,0-16.5,37.3-32.1,53.3c0,0,33.6-17.7,53.2-52.7c0,0,32,19.3,27.9,1.7
			C548.7,532.7,540.1,488.2,499.7,479.3"/>
	</g>
	<g>
		<path class="st2" d="M569.4,809.7C569.4,809.7,569.4,809.7,569.4,809.7L296.1,808c-0.5,0-5.6,0.3-9.3-3c-2.5-2.1-3.8-5.3-4-9.3
			l-6.3-165.1c-0.1-0.7-1.1-6.2,2.1-9.9c2.1-2.4,5.5-3.5,10.1-3.2l310.8,6.9c0.2,0,5.3,0.2,8.3,3.5c1.5,1.7,2.2,3.8,1.9,6.4
			l-14.3,165.1c0,0.3-0.3,0.6-0.6,0.7c-0.2,0.1-20,5.1-24.9,9.4C569.8,809.7,569.6,809.7,569.4,809.7z M296.1,806.5
			C296.1,806.5,296.1,806.5,296.1,806.5l273.1,1.7c5.1-4.1,21.6-8.5,24.8-9.4l14.3-164.6c0.2-2.2-0.4-4-1.6-5.3
			c-2.5-2.8-7.2-3-7.2-3l-310.8-6.9c-4.1-0.3-7.1,0.6-8.9,2.7c-2.9,3.3-1.8,8.6-1.7,8.7c0,0,0,0.1,0,0.1l6.3,165.1
			c0.2,3.6,1.4,6.4,3.5,8.2C291.1,806.9,295.9,806.5,296.1,806.5C296,806.5,296,806.5,296.1,806.5z"/>
	</g>
	<g>
		<path class="st0" d="M456.4,882.2c0.3-2.1,1-4.2,2-6.1c0.4-1,1.1-1.9,1.6-2.8c0.6-0.9,1.2-1.8,1.9-2.6c0.7-0.8,1.4-1.6,2.1-2.4
			l2.3-2.3c1.7-1.4,3.3-2.8,5.1-4c1.7-1.3,3.7-2.3,5.5-3.4c0.9-0.6,1.9-1,2.9-1.4l2.9-1.4c2-0.8,4-1.6,6-2.3l6.2-1.9l-0.3,0.1
			c4.7-2.9,9.5-5.7,14.2-8.6c4.8-2.8,9.6-5.6,14.4-8.2c4.8-2.7,9.7-5.3,14.7-7.8c4.9-2.5,9.9-4.9,15.2-6.9l-0.1,0.1
			c4.3-3.2,8.5-6.4,12.8-9.5c-4,3.5-8.1,6.9-12.1,10.3c0,0-0.1,0-0.1,0.1l0,0c-5,2.2-9.9,4.8-14.7,7.4c-4.8,2.7-9.6,5.4-14.4,8.1
			c-4.8,2.8-9.6,5.5-14.3,8.3c-4.8,2.8-9.5,5.6-14.3,8.5c-0.1,0.1-0.2,0.1-0.3,0.1l0,0l-6.1,1.8c-2,0.7-4,1.4-5.9,2.1l-2.9,1.3
			c-1,0.4-2,0.8-2.9,1.3c-1.9,1-3.7,1.9-5.5,3.1c-3.6,2.2-6.9,4.8-9.8,7.9c-0.7,0.8-1.4,1.6-2,2.4c-0.6,0.9-1.3,1.7-1.7,2.6
			C457.8,878.1,456.9,880.1,456.4,882.2z"/>
	</g>
	<g>
		<path class="st0" d="M372.7,842.3c-6.1-1.8-12.2-3.8-18.2-5.9c-6-2.1-12-4.3-18-6.5c-6-2.3-11.9-4.6-17.8-7
			c-5.9-2.4-11.8-4.9-17.6-7.6c6.1,1.8,12.2,3.8,18.2,5.9c6,2.1,12,4.3,18,6.5c6,2.3,11.9,4.6,17.8,7
			C361,837.2,366.9,839.6,372.7,842.3z"/>
	</g>
	<g>
		<path class="st6" d="M947.4,762.7c2.6-16.6,7.8-32.9,15.4-47.9c-38.7,25.8-77.3,51.5-116,77.3c15.7-34,28.6-69.2,38.4-105.3
			c-17.6,5.8-34.1,15-48.2,27c5.5-24.3,10.9-48.5,16.4-72.8c-31.5,46.5-72.6,86.5-119.9,116.7c13.9-25,27.9-50,41.8-75
			c-8.5,4.8-17,9.6-25.5,14.4c7.5-6.8,13.5-15.1,17.6-24.4c-14.3,5.1-28.6,10.3-42.9,15.4"/>
	</g>
	<g>
		<path class="st0" d="M837.7,919.7c5.9-2.2,11-5.9,15.6-10.2c4.5-4.3,8.2-9.4,11.3-14.8l2.2-4.1c0.7-1.4,1.2-2.9,1.9-4.3l0.9-2.2
			c0.3-0.7,0.5-1.5,0.8-2.2l1.5-4.4l0.4-1.1l0.3-1.1l0.6-2.3l1.1-4.6l1.5-9.2l0-0.1l0,0l51.9-67.7l25.9-33.9
			c8.7-11.3,17.3-22.6,26-33.8l0,0l18.7-29.8c6.2-10,12.5-19.9,18.8-29.8l0.1,0.1c-6.1,10-12.2,20.1-18.4,30l-18.4,30l0,0l0,0
			c-8.6,11.3-17.3,22.6-26,33.8l-26.1,33.8L876,859.2l0-0.1l-1.6,9.3l-1.1,4.6l-0.6,2.3l-0.3,1.1l-0.4,1.1l-1.5,4.5
			c-0.3,0.7-0.5,1.5-0.8,2.2l-0.9,2.2c-0.6,1.4-1.2,2.9-1.9,4.3l-2.2,4.1c-3.1,5.4-6.9,10.5-11.5,14.8
			C848.8,913.9,843.6,917.6,837.7,919.7L837.7,919.7z"/>
	</g>
	<g>
		<path class="st12" d="M1145.8,974.5c-34.9,0.3-69.7,0.6-104.6,0.7l-52.3,0.1l-52.3,0l-52.3-0.3l-26.1-0.1l-26.1-0.1
			c-34.9-0.1-69.7,0-104.6,0.2c-69.7,0.3-139.4,0.6-209.1,0.5l-52.3-0.1l-52.3-0.2l-52.3-0.2l-52.3-0.4v-0.2l52.3-0.4l52.3-0.2
			l52.3-0.2l52.3-0.1c69.7-0.1,139.4,0.2,209.1,0.5c34.9,0.2,69.7,0.3,104.6,0.2l26.1-0.1l26.1-0.1l52.3-0.3l52.3,0l52.3,0.1
			c34.9,0.1,69.7,0.3,104.6,0.7V974.5z"/>
	</g>
	<path class="st0" d="M30.6,443.2c-9.5-2.1-19.1-4-28.8-5.6v31c0.4-0.9,1-1.8,1.6-2.6C11,456.8,20.2,449,30.6,443.2z"/>
	<path class="st0" d="M57.4,522c-5.5-2.8-11-5.6-16.4-8.4c4.9,1.3,10,1.6,15,0.8c-19-7.5-37.2-17.1-54.1-28.6v193.3
		c2.7-3.9,5.6-7.7,6.3-12.4c1.3-8.5-5.2-16.6-4.1-25.1c0.8-6.2,5.4-11.1,7.8-16.9c2.4-5.8,0.9-14.4-5.3-15.3
		c3.6-2.9,7.2-5.8,10.8-8.7l-8.9-4.3c5.1-6.3,11.5-11.7,18.5-15.7c-8.3-1.5-10.4-15.1-2.9-19.1c-3.4-2.2-5.8-5.9-6.4-9.9
		c5.2-1.6,10.3-3.2,15.5-4.9c-5.1-2.1-10.2-4.3-15.2-6.4c5.4-3,11.5-5.1,17.6-6c-5.1-1-9.9-3.4-13.8-6.7c7.1-1.9,14.5-2.6,21.8-2
		c-2.9-2.7-6.4-4.6-10.1-5.7C41.3,520.7,49.3,521.3,57.4,522z"/>
</g>
<g id="Capa_5">
	<g>
		<path class="st0" d="M498.1,516.6c0,16.5-60.6,16.5-60.6,0V449c0-16.5,13.6-29.9,30.3-29.9c16.7,0,30.3,13.4,30.3,29.9V516.6z"/>
	</g>
	<g>
		<path class="st2" d="M467.8,530.1c-8.1,0-15.6-1.1-21.2-3.2c-6.7-2.4-10.2-6-10.2-10.3V449c0-17.1,14.1-31.1,31.4-31.1
			c17.3,0,31.4,13.9,31.4,31.1v67.6C499.2,525.9,483.4,530.1,467.8,530.1z M467.8,420.2c-16.1,0-29.2,12.9-29.2,28.8v67.6
			c0,7.4,14.7,11.3,29.2,11.3S497,524,497,516.6V449C497,433.1,483.9,420.2,467.8,420.2z"/>
	</g>
	<g>
		<path class="st2" d="M467.8,433.6c-16.8,0-30.4,12-30.4,26.9v8.1c13.8,20.9,49.5,18.8,60.8,0v-8.1
			C498.1,445.6,484.5,433.6,467.8,433.6"/>
	</g>
	<g>
		<path class="st0" d="M423.2,439.1c-12.6,0-28.7-19.7-28.7-32.6c0-12.9,13.8-18.1,23.4-4.6C425.4,412.2,435.8,439.1,423.2,439.1"/>
	</g>
	<g>
		<path class="st2" d="M423.2,440.2c-13.5,0-29.8-20.7-29.8-33.7c0-6.3,3.3-11.5,8.4-13.1c4.5-1.4,11.3-0.1,17,7.8
			c5.6,7.9,14.4,27.6,10.3,35.6C428,439,425.9,440.2,423.2,440.2z M405.3,395c-1,0-1.9,0.1-2.8,0.4c-4.2,1.4-6.9,5.6-6.9,11
			c0,12,15.4,31.5,27.6,31.5c1.9,0,3.2-0.7,4-2.2c3.3-6.3-3.9-24.6-10.1-33.3C413.6,397.7,409.4,395,405.3,395z"/>
	</g>
	<g>
		<path class="st0" d="M513.2,439.1c12.6,0,28.6-19.7,28.6-32.6c0-12.9-13.8-18.1-23.4-4.6C511,412.2,500.6,439.1,513.2,439.1"/>
	</g>
	<g>
		<path class="st2" d="M513.2,440.2c-2.8,0-4.8-1.2-5.9-3.4c-4.1-8,4.6-27.7,10.3-35.6c5.7-8,12.5-9.3,17-7.8
			c5.1,1.6,8.4,6.8,8.4,13.1C543,419.5,526.8,440.2,513.2,440.2z M531.1,395c-4.1,0-8.3,2.6-11.7,7.5c-6.2,8.7-13.4,26.9-10.1,33.3
			c0.8,1.5,2.1,2.2,4,2.2c12.2,0,27.5-19.5,27.5-31.5c0-5.4-2.6-9.7-6.9-11C533,395.2,532.1,395,531.1,395z"/>
	</g>
	<g>
		<path class="st0" d="M517.1,430.7c-3.6,31.6-23.3,43.4-49.2,43.4c-25.9,0-45.6-11.8-49.2-43.4l-4.5-50.8c0-24,21-43.4,46.8-43.4
			h13.7c25.9,0,46.8,19.4,46.8,43.4L517.1,430.7z"/>
	</g>
	<g>
		<path class="st2" d="M467.9,475.1c-29.6,0-46.9-15.3-50.3-44.3l-4.5-50.8c0-24.6,21.5-44.6,47.9-44.6h13.7
			c26.4,0,47.9,20,47.9,44.5l-4.5,50.9c0,0,0,0,0,0C514.9,459.8,497.5,475.1,467.9,475.1z M461.1,337.6c-25.2,0-45.7,19-45.7,42.3
			l4.5,50.7c3.2,28.1,19.4,42.4,48.1,42.4c28.7,0,44.9-14.3,48.1-42.4l4.5-50.8c0-23.2-20.5-42.2-45.7-42.2H461.1z M517.1,430.7
			L517.1,430.7L517.1,430.7z"/>
	</g>
	<g>
		<path class="st2" d="M459.2,339.8c-2.3-0.2-5.2-2.2-7.6-2.7c-6.1-1.4-10.6-0.4-16.3,1.4c-9.8,3.1-20.7,5.6-24.2,16.8
			c-4.3,13.8-0.8,25.4,1.7,38.5c1.7,3.1,3.5,1.8,5.1,5C420.7,336.6,459,339.8,459.2,339.8"/>
	</g>
	<g>
		<path class="st2" d="M527.3,360.6c0-3.1,0-6.6-0.8-9.5c-1.5-5.3-4-8-9.2-9.2c-4.9-1.1-6.8-3.9-11.4-6.4c-6.1-3.2-13-3-19.4-0.9
			c-3.3,1-10.8,2.9-6.3,5.7c2.4,1.5,6.4,1.8,9.2,3.2c10.3,5.2,17.5,14.8,21.8,25.4c2.6,6.3,4.2,13,5.2,19.8c0.6,4.2,1,8.4,1.2,12.6
			c0,0.5,0.1-3,0.2-1.8c1.9-2.5,3.9-3.9,6-6.3C525.5,381.3,527.2,372.7,527.3,360.6"/>
	</g>
	<g>
		<path class="st2" d="M480.8,343.2c-11.8,4.9-21.5,8.4-34.6,7.6c-14-0.9-22.5-6-27.4-15.1c-5.2-9.7-2.7-18.7,3.1-23.8
			c8.4-7.4,18.5-5.2,18.5-5.2s0.1-5.6,10-10.3c11.2-5.3,24.6-1.5,30.6,2.8c8.6,6.1,8.5,12.6,12.2,20.6c1.8,3.9,3.9,7.4,7.8,10.2
			c3.9,2.8,7.4,5.3,10.2,9.2c4.8,6.6,6,20.4,6,25.5c0.6-6.3-13-23.6-20.2-24.8C491.5,339.2,486.1,341,480.8,343.2"/>
	</g>
	<g>
		<path class="st2" d="M468.5,445.6c-11.9,0-18.9-10.5-19.2-10.9c-0.2-0.3-0.2-0.8-0.1-1.1c0.2-0.4,0.5-0.6,0.9-0.6l34.8-1.1
			c0.4,0,0.7,0.2,1,0.5c0.2,0.3,0.2,0.7,0.1,1.1C485.9,433.9,480.5,445.6,468.5,445.6z M452.5,435.1c2.4,2.8,8.1,8.3,16,8.3
			c8,0,12.8-6.3,14.7-9.3L452.5,435.1z"/>
	</g>
	<g>
		<path class="st2" d="M443.6,396.7c0,2.8-1,5.1-2.3,5.1c-1.3,0-2.3-2.3-2.3-5.1c0-2.8,1-5.1,2.3-5.1
			C442.6,391.6,443.6,393.9,443.6,396.7"/>
	</g>
	<g>
		<path class="st5" d="M443.6,396.7c0,2.8-1,5.1-2.3,5.1c-1.3,0-2.3-2.3-2.3-5.1c0-2.8,1-5.1,2.3-5.1
			C442.6,391.6,443.6,393.9,443.6,396.7z"/>
		<path class="st5" d="M441.3,402.9c-2.2,0-3.4-3.1-3.4-6.2c0-3.6,1.4-6.2,3.4-6.2c2,0,3.4,2.6,3.4,6.2
			C444.7,399.8,443.5,402.9,441.3,402.9z M441.3,392.7c-0.3,0.1-1.2,1.4-1.2,4c0,2.6,0.9,3.9,1.2,4c0.3-0.1,1.2-1.4,1.2-4
			C442.5,394.1,441.6,392.8,441.3,392.7z"/>
	</g>
	<g>
		<path class="st5" d="M495.3,396.7c0,2.8-1,5.1-2.3,5.1c-1.3,0-2.3-2.3-2.3-5.1c0-2.8,1-5.1,2.3-5.1
			C494.3,391.6,495.3,393.9,495.3,396.7"/>
	</g>
	<g>
		<path class="st2" d="M493,402.9c-2.2,0-3.4-3.1-3.4-6.2c0-3.6,1.4-6.2,3.4-6.2c2,0,3.4,2.6,3.4,6.2
			C496.4,399.8,495.3,402.9,493,402.9z M493,392.7c-0.3,0.1-1.2,1.4-1.2,4c0,2.6,0.9,3.9,1.2,4c0.3-0.1,1.2-1.4,1.2-4
			C494.2,394.1,493.3,392.8,493,392.7z"/>
	</g>
	<g>
		<path class="st2" d="M498.7,380l-15.4-2.2l0.7-4.6l15.4,2.2L498.7,380z M434.2,380l-0.7-4.6l15.4-2.2l0.7,4.6L434.2,380z"/>
	</g>
	<g>
		<path class="st13" d="M495.3,399.3c0,1.4-1,2.5-2.3,2.5c-1.3,0-2.3-1.1-2.3-2.5c0-1.4,1-2.5,2.3-2.5
			C494.3,396.7,495.3,397.9,495.3,399.3"/>
	</g>
	<g>
		<path class="st13" d="M443.9,399.3c0,1.4-1,2.5-2.3,2.5c-1.3,0-2.3-1.1-2.3-2.5c0-1.4,1-2.5,2.3-2.5
			C442.8,396.7,443.9,397.9,443.9,399.3"/>
	</g>
	<g>
		<g>
			<path class="st6" d="M496,417.7c-11.9,0-19.3-5.8-22-17.1c-1.3-5.4-0.7-9.6,1.7-12.6c4-5.1,11.9-5.5,20.3-5.5
				c10.7,0,19.9,0,19.9,17.6C515.9,410.8,508.1,417.7,496,417.7z M496,386.8c-5.5,0-13.9,0-16.9,3.8c-1.5,1.9-1.8,4.9-0.8,9
				c0,0,0,0,0,0c2.2,9.4,7.9,13.8,17.7,13.8c9.7,0,15.6-5,15.6-13.3C511.5,386.8,507,386.8,496,386.8z M439,417.7
				c-12.1,0-19.9-6.9-19.9-17.6c0-17.6,9.2-17.6,19.9-17.6c8.4,0,16.3,0.4,20.3,5.5c2.4,3,2.9,7.3,1.7,12.7l0,0
				C458.2,411.9,450.9,417.7,439,417.7z M439,386.8c-11,0-15.6,0-15.6,13.3c0,8.3,5.8,13.3,15.6,13.3c9.9,0,15.5-4.4,17.7-13.8l0,0
				c1-4,0.7-7-0.8-9C452.8,386.8,444.5,386.8,439,386.8z"/>
		</g>
		<g>
			<path class="st6" d="M459.3,399.8c-0.2,0-0.3,0-0.5-0.1c-1.1-0.3-1.9-1.4-1.7-2.5c0.2-1,0.4-4.2-0.9-6c-1.1-1.6-6.6-3.4-9.9-4.2
				c-1.1-0.2-1.8-1.3-1.7-2.4c0.1-1.1,1.1-1.9,2.2-1.9c3.3,0,5.9,0.9,8.7,1.8c3.3,1.1,6.6,2.2,11.6,2.2c4.7,0,8.4-1,11.9-2
				c3.4-1,6.9-1.9,11.1-1.9c1.1,0,2.1,0.9,2.2,2c0.1,1.1-0.7,2.1-1.8,2.3c-3.3,0.5-9.4,2-11.5,3.5c-1.7,1.3-1.7,5.1-1.4,6.7
				c0.2,1.1-0.5,2.2-1.7,2.5c-1.1,0.3-2.2-0.4-2.6-1.5c-0.8-2.7-4.4-2.8-5.5-2.8c-3.3,0-6.2,1.5-6.6,2.8
				C461.1,399.2,460.2,399.8,459.3,399.8z M460.7,390.4c0.3,0.7,0.5,1.4,0.6,2.1c1.9-1,4.3-1.5,6.5-1.5c2.1,0,4,0.4,5.6,1.1
				c0.1-0.6,0.3-1.2,0.6-1.8c-2.1,0.4-4.3,0.6-6.9,0.6C464.7,391,462.6,390.8,460.7,390.4z"/>
		</g>
		<g>
			<path class="st6" d="M421.3,399.8c-1.1,0-2.1-0.9-2.2-2c0,0,0-0.5,0-1.1c-0.5-4.5-6.9-8-9.5-9.1c-1-0.4-1.6-1.5-1.3-2.5
				c0.3-1.1,1.2-1.8,2.3-1.7c0.1,0,9.2,0.9,17.2,0c1-0.1,2,0.5,2.3,1.5c0.3,1-0.1,2.1-1,2.6l0,0c-1,0.6-3.8,2.5-4.7,4.6
				c-0.7,1.7-0.9,3.4-1,4.4c0,0.4,0,0.8,0,1.2C423.4,398.9,422.5,399.8,421.3,399.8C421.3,399.8,421.3,399.8,421.3,399.8z
				 M418.7,388.2c0.7,0.6,1.3,1.2,1.9,1.9c0.3-0.7,0.7-1.3,1.2-1.9C420.7,388.2,419.7,388.2,418.7,388.2z M428,385.6L428,385.6
				L428,385.6z"/>
		</g>
		<g>
			<path class="st6" d="M513.9,399.7C513.9,399.7,513.9,399.7,513.9,399.7c-1.2,0-2.1-0.9-2.2-2c0-0.4,0-0.8,0-1.2
				c0-1-0.2-2.7-1-4.4c-0.9-2.1-3.7-4-4.7-4.6c-0.9-0.5-1.3-1.6-1-2.6c0.3-1,1.3-1.6,2.3-1.5c8,0.9,17.1,0,17.2,0
				c1.1-0.1,2.1,0.6,2.3,1.7c0.3,1.1-0.3,2.1-1.3,2.5c-2.6,1-9.1,4.6-9.5,9.1c0,0.7,0,1.1,0,1.1C516,398.9,515,399.7,513.9,399.7z
				 M513.5,388.1c0.4,0.6,0.8,1.2,1.2,1.9c0.6-0.7,1.2-1.3,1.9-1.9C515.5,388.1,514.5,388.1,513.5,388.1z"/>
		</g>
	</g>
	<g>
		<path class="st2" d="M472.2,425.1c-0.1,0-0.1,0-0.2,0c-1.7-0.3-16.7-3.1-17.6-9.1c-0.8-5.7,11.5-18.5,12.9-19.9
			c0.4-0.4,1-0.4,1.4,0c0.4,0.4,0.4,1,0,1.4c-5.1,5.1-12.9,14.6-12.4,18.2c0.5,3.4,10.1,6.4,16,7.4c0.5,0.1,0.9,0.6,0.8,1.1
			C473.1,424.8,472.7,425.1,472.2,425.1z"/>
	</g>
</g>
</svg>
