<svg xmlns="http://www.w3.org/2000/svg" width="197.398" height="18" viewBox="0 0 197.398 18">
  <g id="logo-superintendencia" transform="translate(-0.301)">
    <g id="Grupo_13" data-name="Grupo 13">
      <path id="Trazado_8740" data-name="Trazado 8740" d="M74.6,5.67l1.04-.1a1.268,1.268,0,0,0,.377.766,1.174,1.174,0,0,0,.781.248,1.218,1.218,0,0,0,.776-.22.656.656,0,0,0,.261-.512.511.511,0,0,0-.107-.32A.93.93,0,0,0,77.34,5.3c-.12-.043-.411-.121-.85-.231a2.929,2.929,0,0,1-1.208-.525A1.371,1.371,0,0,1,74.8,3.483a1.348,1.348,0,0,1,.227-.757,1.46,1.46,0,0,1,.662-.536A2.6,2.6,0,0,1,76.728,2a2.187,2.187,0,0,1,1.494.439,1.532,1.532,0,0,1,.533,1.164l-1.07.047a.859.859,0,0,0-.294-.581,1.025,1.025,0,0,0-.669-.181,1.222,1.222,0,0,0-.736.189.394.394,0,0,0-.17.328.44.44,0,0,0,.155.324,2.936,2.936,0,0,0,.986.35,4.932,4.932,0,0,1,1.152.383,1.44,1.44,0,0,1,.587.54,1.545,1.545,0,0,1,.213.841,1.529,1.529,0,0,1-.258.852,1.44,1.44,0,0,1-.714.591,3.006,3.006,0,0,1-1.147.2,2.275,2.275,0,0,1-1.546-.467A1.97,1.97,0,0,1,74.6,5.67Z" fill="#9e9e9e"/>
      <path id="Trazado_8741" data-name="Trazado 8741" d="M79.8,2.1h1.07V4.964a8.434,8.434,0,0,0,.033.885.931.931,0,0,0,.334.523,1.155,1.155,0,0,0,.707.2,1.07,1.07,0,0,0,.686-.186.727.727,0,0,0,.278-.459,5.064,5.064,0,0,0,.051-.9V2.1h1.062V4.878a7.435,7.435,0,0,1-.08,1.345,1.537,1.537,0,0,1-.322.666,1.566,1.566,0,0,1-.628.433,2.717,2.717,0,0,1-1.016.159A2.989,2.989,0,0,1,80.822,7.3,1.667,1.667,0,0,1,80.2,6.85a1.439,1.439,0,0,1-.3-.588A6.744,6.744,0,0,1,79.8,4.92V2.1Z" fill="#9e9e9e"/>
      <path id="Trazado_8742" data-name="Trazado 8742" d="M85.145,7.387V2.1h1.716a6.159,6.159,0,0,1,1.269.079,1.38,1.38,0,0,1,.761.519,1.63,1.63,0,0,1,.31,1.032,1.776,1.776,0,0,1-.174.818,1.532,1.532,0,0,1-.45.521,1.593,1.593,0,0,1-.559.251,5.8,5.8,0,0,1-1.107.078h-.7V7.387H85.145Zm1.068-4.394v1.5H86.8a2.928,2.928,0,0,0,.852-.082.7.7,0,0,0,.332-.261.768.768,0,0,0-.048-.889.753.753,0,0,0-.426-.235,5.229,5.229,0,0,0-.771-.034Z" fill="#9e9e9e"/>
      <path id="Trazado_8743" data-name="Trazado 8743" d="M90.072,7.387l0-5.289H94v.9H91.149V4.166h2.657v.893H91.149V6.5H94.1v.886Z" fill="#9e9e9e"/>
      <path id="Trazado_8744" data-name="Trazado 8744" d="M95.016,7.387V2.1h2.246A3.869,3.869,0,0,1,98.5,2.24a1.163,1.163,0,0,1,.6.505,1.463,1.463,0,0,1,.238.834,1.41,1.41,0,0,1-.351.988,1.682,1.682,0,0,1-1.04.485,2.466,2.466,0,0,1,.565.444,5.477,5.477,0,0,1,.6.859l.654,1.031H98.493l-.772-1.149a8.721,8.721,0,0,0-.558-.777.9.9,0,0,0-.325-.221,1.8,1.8,0,0,0-.538-.057h-.222v2.2Zm1.063-3.053h.793a4,4,0,0,0,.962-.064.583.583,0,0,0,.307-.224.748.748,0,0,0,.1-.4.656.656,0,0,0-.145-.432.645.645,0,0,0-.4-.207c-.09-.009-.346-.016-.782-.016h-.839Z" fill="#9e9e9e"/>
      <path id="Trazado_8745" data-name="Trazado 8745" d="M100.322,7.387V2.1h1.063V7.386h-1.063Z" fill="#9e9e9e"/>
      <path id="Trazado_8746" data-name="Trazado 8746" d="M102.414,7.387V2.1h1.045l2.164,3.536V2.1h.989V7.386h-1.066l-2.134-3.447V7.386h-1Z" fill="#9e9e9e"/>
      <path id="Trazado_8747" data-name="Trazado 8747" d="M108.936,7.387V2.994h-1.572V2.1h4.2v.9h-1.561V7.386h-1.072Z" fill="#9e9e9e"/>
      <path id="Trazado_8748" data-name="Trazado 8748" d="M112.262,7.387V2.1h3.92v.9h-2.849V4.165h2.658v.893h-2.658V6.5h2.954v.886h-4.025Z" fill="#9e9e9e"/>
      <path id="Trazado_8749" data-name="Trazado 8749" d="M117.2,7.387V2.1h1.046l2.162,3.536V2.1h.994V7.386h-1.072L118.2,3.939V7.386H117.2Z" fill="#9e9e9e"/>
      <path id="Trazado_8750" data-name="Trazado 8750" d="M122.534,2.1h1.952a3.752,3.752,0,0,1,1.007.1,1.7,1.7,0,0,1,.793.489,2.174,2.174,0,0,1,.513.859,3.976,3.976,0,0,1,.171,1.25,3.244,3.244,0,0,1-.166,1.126,2.255,2.255,0,0,1-.565.935,1.837,1.837,0,0,1-.753.419,3.117,3.117,0,0,1-.95.11h-2Zm1.07.9V6.5h.791a2.881,2.881,0,0,0,.644-.051.993.993,0,0,0,.44-.221,1.125,1.125,0,0,0,.28-.513,3.552,3.552,0,0,0,.108-.966,3.276,3.276,0,0,0-.108-.945,1.31,1.31,0,0,0-.3-.515,1.1,1.1,0,0,0-.5-.246,4.826,4.826,0,0,0-.874-.05H123.6Z" fill="#9e9e9e"/>
      <path id="Trazado_8751" data-name="Trazado 8751" d="M127.877,7.387V2.1H131.8v.9h-2.858V4.165H131.6v.893h-2.657V6.5h2.959v.886h-4.029Z" fill="#9e9e9e"/>
      <path id="Trazado_8752" data-name="Trazado 8752" d="M132.827,7.387V2.1h1.038l2.159,3.536,0-3.536h1V7.386h-1.081l-2.13-3.447V7.386h-.987Z" fill="#9e9e9e"/>
      <path id="Trazado_8753" data-name="Trazado 8753" d="M141.538,5.443l1.038.33a2.315,2.315,0,0,1-.793,1.284,2.253,2.253,0,0,1-1.4.424,2.285,2.285,0,0,1-1.739-.719,2.79,2.79,0,0,1-.679-1.972,2.924,2.924,0,0,1,.679-2.054,2.355,2.355,0,0,1,1.8-.731,2.218,2.218,0,0,1,1.577.574,2.062,2.062,0,0,1,.534.974l-1.051.255a1.1,1.1,0,0,0-1.121-.887,1.193,1.193,0,0,0-.952.422,2.087,2.087,0,0,0-.368,1.367,2.279,2.279,0,0,0,.361,1.431,1.177,1.177,0,0,0,.941.427,1.032,1.032,0,0,0,.728-.274A1.517,1.517,0,0,0,141.538,5.443Z" fill="#9e9e9e"/>
      <path id="Trazado_8754" data-name="Trazado 8754" d="M143.454,7.387V2.1h1.074V7.386h-1.074Z" fill="#9e9e9e"/>
      <path id="Trazado_8755" data-name="Trazado 8755" d="M150.327,7.387H149.15l-.456-1.2h-2.116l-.441,1.2h-1.132L147.069,2.1H148.2ZM148.348,5.3l-.725-1.963L146.9,5.3Z" fill="#9e9e9e"/>
      <path id="Trazado_8756" data-name="Trazado 8756" d="M152.672,7.387V2.1H156.3v.9h-2.555V4.246h2.211v.9h-2.211V7.387Z" fill="#9e9e9e"/>
      <path id="Trazado_8757" data-name="Trazado 8757" d="M157.152,7.387l0-5.289h1.064V7.387Z" fill="#9e9e9e"/>
      <path id="Trazado_8758" data-name="Trazado 8758" d="M159.251,7.387V2.1h1.038l2.161,3.536V2.1h1V7.386h-1.08l-2.135-3.447V7.386h-.988Z" fill="#9e9e9e"/>
      <path id="Trazado_8759" data-name="Trazado 8759" d="M169.352,7.387h-1.161l-.462-1.2h-2.114l-.442,1.2h-1.135L166.1,2.1h1.132ZM167.384,5.3l-.735-1.963L165.941,5.3Z" fill="#9e9e9e"/>
      <path id="Trazado_8760" data-name="Trazado 8760" d="M169.925,7.387V2.1h1.048l2.161,3.536V2.1h.992V7.386h-1.069l-2.135-3.447V7.386h-1Z" fill="#9e9e9e"/>
      <path id="Trazado_8761" data-name="Trazado 8761" d="M178.647,5.443l1.035.33a2.366,2.366,0,0,1-.788,1.284,2.28,2.28,0,0,1-1.414.424,2.251,2.251,0,0,1-1.724-.719,2.768,2.768,0,0,1-.688-1.972,2.9,2.9,0,0,1,.688-2.054,2.335,2.335,0,0,1,1.8-.731,2.2,2.2,0,0,1,1.574.574,2.126,2.126,0,0,1,.547.974l-1.066.255a1.106,1.106,0,0,0-.392-.65,1.126,1.126,0,0,0-.722-.237,1.184,1.184,0,0,0-.952.422,2.047,2.047,0,0,0-.369,1.367,2.237,2.237,0,0,0,.356,1.431,1.187,1.187,0,0,0,.943.427,1.031,1.031,0,0,0,.726-.274A1.53,1.53,0,0,0,178.647,5.443Z" fill="#9e9e9e"/>
      <path id="Trazado_8762" data-name="Trazado 8762" d="M180.568,7.387V2.1h1.066V7.386h-1.066Z" fill="#9e9e9e"/>
      <path id="Trazado_8763" data-name="Trazado 8763" d="M182.651,7.387V2.1h3.926v.9H183.72V4.165h2.661v.893H183.72V6.5h2.963v.886h-4.032Z" fill="#9e9e9e"/>
      <path id="Trazado_8764" data-name="Trazado 8764" d="M187.591,7.387V2.1h2.249a3.788,3.788,0,0,1,1.231.143,1.17,1.17,0,0,1,.616.505,1.531,1.531,0,0,1,.232.834,1.406,1.406,0,0,1-.352.988,1.652,1.652,0,0,1-1.045.485,2.545,2.545,0,0,1,.57.444,5.818,5.818,0,0,1,.612.859l.644,1.031h-1.276l-.77-1.149a8.546,8.546,0,0,0-.567-.777.912.912,0,0,0-.316-.221,1.807,1.807,0,0,0-.55-.058h-.206v2.2h-1.072Zm1.072-3.053h.786a3.955,3.955,0,0,0,.961-.064.551.551,0,0,0,.3-.224.717.717,0,0,0,.115-.4.655.655,0,0,0-.142-.432.678.678,0,0,0-.4-.207c-.092-.01-.348-.017-.776-.017h-.836V4.334Z" fill="#9e9e9e"/>
      <path id="Trazado_8765" data-name="Trazado 8765" d="M197.7,7.387h-1.16l-.465-1.2h-2.108l-.439,1.2h-1.134L194.447,2.1h1.13ZM195.735,5.3l-.727-1.963L194.287,5.3Z" fill="#9e9e9e"/>
      <path id="Trazado_8766" data-name="Trazado 8766" d="M110.274,10.61h1.955a3.925,3.925,0,0,1,1.007.1,1.785,1.785,0,0,1,.8.489,2.478,2.478,0,0,1,.5.858,3.984,3.984,0,0,1,.173,1.254,3.689,3.689,0,0,1-.157,1.125,2.381,2.381,0,0,1-.578.933,1.733,1.733,0,0,1-.74.423,3.13,3.13,0,0,1-.946.112h-2.016V10.61Zm1.07.9v3.5h.8a2.761,2.761,0,0,0,.646-.053.944.944,0,0,0,.429-.217,1.184,1.184,0,0,0,.28-.51,3.6,3.6,0,0,0,.11-.974,3.273,3.273,0,0,0-.11-.943,1.248,1.248,0,0,0-.3-.513,1.052,1.052,0,0,0-.5-.244,4.439,4.439,0,0,0-.88-.049Z" fill="#9e9e9e"/>
      <path id="Trazado_8767" data-name="Trazado 8767" d="M115.618,15.9V10.61h3.929v.9h-2.863v1.168h2.661v.895h-2.661v1.44h2.963V15.9h-4.029Z" fill="#9e9e9e"/>
      <path id="Trazado_8768" data-name="Trazado 8768" d="M126,13.957l1.029.33a2.327,2.327,0,0,1-.787,1.285,2.268,2.268,0,0,1-1.412.421,2.3,2.3,0,0,1-1.738-.724,2.777,2.777,0,0,1-.669-1.969,2.885,2.885,0,0,1,.683-2.049,2.32,2.32,0,0,1,1.795-.732,1.994,1.994,0,0,1,2.115,1.548l-1.055.253a1.131,1.131,0,0,0-.4-.652,1.105,1.105,0,0,0-.719-.239,1.225,1.225,0,0,0-.964.423,2.083,2.083,0,0,0-.352,1.369,2.225,2.225,0,0,0,.352,1.433,1.173,1.173,0,0,0,.941.421,1.11,1.11,0,0,0,.733-.268A1.6,1.6,0,0,0,126,13.957Z" fill="#9e9e9e"/>
      <path id="Trazado_8769" data-name="Trazado 8769" d="M127.73,13.287a3.311,3.311,0,0,1,.243-1.355,2.293,2.293,0,0,1,.5-.729,1.964,1.964,0,0,1,.683-.474,2.817,2.817,0,0,1,1.139-.21,2.513,2.513,0,0,1,1.876.724,2.82,2.82,0,0,1,.7,2.021,2.783,2.783,0,0,1-.7,2,2.462,2.462,0,0,1-1.866.725,2.49,2.49,0,0,1-1.877-.724A2.75,2.75,0,0,1,127.73,13.287Zm1.1-.037a2.01,2.01,0,0,0,.412,1.367,1.435,1.435,0,0,0,2.105,0,2.03,2.03,0,0,0,.413-1.382,2,2,0,0,0-.4-1.355,1.477,1.477,0,0,0-2.13.005A2.012,2.012,0,0,0,128.832,13.25Z" fill="#9e9e9e"/>
      <path id="Trazado_8770" data-name="Trazado 8770" d="M133.727,15.9v-5.25h1.067v4.36h2.661V15.9h-3.728Z" fill="#9e9e9e"/>
      <path id="Trazado_8771" data-name="Trazado 8771" d="M138,13.287a3.324,3.324,0,0,1,.248-1.355,2.46,2.46,0,0,1,.492-.729,2.123,2.123,0,0,1,.683-.474,2.867,2.867,0,0,1,1.143-.21,2.479,2.479,0,0,1,1.871.724,2.792,2.792,0,0,1,.7,2.021,2.8,2.8,0,0,1-.7,2,2.781,2.781,0,0,1-3.744,0A2.721,2.721,0,0,1,138,13.287Zm1.108-.037a1.98,1.98,0,0,0,.413,1.367,1.35,1.35,0,0,0,1.055.46,1.327,1.327,0,0,0,1.042-.459,1.979,1.979,0,0,0,.408-1.382,1.974,1.974,0,0,0-.394-1.355,1.345,1.345,0,0,0-1.057-.451,1.386,1.386,0,0,0-1.07.456A2.018,2.018,0,0,0,139.1,13.25Z" fill="#9e9e9e"/>
      <path id="Trazado_8772" data-name="Trazado 8772" d="M143.953,15.9V10.61h1.6l.959,3.607.957-3.607h1.6V15.9h-.993V11.736l-1.05,4.166H146l-1.049-4.166V15.9h-1Z" fill="#9e9e9e"/>
      <path id="Trazado_8773" data-name="Trazado 8773" d="M150.127,10.61h2.124a6.522,6.522,0,0,1,.937.05,1.337,1.337,0,0,1,.543.22,1.3,1.3,0,0,1,.409.444,1.193,1.193,0,0,1,.171.616,1.307,1.307,0,0,1-.206.687,1.246,1.246,0,0,1-.546.465,1.406,1.406,0,0,1,.752.479,1.27,1.27,0,0,1,.255.8,1.725,1.725,0,0,1-.164.7,1.551,1.551,0,0,1-.46.544,1.521,1.521,0,0,1-.718.251c-.176.019-.608.033-1.291.034h-1.807V10.61Zm1.069.884v1.22h.7c.415,0,.675-.007.779-.018a.732.732,0,0,0,.434-.19.553.553,0,0,0,.157-.413.6.6,0,0,0-.136-.4.617.617,0,0,0-.4-.186c-.11-.015-.419-.015-.922-.015H151.2Zm0,2.1v1.417h.994a5.228,5.228,0,0,0,.734-.032.676.676,0,0,0,.386-.213.65.65,0,0,0,.146-.448.692.692,0,0,0-.109-.406.664.664,0,0,0-.337-.241,3.615,3.615,0,0,0-.95-.076H151.2Z" fill="#9e9e9e"/>
      <path id="Trazado_8774" data-name="Trazado 8774" d="M155.441,15.9V10.61H156.5V15.9h-1.062Z" fill="#9e9e9e"/>
      <path id="Trazado_8775" data-name="Trazado 8775" d="M162.294,15.9h-1.156l-.467-1.2h-2.115l-.439,1.2h-1.133l2.066-5.292h1.127Zm-1.973-2.094-.72-1.965-.715,1.965Z" fill="#9e9e9e"/>
    </g>
    <g id="Grupo_15" data-name="Grupo 15">
      <g id="Grupo_14" data-name="Grupo 14">
        <path id="Trazado_8776" data-name="Trazado 8776" d="M6,12.452,3.827,6.361H5.164L6.7,10.866l1.5-4.505H9.5L7.31,12.452Z" fill="#9e9e9e"/>
        <path id="Trazado_8777" data-name="Trazado 8777" d="M13.286,12.452V6.361H14.52v6.091Z" fill="#9e9e9e"/>
        <path id="Trazado_8778" data-name="Trazado 8778" d="M21.723,10.212V9.188h2.65v2.425a3.271,3.271,0,0,1-1.12.66,4.07,4.07,0,0,1-1.483.283,3.317,3.317,0,0,1-1.668-.4,2.483,2.483,0,0,1-1.065-1.146,3.715,3.715,0,0,1-.362-1.623,3.544,3.544,0,0,1,.4-1.691,2.7,2.7,0,0,1,1.167-1.135,3.147,3.147,0,0,1,1.46-.3,2.9,2.9,0,0,1,1.77.476,2.157,2.157,0,0,1,.821,1.316l-1.218.231a1.286,1.286,0,0,0-.487-.71A1.452,1.452,0,0,0,21.7,7.3a1.67,1.67,0,0,0-1.278.514,2.12,2.12,0,0,0-.481,1.516,2.413,2.413,0,0,0,.481,1.629,1.628,1.628,0,0,0,1.266.543,2.071,2.071,0,0,0,.774-.155,2.724,2.724,0,0,0,.673-.367v-.773Z" fill="#9e9e9e"/>
        <path id="Trazado_8779" data-name="Trazado 8779" d="M28.674,12.452V6.361H29.9v6.091Z" fill="#9e9e9e"/>
        <path id="Trazado_8780" data-name="Trazado 8780" d="M34.311,12.452V6.411h1.228v5.014H38.6v1.026H34.311Z" fill="#9e9e9e"/>
        <path id="Trazado_8781" data-name="Trazado 8781" d="M48.172,12.452H46.828L46.3,11.069h-2.44l-.5,1.383H42.057l2.374-6.091h1.305Zm-2.266-2.413-.84-2.257-.822,2.257Z" fill="#9e9e9e"/>
        <path id="Trazado_8782" data-name="Trazado 8782" d="M52.019,6.361h2.247a4.646,4.646,0,0,1,1.166.113,2.059,2.059,0,0,1,.912.563,2.625,2.625,0,0,1,.58.984,4.31,4.31,0,0,1,.205,1.442,4.054,4.054,0,0,1-.186,1.3,2.819,2.819,0,0,1-.658,1.077,2.068,2.068,0,0,1-.864.482,3.6,3.6,0,0,1-1.089.131H52.018V6.361Zm1.228,1.026v4.039h.922a3.482,3.482,0,0,0,.745-.058,1.069,1.069,0,0,0,.492-.253,1.256,1.256,0,0,0,.325-.587,3.986,3.986,0,0,0,.12-1.117,3.671,3.671,0,0,0-.12-1.087,1.355,1.355,0,0,0-.352-.585,1.1,1.1,0,0,0-.565-.288A5.432,5.432,0,0,0,53.8,7.387h-.553Z" fill="#9e9e9e"/>
        <path id="Trazado_8783" data-name="Trazado 8783" d="M61.118,9.446A3.886,3.886,0,0,1,61.4,7.881a3.024,3.024,0,0,1,.569-.834,2.343,2.343,0,0,1,.788-.55,3.305,3.305,0,0,1,1.305-.242,2.867,2.867,0,0,1,2.165.838,3.212,3.212,0,0,1,.807,2.321,3.193,3.193,0,0,1-.8,2.31,2.834,2.834,0,0,1-2.142.831,2.88,2.88,0,0,1-2.165-.827A3.184,3.184,0,0,1,61.118,9.446Zm1.27-.046a2.282,2.282,0,0,0,.478,1.571,1.637,1.637,0,0,0,2.42,0,2.334,2.334,0,0,0,.469-1.59A2.316,2.316,0,0,0,65.3,7.82a1.695,1.695,0,0,0-2.441.008A2.3,2.3,0,0,0,62.388,9.4Z" fill="#9e9e9e"/>
      </g>
      <rect id="Rect치ngulo_65" data-name="Rect치ngulo 65" width="70.243" height="1.171" transform="translate(0.304)" fill="#9e9e9e"/>
      <rect id="Rect치ngulo_66" data-name="Rect치ngulo 66" width="70.246" height="1.174" transform="translate(0.301 16.826)" fill="#9e9e9e"/>
    </g>
  </g>
</svg>
