<svg xmlns="http://www.w3.org/2000/svg" width="193.028" height="40.583" viewBox="0 0 193.028 40.583"><defs><style>.a{fill:#1c2565;}.b{fill:#fd0;}</style></defs><path class="a" d="M20.025,6.915v6.05h7.312V20.29h6.05V6.915Z"/><path class="b" d="M68.214,39.145H43v26.64A13.41,13.41,0,0,0,56.41,79.2H83.05V39.145Zm8.171,20v.028H70.361V51.834H63.026V45.81H76.385Z" transform="translate(-43 -38.881)"/><path class="a" d="M155.7,62.346h-3.558V79.221H155.7V62.349Zm-18.592,0h-3.587V79.221h3.587V72.242h7.078v6.979h3.562V62.346h-1.742a1.821,1.821,0,0,0-1.82,1.82v4.8h-7.078Zm-25.949,0H107.6V79.221h3.562Zm-13.8,3.3c2.48,0,3.656.722,3.656,2.431,0,1.662-1.228,2.5-3.656,2.5H94.732V65.643Zm.626-3.3H91.145V79.221h3.587V73.877h3.25a6.934,6.934,0,0,0,4.763-1.613A5.4,5.4,0,0,0,104.574,68a5.1,5.1,0,0,0-1.806-4.116,7.07,7.07,0,0,0-4.791-1.541m3.365-11.554c0,1.42-1.035,1.95-3.031,1.95H94.731v-3.8h3.681c1.95,0,2.935.626,2.935,1.852m-.409-6.592c0,1.154-.938,1.732-2.791,1.732H94.731V42.467H98c2.094,0,2.935.456,2.935,1.732m1.876,3.055a4.151,4.151,0,0,0,1.733-3.416c0-3.007-2.285-4.668-5.822-4.668h-7.58V56.038h7.989a6.314,6.314,0,0,0,4.209-1.347,4.47,4.47,0,0,0,1.613-3.586,4.565,4.565,0,0,0-2.142-3.85m13.957,2.286h-4.186l2.094-5.51Zm2.5,6.5h3.705l-6.14-15.711a1.818,1.818,0,0,0-1.694-1.156H112.97l-6.593,16.867h3.705l1.324-3.323h6.521Zm3.979,6.043a8.738,8.738,0,0,0-6.309,2.407,8.7,8.7,0,0,0,6.425,15,8.429,8.429,0,0,0,6.861-3.177l-2.384-2.528a5.418,5.418,0,0,1-4.574,2.359,5.062,5.062,0,0,1-3.683-1.446,5.279,5.279,0,0,1-1.493-3.948,5.11,5.11,0,0,1,1.493-3.877,4.9,4.9,0,0,1,3.49-1.446,5.487,5.487,0,0,1,3.387,1.138,1.809,1.809,0,0,0,2.394-.178l1.108-1.128a8.216,8.216,0,0,0-6.717-3.177m13.788-6.043h3.252V39.171h-3.558V50.6l-6.281-10.542a1.818,1.818,0,0,0-1.562-.886h-3.273V56.038H129.2V44.659l6.28,10.5a1.821,1.821,0,0,0,1.561.886m11.68-4.524a5.282,5.282,0,0,1-1.492-3.946,5.117,5.117,0,0,1,1.492-3.877,4.9,4.9,0,0,1,3.489-1.44,5.477,5.477,0,0,1,3.42,1.163,1.782,1.782,0,0,0,2.358-.2l1.108-1.127a8.212,8.212,0,0,0-6.713-3.176,8.738,8.738,0,0,0-6.3,2.406,8.3,8.3,0,0,0-2.527,6.328,8.23,8.23,0,0,0,2.527,6.28,9.07,9.07,0,0,0,6.425,2.383,8.427,8.427,0,0,0,6.858-3.176l-2.383-2.527a5.418,5.418,0,0,1-4.572,2.358,5.066,5.066,0,0,1-3.682-1.44m14.655,10.831h-3.276V79.221h3.587V67.834l6.273,10.5a1.817,1.817,0,0,0,1.561.886h3.253V62.346h-3.562V73.781l-6.284-10.547a1.819,1.819,0,0,0-1.563-.886m11.52-14.753a5.509,5.509,0,0,1-1.371,3.8,4.561,4.561,0,0,1-3.634,1.541A4.677,4.677,0,0,1,166.18,51.4a5.925,5.925,0,0,1,0-7.579,4.744,4.744,0,0,1,3.705-1.54,4.615,4.615,0,0,1,3.586,1.564,5.4,5.4,0,0,1,1.42,3.754M176,53.85a8.4,8.4,0,0,0,2.527-6.255,8.29,8.29,0,0,0-2.527-6.2,8.688,8.688,0,1,0,0,12.464M183.217,74.7a5.279,5.279,0,0,1-1.492-3.948,5.109,5.109,0,0,1,1.492-3.877,4.9,4.9,0,0,1,3.49-1.44,5.481,5.481,0,0,1,3.42,1.155,1.785,1.785,0,0,0,2.359-.2l1.108-1.128a8.216,8.216,0,0,0-6.716-3.177,8.74,8.74,0,0,0-6.31,2.4,8.7,8.7,0,0,0,6.425,15,8.427,8.427,0,0,0,6.861-3.178l-2.383-2.527A5.421,5.421,0,0,1,186.9,76.14a5.065,5.065,0,0,1-3.683-1.446M207.8,79.221h3.564V62.346h-1.746a1.821,1.821,0,0,0-1.821,1.82v4.8h-7.077v-6.62h-3.588V79.221h3.588V72.242H207.8Zm16.825-6.5h-4.189l2.095-5.513Zm6.211,6.5L224.7,63.5A1.82,1.82,0,0,0,223,62.346h-2.177l-6.594,16.875h3.708l1.324-3.323h6.525l1.348,3.323Z" transform="translate(-37.813 -38.907)"/></svg>