<?xml version="1.0" encoding="iso-8859-1"?>
<!-- Generator: Adobe Illustrator 19.0.0, SVG Export Plug-In . SVG Version: 6.00 Build 0)  -->
<svg version="1.1" id="Capa_1" xmlns="http://www.w3.org/2000/svg" xmlns:xlink="http://www.w3.org/1999/xlink" x="0px" y="0px"
	 viewBox="0 0 512 512" style="enable-background:new 0 0 512 512;" xml:space="preserve">
<path style="fill:#303C42;" d="M494.771,295.688C502.854,284.281,512,271.354,512,256c0-15.354-9.146-28.281-17.229-39.688
	c-5.292-7.49-10.313-14.563-12.042-21.063c-1.875-6.969-1.063-15.896-0.229-25.344c1.292-14.333,2.625-29.156-4.771-41.938
	c-7.521-12.979-21.75-19.542-34.313-25.323c-8.5-3.927-16.521-7.625-21.479-12.573c-4.958-4.958-8.667-12.99-12.583-21.5
	C403.563,56.021,397,41.781,384.042,34.281c-12.771-7.385-27.563-6.063-41.958-4.792c-9.438,0.854-18.375,1.635-25.333-0.208
	c-6.5-1.74-13.563-6.75-21.063-12.052C284.292,9.156,271.354,0,256,0c-15.354,0-28.292,9.156-39.688,17.229
	c-7.5,5.302-14.563,10.313-21.063,12.052c-6.979,1.865-15.896,1.052-25.333,0.208c-14.313-1.26-29.167-2.615-41.938,4.781
	c-12.979,7.5-19.542,21.74-25.333,34.292c-3.917,8.51-7.625,16.552-12.583,21.5c-4.958,4.948-12.979,8.656-21.5,12.583
	c-12.542,5.781-26.771,12.344-34.292,25.323c-7.396,12.771-6.063,27.604-4.771,41.938c0.833,9.448,1.646,18.375-0.229,25.333
	c-1.729,6.51-6.75,13.583-12.042,21.073C9.146,227.719,0,240.646,0,256c0,15.354,9.146,28.281,17.229,39.688
	c5.292,7.49,10.313,14.563,12.042,21.063c1.875,6.969,1.063,15.896,0.229,25.344c-1.292,14.333-2.625,29.156,4.771,41.938
	c7.521,12.979,21.75,19.542,34.313,25.323c8.5,3.927,16.521,7.625,21.479,12.573c4.958,4.958,8.667,12.99,12.583,21.5
	c5.792,12.552,12.354,26.792,25.313,34.292c12.771,7.385,27.583,6.063,41.958,4.792c9.438-0.854,18.375-1.646,25.333,0.208
	c6.5,1.74,13.563,6.75,21.063,12.052C227.708,502.844,240.646,512,256,512c15.354,0,28.292-9.156,39.688-17.229
	c7.5-5.302,14.563-10.313,21.063-12.052c6.979-1.865,15.896-1.052,25.333-0.208c14.333,1.292,29.188,2.625,41.938-4.781
	c12.979-7.5,19.542-21.74,25.333-34.292c3.917-8.51,7.625-16.552,12.583-21.5c4.958-4.948,12.979-8.656,21.5-12.583
	c12.542-5.781,26.771-12.344,34.292-25.323c7.396-12.771,6.063-27.604,4.771-41.938c-0.833-9.448-1.646-18.375,0.229-25.333
	C484.458,310.25,489.479,303.177,494.771,295.688z"/>
<path style="fill:#0288D1;" d="M477.354,283.354c-6.146,8.698-12.521,17.698-15.25,27.896c-2.833,10.615-1.813,21.865-0.854,32.75
	c1.042,11.531,2.021,22.427-1.979,29.354c-4.125,7.115-14.146,11.74-24.771,16.635c-9.833,4.531-20,9.219-27.646,16.865
	c-7.646,7.646-12.333,17.813-16.875,27.656c-4.896,10.615-9.521,20.635-16.646,24.76c-6.896,4.021-17.771,3.042-29.354,1.99
	c-10.854-0.969-22.125-2-32.729,0.854c-10.208,2.729-19.188,9.094-27.896,15.25c-9.646,6.844-18.792,13.302-27.354,13.302
	s-17.708-6.458-27.354-13.302c-8.708-6.156-17.688-12.521-27.896-15.25c-5.208-1.396-10.563-1.854-15.938-1.854
	c-5.604,0-11.25,0.5-16.813,1c-11.583,1.031-22.458,1.979-29.354-2c-7.104-4.125-11.729-14.146-16.625-24.76
	c-4.542-9.844-9.229-20.01-16.875-27.656C97.5,399.198,87.333,394.51,77.5,389.99c-10.604-4.896-20.646-9.521-24.771-16.635
	c-4-6.938-3.021-17.823-1.979-29.354c0.958-10.885,1.979-22.135-0.854-32.76c-2.729-10.188-9.104-19.188-15.25-27.885
	c-6.854-9.656-13.313-18.792-13.313-27.354s6.458-17.698,13.313-27.354c6.146-8.698,12.521-17.698,15.25-27.896
	c2.833-10.615,1.813-21.865,0.854-32.75c-1.042-11.531-2.021-22.427,1.979-29.354c4.125-7.115,14.146-11.74,24.771-16.635
	c9.833-4.531,20-9.219,27.646-16.865s12.333-17.813,16.875-27.656c4.896-10.615,9.521-20.635,16.646-24.76
	c6.875-4.01,17.792-3.031,29.354-1.99c10.833,0.969,22.125,1.99,32.729-0.854c10.208-2.729,19.188-9.094,27.896-15.25
	c9.646-6.844,18.792-13.302,27.354-13.302s17.708,6.458,27.354,13.302c8.708,6.156,17.688,12.521,27.896,15.25
	c10.625,2.844,21.854,1.833,32.75,0.854c11.542-1.031,22.417-2.021,29.354,2c7.104,4.125,11.729,14.146,16.625,24.76
	c4.542,9.844,9.229,20.01,16.875,27.656c7.646,7.646,17.813,12.333,27.646,16.854c10.604,4.896,20.646,9.521,24.771,16.635
	c4,6.938,3.021,17.823,1.979,29.354c-0.958,10.885-1.979,22.135,0.854,32.76c2.729,10.188,9.104,19.188,15.25,27.885
	c6.854,9.656,13.313,18.792,13.313,27.354S484.208,273.698,477.354,283.354z"/>
<path style="opacity:0.2;fill:#FFFFFF;enable-background:new    ;" d="M165.318,459.26c-5.49-4.125-9.064-14.146-12.848-24.76
	c-3.509-9.844-7.132-20.01-13.039-27.656c-5.909-7.646-13.764-12.333-21.363-16.854c-8.194-4.896-15.953-9.521-19.141-16.635
	c-3.091-6.938-2.335-17.823-1.53-29.354c0.741-10.885,1.53-22.135-0.659-32.76c-2.109-10.188-7.035-19.188-11.785-27.885
	c-5.296-9.656-10.286-18.792-10.286-27.354s4.991-17.698,10.286-27.354c4.75-8.698,9.676-17.698,11.785-27.896
	c2.189-10.615,1.4-21.865,0.659-32.75c-0.805-11.531-1.561-22.427,1.53-29.354c3.188-7.115,10.931-11.74,19.141-16.635
	c7.599-4.531,15.454-9.219,21.363-16.865c5.908-7.646,9.53-17.813,13.039-27.656c3.784-10.615,7.358-20.635,12.863-24.76
	c1.164-0.879,2.533-1.432,3.969-1.884c-0.424-0.038-0.858-0.068-1.281-0.105c-11.563-1.042-22.479-2.021-29.354,1.99
	c-7.125,4.125-11.75,14.146-16.646,24.76c-4.542,9.844-9.229,20.01-16.875,27.656S87.333,117.479,77.5,122.01
	c-10.625,4.896-20.646,9.521-24.771,16.635c-4,6.927-3.021,17.823-1.979,29.354c0.958,10.885,1.979,22.135-0.854,32.75
	c-2.729,10.198-9.104,19.198-15.25,27.896c-6.854,9.656-13.313,18.792-13.313,27.354s6.458,17.698,13.313,27.354
	c6.146,8.698,12.521,17.698,15.25,27.885c2.833,10.625,1.813,21.875,0.854,32.76c-1.042,11.531-2.021,22.417,1.979,29.354
	c4.125,7.115,14.167,11.74,24.771,16.635c9.833,4.521,20,9.208,27.646,16.854c7.646,7.646,12.333,17.813,16.875,27.656
	c4.896,10.615,9.521,20.635,16.625,24.76c6.896,3.979,17.771,3.031,29.354,2c0.458-0.042,0.927-0.042,1.387-0.082
	C167.91,460.727,166.513,460.154,165.318,459.26z"/>
<path style="opacity:0.1;enable-background:new    ;" d="M477.354,283.354c6.854-9.656,13.313-18.792,13.313-27.354
	s-6.458-17.698-13.313-27.354c-6.146-8.698-12.521-17.698-15.25-27.885c-2.833-10.625-1.813-21.875-0.854-32.76
	c1.042-11.531,2.021-22.417-1.979-29.354c-4.125-7.115-14.167-11.74-24.771-16.635c-9.833-4.521-20-9.208-27.646-16.854
	c-7.646-7.646-12.333-17.813-16.875-27.656c-4.896-10.615-9.521-20.635-16.625-24.76c-6.938-4.021-17.813-3.031-29.354-2
	c-0.436,0.039-0.879,0.07-1.315,0.109c1.444,0.453,2.82,1.008,3.997,1.891c5.49,4.125,9.064,14.146,12.848,24.76
	c3.509,9.844,7.132,20.01,13.039,27.656c5.909,7.646,13.764,12.333,21.363,16.854c8.194,4.896,15.953,9.521,19.141,16.635
	c3.091,6.938,2.335,17.823,1.53,29.354c-0.741,10.885-1.53,22.135,0.659,32.76c2.109,10.188,7.035,19.188,11.785,27.885
	c5.296,9.656,10.286,18.792,10.286,27.354s-4.991,17.698-10.286,27.354c-4.75,8.698-9.676,17.698-11.785,27.896
	c-2.189,10.615-1.4,21.865-0.659,32.75c0.805,11.531,1.561,22.427-1.53,29.354c-3.188,7.115-10.931,11.74-19.141,16.635
	c-7.599,4.531-15.454,9.219-21.363,16.865c-5.908,7.646-9.53,17.813-13.039,27.656c-3.784,10.615-7.358,20.635-12.863,24.76
	c-1.164,0.879-2.533,1.431-3.965,1.884c0.423,0.038,0.855,0.068,1.277,0.105c11.583,1.052,22.458,2.031,29.354-1.99
	c7.125-4.125,11.75-14.146,16.646-24.76c4.542-9.844,9.229-20.01,16.875-27.656c7.646-7.646,17.813-12.333,27.646-16.865
	c10.625-4.896,20.646-9.521,24.771-16.635c4-6.927,3.021-17.823,1.979-29.354c-0.958-10.885-1.979-22.135,0.854-32.75
	C464.833,301.052,471.208,292.052,477.354,283.354z"/>
<g>
	<path style="fill:#303C42;" d="M278.625,278.625L256,301.26l-15.087-15.09L256,271.083c4.167-4.167,4.167-10.917,0-15.083
		c-4.167-4.167-10.917-4.167-15.083,0l-15.085,15.085L210.75,256l22.625-22.625c4.167-4.167,4.167-10.917,0-15.083
		c-4.167-4.167-10.917-4.167-15.083,0l-30.167,30.167c-4.167,4.167-4.167,10.917,0,15.083l60.333,60.344
		c2,2,4.708,3.125,7.542,3.125c2.833,0,5.542-1.125,7.542-3.125l30.167-30.177c4.167-4.167,4.167-10.917,0-15.083
		C289.542,274.458,282.792,274.458,278.625,278.625z"/>
	<path style="fill:#303C42;" d="M188.125,293.698c-12.542-12.49-32.813-12.438-45.271,0.01l-15.083,15.094
		c-4.167,4.167-4.167,10.917,0,15.083l60.354,60.333c2.083,2.083,4.813,3.125,7.542,3.125s5.458-1.042,7.542-3.125
		c4.167-4.167,4.167-10.917,0-15.083l-52.813-52.792l7.542-7.542c4.146-4.156,10.917-4.167,15.104-0.01l45.25,45.26
		c4.167,4.167,10.917,4.167,15.083,0c4.167-4.167,4.167-10.917,0-15.083L188.125,293.698z"/>
	<path style="fill:#303C42;" d="M323.875,127.781c-4.167-4.167-10.917-4.167-15.083,0c-4.167,4.167-4.167,10.917,0,15.083
		l45.271,45.24c4.146,4.167,4.146,10.948,0,15.094c-4.146,4.156-10.917,4.167-15.104,0.01l-45.25-45.26
		c-4.167-4.167-10.917-4.167-15.083,0c-2.083,2.083-3.125,4.813-3.125,7.542c0,2.729,1.042,5.458,3.125,7.542l45.25,45.271
		c2.021,2,3.125,4.677,3.125,7.531c0,2.844-1.104,5.521-3.125,7.542c-4.167,4.167-10.917,4.167-15.083,0l-45.25-45.26
		c-4.167-4.167-10.917-4.167-15.083,0c-4.167,4.167-4.167,10.917,0,15.083l45.25,45.26c6.042,6.042,14.083,9.375,22.625,9.375
		s16.583-3.333,22.625-9.375c5.625-5.625,8.896-12.979,9.333-20.865c7.583-0.417,15.063-3.521,20.854-9.313
		c12.458-12.469,12.458-32.771,0-45.25L323.875,127.781z"/>
</g>
<linearGradient id="SVGID_1_" gradientUnits="userSpaceOnUse" x1="-45.5446" y1="639.5422" x2="-23.8616" y2="629.4266" gradientTransform="matrix(21.3333 0 0 -21.3333 996.3334 13791.667)">
	<stop  offset="0" style="stop-color:#FFFFFF;stop-opacity:0.2"/>
	<stop  offset="1" style="stop-color:#FFFFFF;stop-opacity:0"/>
</linearGradient>
<path style="fill:url(#SVGID_1_);" d="M494.771,295.688C502.854,284.281,512,271.354,512,256c0-15.354-9.146-28.281-17.229-39.688
	c-5.292-7.49-10.313-14.563-12.042-21.063c-1.875-6.969-1.063-15.896-0.229-25.344c1.292-14.333,2.625-29.156-4.771-41.938
	c-7.521-12.979-21.75-19.542-34.313-25.323c-8.5-3.927-16.521-7.625-21.479-12.573c-4.958-4.958-8.667-12.99-12.583-21.5
	C403.563,56.021,397,41.781,384.042,34.281c-12.771-7.385-27.563-6.063-41.958-4.792c-9.438,0.854-18.375,1.635-25.333-0.208
	c-6.5-1.74-13.563-6.75-21.063-12.052C284.292,9.156,271.354,0,256,0c-15.354,0-28.292,9.156-39.688,17.229
	c-7.5,5.302-14.563,10.313-21.063,12.052c-6.979,1.865-15.896,1.052-25.333,0.208c-14.313-1.26-29.167-2.615-41.938,4.781
	c-12.979,7.5-19.542,21.74-25.333,34.292c-3.917,8.51-7.625,16.552-12.583,21.5c-4.958,4.948-12.979,8.656-21.5,12.583
	c-12.542,5.781-26.771,12.344-34.292,25.323c-7.396,12.771-6.063,27.604-4.771,41.938c0.833,9.448,1.646,18.375-0.229,25.333
	c-1.729,6.51-6.75,13.583-12.042,21.073C9.146,227.719,0,240.646,0,256c0,15.354,9.146,28.281,17.229,39.688
	c5.292,7.49,10.313,14.563,12.042,21.063c1.875,6.969,1.063,15.896,0.229,25.344c-1.292,14.333-2.625,29.156,4.771,41.938
	c7.521,12.979,21.75,19.542,34.313,25.323c8.5,3.927,16.521,7.625,21.479,12.573c4.958,4.958,8.667,12.99,12.583,21.5
	c5.792,12.552,12.354,26.792,25.313,34.292c12.771,7.385,27.583,6.063,41.958,4.792c9.438-0.854,18.375-1.646,25.333,0.208
	c6.5,1.74,13.563,6.75,21.063,12.052C227.708,502.844,240.646,512,256,512c15.354,0,28.292-9.156,39.688-17.229
	c7.5-5.302,14.563-10.313,21.063-12.052c6.979-1.865,15.896-1.052,25.333-0.208c14.333,1.292,29.188,2.625,41.938-4.781
	c12.979-7.5,19.542-21.74,25.333-34.292c3.917-8.51,7.625-16.552,12.583-21.5c4.958-4.948,12.979-8.656,21.5-12.583
	c12.542-5.781,26.771-12.344,34.292-25.323c7.396-12.771,6.063-27.604,4.771-41.938c-0.833-9.448-1.646-18.375,0.229-25.333
	C484.458,310.25,489.479,303.177,494.771,295.688z"/>
<g>
</g>
<g>
</g>
<g>
</g>
<g>
</g>
<g>
</g>
<g>
</g>
<g>
</g>
<g>
</g>
<g>
</g>
<g>
</g>
<g>
</g>
<g>
</g>
<g>
</g>
<g>
</g>
<g>
</g>
</svg>
