<?xml version="1.0" encoding="utf-8"?>
<!-- Generator: Adobe Illustrator 25.2.0, SVG Export Plug-In . SVG Version: 6.00 Build 0)  -->
<svg version="1.1" id="Capa_7" xmlns="http://www.w3.org/2000/svg" xmlns:xlink="http://www.w3.org/1999/xlink" x="0px" y="0px"
	 viewBox="0 0 83 54" style="enable-background:new 0 0 83 54;" xml:space="preserve">
<style type="text/css">
	.st0{fill:#C6B138;}
	.st1{enable-background:new    ;}
	.st2{fill:#FFFFFF;}
	.st3{opacity:0.45;}
	.st4{fill:#494848;}
	.st5{fill:#A2A2A2;}
	.st6{fill:#C4C4C4;}
	.st7{opacity:0.32;enable-background:new    ;}
	.st8{fill:#C9C9C9;}
</style>
<g>
	<g>
		<g id="card_3_" transform="translate(-443 -254.223)">
			<g transform="matrix(1, 0, 0, 1, 443, 254.22)">
				<g id="Rectángulo_32-2_3_">
					<path class="st0" d="M7.2,1.7l70.2,0.4c2,0,3.6,1.6,3.5,3.6l-0.3,43.6c0,2-1.6,3.6-3.6,3.5L6.9,52.4c-2,0-3.6-1.6-3.5-3.6
						L3.6,5.2C3.7,3.2,5.3,1.7,7.2,1.7z"/>
				</g>
			</g>
			<g transform="matrix(1, 0, 0, 1, 443, 254.22)">
				<g class="st1">
					<path d="M11,47.8c-0.1,0-0.2,0-0.3-0.1l0-0.3c0.1,0,0.2,0,0.3,0c0.1,0,0.3,0,0.3-0.1c0.1-0.1,0.1-0.2,0.1-0.4l0-3.2l0.4,0
						l0,3.2c0,0.3-0.1,0.5-0.2,0.6C11.4,47.7,11.2,47.8,11,47.8z"/>
					<path d="M14.7,45.8c0,0.4-0.1,0.7-0.3,0.9c-0.2,0.2-0.5,0.3-0.8,0.3c-0.2,0-0.4-0.1-0.6-0.2s-0.3-0.2-0.4-0.4
						c-0.1-0.2-0.1-0.4-0.1-0.7c0-0.4,0.1-0.7,0.3-0.9s0.5-0.3,0.8-0.3c0.3,0,0.6,0.1,0.8,0.3S14.7,45.4,14.7,45.8z M12.8,45.7
						c0,0.3,0.1,0.5,0.2,0.7c0.1,0.2,0.3,0.2,0.5,0.2c0.2,0,0.4-0.1,0.5-0.2c0.1-0.2,0.2-0.4,0.2-0.7c0-0.3-0.1-0.5-0.2-0.7
						c-0.1-0.2-0.3-0.2-0.5-0.2c-0.2,0-0.4,0.1-0.5,0.2C12.9,45.2,12.8,45.4,12.8,45.7z"/>
					<path d="M17,47l0-1.6c0-0.2,0-0.3-0.1-0.4c-0.1-0.1-0.2-0.1-0.4-0.1c-0.3,0-0.4,0.1-0.6,0.2c-0.1,0.1-0.2,0.4-0.2,0.7l0,1.3
						l-0.4,0l0-3.4l0.4,0l0,1c0,0.1,0,0.2,0,0.3h0c0.1-0.1,0.2-0.2,0.3-0.3c0.1-0.1,0.3-0.1,0.5-0.1c0.3,0,0.5,0.1,0.7,0.2
						c0.1,0.1,0.2,0.4,0.2,0.7l0,1.6L17,47z"/>
					<path d="M19.7,47l0-1.6c0-0.2,0-0.3-0.1-0.4c-0.1-0.1-0.2-0.1-0.4-0.1c-0.3,0-0.4,0.1-0.6,0.2c-0.1,0.1-0.2,0.4-0.2,0.7l0,1.3
						l-0.4,0l0-2.4l0.3,0l0.1,0.3l0,0c0.1-0.1,0.2-0.2,0.3-0.3c0.1-0.1,0.3-0.1,0.5-0.1c0.3,0,0.5,0.1,0.7,0.2
						c0.1,0.1,0.2,0.4,0.2,0.7l0,1.6L19.7,47z"/>
					<path d="M23.9,46.2c0,0.3-0.1,0.5-0.3,0.7c-0.2,0.2-0.5,0.2-0.8,0.2c-0.4,0-0.7-0.1-0.9-0.2l0-0.4c0.1,0.1,0.3,0.1,0.4,0.1
						c0.2,0,0.3,0,0.5,0.1c0.3,0,0.4,0,0.6-0.1c0.1-0.1,0.2-0.2,0.2-0.4c0-0.1,0-0.2-0.1-0.3c0-0.1-0.1-0.1-0.2-0.2
						c-0.1-0.1-0.3-0.1-0.5-0.2c-0.3-0.1-0.5-0.2-0.6-0.4c-0.1-0.1-0.2-0.3-0.2-0.6c0-0.2,0.1-0.4,0.3-0.6c0.2-0.1,0.4-0.2,0.7-0.2
						c0.3,0,0.6,0.1,0.9,0.2l-0.1,0.3c-0.3-0.1-0.5-0.2-0.8-0.2c-0.2,0-0.4,0-0.5,0.1c-0.1,0.1-0.2,0.2-0.2,0.4c0,0.1,0,0.2,0.1,0.3
						c0,0.1,0.1,0.1,0.2,0.2c0.1,0.1,0.2,0.1,0.4,0.2c0.3,0.1,0.6,0.3,0.7,0.4C23.9,45.8,23.9,45.9,23.9,46.2z"/>
					<path d="M27.6,47l0-1.6c0-0.2,0-0.3-0.1-0.4c-0.1-0.1-0.2-0.1-0.4-0.1c-0.2,0-0.4,0.1-0.5,0.2c-0.1,0.1-0.2,0.3-0.2,0.6l0,1.4
						l-0.4,0l0-1.6c0-0.2,0-0.3-0.1-0.4c-0.1-0.1-0.2-0.1-0.4-0.1c-0.2,0-0.4,0.1-0.5,0.2c-0.1,0.1-0.2,0.4-0.2,0.7l0,1.3l-0.4,0
						l0-2.4l0.3,0l0.1,0.3h0c0.1-0.1,0.2-0.2,0.3-0.3c0.1-0.1,0.3-0.1,0.4-0.1c0.4,0,0.6,0.1,0.7,0.4h0c0.1-0.1,0.2-0.2,0.3-0.3
						c0.1-0.1,0.3-0.1,0.5-0.1c0.3,0,0.5,0.1,0.6,0.2c0.1,0.1,0.2,0.4,0.2,0.7l0,1.6L27.6,47z"/>
					<path d="M28.7,44c0-0.1,0-0.1,0.1-0.2c0,0,0.1-0.1,0.2-0.1c0.1,0,0.1,0,0.2,0.1c0,0,0.1,0.1,0.1,0.2c0,0.1,0,0.1-0.1,0.2
						s-0.1,0.1-0.2,0.1c-0.1,0-0.1,0-0.2-0.1C28.7,44.1,28.7,44.1,28.7,44z M29.1,47.1l-0.4,0l0-2.4l0.4,0L29.1,47.1z"/>
					<path d="M30.7,46.8c0.1,0,0.1,0,0.2,0c0.1,0,0.1,0,0.1,0l0,0.3c0,0-0.1,0-0.2,0c-0.1,0-0.1,0-0.2,0c-0.5,0-0.7-0.3-0.7-0.7
						l0-1.4l-0.3,0l0-0.2l0.3-0.2l0.2-0.5l0.2,0l0,0.6l0.7,0l0,0.3l-0.7,0l0,1.4c0,0.1,0,0.3,0.1,0.3C30.4,46.8,30.5,46.8,30.7,46.8
						z"/>
					<path d="M33.1,47.1l0-1.6c0-0.2,0-0.3-0.1-0.4c-0.1-0.1-0.2-0.1-0.4-0.1c-0.3,0-0.4,0.1-0.6,0.2c-0.1,0.1-0.2,0.4-0.2,0.7
						l0,1.3l-0.4,0l0-3.4l0.4,0l0,1c0,0.1,0,0.2,0,0.3l0,0c0.1-0.1,0.2-0.2,0.3-0.3c0.1-0.1,0.3-0.1,0.5-0.1c0.3,0,0.5,0.1,0.7,0.2
						c0.1,0.1,0.2,0.4,0.2,0.7l0,1.6L33.1,47.1z"/>
				</g>
			</g>
			<g id="visa-electron-seeklogo.com_3_" transform="translate(681.474 421.49)">
				<g id="Trazado_1_3_">
					<path class="st2" d="M-174.6-126.8l-2,4.8l-1.3,0l-1-3.8c0-0.2-0.1-0.3-0.3-0.4c-0.4-0.2-0.8-0.3-1.2-0.4l0-0.1l2.1,0
						c0.3,0,0.5,0.2,0.6,0.5l0.5,2.8l1.3-3.2L-174.6-126.8z M-172.8-126.7l-1.1,4.8l-1.2,0l1.1-4.8L-172.8-126.7z M-169.5-123.5
						c0-1.3-1.7-1.3-1.7-1.9c0-0.2,0.2-0.4,0.5-0.4c0.4,0,0.8,0,1.2,0.2l0.2-1c-0.4-0.1-0.8-0.2-1.2-0.2c-1.2,0-2.1,0.6-2.1,1.6
						c0,0.7,0.6,1.1,1.1,1.3c0.5,0.2,0.6,0.4,0.6,0.6c0,0.3-0.4,0.5-0.7,0.5c-0.4,0-0.9-0.1-1.3-0.3l-0.2,1c0.4,0.2,0.9,0.3,1.4,0.3
						C-170.4-121.9-169.5-122.5-169.5-123.5L-169.5-123.5z M-166.3-121.9l1.1,0l-1-4.8l-1.1,0c-0.2,0-0.4,0.1-0.5,0.3l-1.9,4.4
						l1.3,0l0.3-0.7l1.6,0L-166.3-121.9z M-167.7-123.6l0.7-1.8l0.4,1.8L-167.7-123.6z"/>
				</g>
				<g class="st1">
					<path class="st2" d="M-170.2-120.5c-0.1,0-0.2,0-0.3,0.1c-0.1,0.1-0.1,0.2-0.1,0.3c0,0.1,0,0.3,0.1,0.3
						c0.1,0.1,0.2,0.1,0.3,0.1c0.1,0,0.2,0,0.3,0l0,0.1c-0.1,0-0.2,0-0.3,0c-0.2,0-0.3-0.1-0.4-0.2c-0.1-0.1-0.1-0.2-0.1-0.4
						c0-0.1,0-0.2,0.1-0.3c0-0.1,0.1-0.2,0.2-0.2c0.1,0,0.2-0.1,0.3-0.1c0.1,0,0.2,0,0.3,0.1l-0.1,0.1
						C-170-120.5-170.1-120.5-170.2-120.5z"/>
					<path class="st2" d="M-169.3-120.3C-169.3-120.3-169.2-120.3-169.3-120.3l0.1,0.1c0,0-0.1,0-0.1,0c-0.1,0-0.1,0-0.2,0.1
						c0,0.1-0.1,0.1-0.1,0.2l0,0.4l-0.1,0l0-0.8l0.1,0l0,0.2h0c0-0.1,0.1-0.1,0.1-0.1C-169.4-120.3-169.4-120.3-169.3-120.3z"/>
					<path class="st2" d="M-168.7-119.5c-0.1,0-0.2,0-0.3-0.1c-0.1-0.1-0.1-0.2-0.1-0.3s0-0.2,0.1-0.3c0.1-0.1,0.2-0.1,0.3-0.1
						c0.1,0,0.2,0,0.2,0.1c0.1,0.1,0.1,0.2,0.1,0.3v0.1l-0.6,0c0,0.1,0,0.2,0.1,0.2c0,0.1,0.1,0.1,0.2,0.1c0.1,0,0.2,0,0.3-0.1
						l0,0.1c0,0-0.1,0-0.1,0C-168.6-119.5-168.6-119.5-168.7-119.5z M-168.7-120.2c-0.1,0-0.1,0-0.2,0.1c0,0-0.1,0.1-0.1,0.2l0.4,0
						c0-0.1,0-0.1-0.1-0.2C-168.6-120.2-168.7-120.2-168.7-120.2z M-168.8-120.4c0,0,0.1-0.1,0.1-0.1c0,0,0.1-0.1,0.1-0.1l0.2,0v0
						c0,0-0.1,0.1-0.1,0.1C-168.7-120.5-168.7-120.4-168.8-120.4L-168.8-120.4L-168.8-120.4z"/>
					<path class="st2" d="M-167.6-119.6L-167.6-119.6c-0.1,0.1-0.2,0.1-0.3,0.1c-0.1,0-0.2,0-0.3-0.1c-0.1-0.1-0.1-0.2-0.1-0.3
						c0-0.1,0-0.2,0.1-0.3c0.1-0.1,0.1-0.1,0.3-0.1c0.1,0,0.2,0,0.3,0.1h0l0-0.1l0-0.1l0-0.3l0.1,0l0,1.2l-0.1,0L-167.6-119.6z
						 M-167.8-119.6c0.1,0,0.1,0,0.2-0.1c0,0,0.1-0.1,0.1-0.2v0c0-0.1,0-0.2-0.1-0.3c0,0-0.1-0.1-0.2-0.1c-0.1,0-0.1,0-0.2,0.1
						c0,0.1-0.1,0.1-0.1,0.2c0,0.1,0,0.2,0.1,0.2C-168-119.6-167.9-119.6-167.8-119.6z"/>
					<path class="st2" d="M-167.2-120.5C-167.2-120.6-167.2-120.6-167.2-120.5C-167.1-120.6-167.1-120.6-167.2-120.5
						c0.1-0.1,0.1-0.1,0.1-0.1c0,0,0,0,0,0.1c0,0,0,0,0,0.1S-167.1-120.4-167.2-120.5C-167.1-120.4-167.1-120.4-167.2-120.5
						C-167.2-120.5-167.2-120.5-167.2-120.5z M-167-119.5l-0.1,0l0-0.8l0.1,0L-167-119.5z"/>
					<path class="st2" d="M-166.5-119.6C-166.4-119.6-166.4-119.6-166.5-119.6c0.1,0,0.1,0,0.1,0l0,0.1
						C-166.4-119.5-166.4-119.5-166.5-119.6c0,0.1,0,0.1,0,0.1c-0.2,0-0.2-0.1-0.2-0.3l0-0.5l-0.1,0v-0.1l0.1-0.1l0.1-0.2h0.1l0,0.2
						l0.2,0l0,0.1l-0.2,0l0,0.5C-166.6-119.7-166.6-119.6-166.5-119.6C-166.5-119.6-166.5-119.6-166.5-119.6z"/>
					<path class="st2" d="M-165.4-119.9c0,0.1,0,0.2-0.1,0.3c-0.1,0.1-0.2,0.1-0.3,0.1c-0.1,0-0.1,0-0.2-0.1c-0.1,0-0.1-0.1-0.1-0.2
						c0-0.1,0-0.1,0-0.2c0-0.1,0-0.2,0.1-0.3c0.1-0.1,0.2-0.1,0.3-0.1c0.1,0,0.2,0,0.3,0.1C-165.5-120.1-165.4-120-165.4-119.9z
						 M-166.1-119.9c0,0.1,0,0.2,0.1,0.2s0.1,0.1,0.2,0.1s0.1,0,0.2-0.1c0-0.1,0.1-0.1,0.1-0.2s0-0.2-0.1-0.2s-0.1-0.1-0.2-0.1
						c-0.1,0-0.1,0-0.2,0.1C-166.1-120.1-166.1-120-166.1-119.9z"/>
				</g>
			</g>
			<g id="Enmascarar_grupo_1_3_" transform="translate(-4298 375.223)" class="st3">
				<g id="Grupo_7_3_" transform="translate(0 -7.318)">
					<g id="Trazado_33_3_">
						<path class="st4" d="M4803.3-99.9c0,0-52.8,38.5-55.9,38.6c-3-0.4-3-3.1-3-3.1l0.3-43.7c0,0,0-3.4,3.6-3.9
							c1,0,37.2,0.2,37.2,0.2L4803.3-99.9z"/>
					</g>
					<g id="Trazado_34_3_">
						<path class="st4" d="M4818.5-111.6l-15.2,11.6l18.5,12.1c0,0,0.3-20.7,0.3-20C4821.7-111.6,4818.5-111.6,4818.5-111.6z"/>
					</g>
				</g>
			</g>
		</g>
	</g>
	<g id="chip_3_" transform="translate(482 343.223)">
		<g transform="matrix(1, 0, 0, 1, -39, -89)">
			<g id="shadow-2_3_">
				<path class="st2" d="M-430.4-232.8l7.1,0c1.1,0,1.9,0.9,1.9,1.9l0,5.2c0,1.1-0.9,1.9-1.9,1.9l-7.1,0c-1.1,0-1.9-0.9-1.9-1.9
					l0-5.2C-432.3-231.9-431.5-232.8-430.4-232.8z"/>
			</g>
		</g>
		<g id="Grupo_4_3_" transform="translate(0 0)">
			<g id="Grupo_3_3_" transform="translate(0 0)">
				<g id="Grupo_2_3_" transform="translate(0 0)">
					<g id="Rectángulo_4_3_">
						<path class="st5" d="M-469.4-321.8l7.1,0c1.1,0,1.9,0.9,1.9,1.9l0,5.2c0,1.1-0.9,1.9-1.9,1.9l-7.1,0c-1.1,0-1.9-0.9-1.9-1.9
							l0-5.2C-471.3-320.9-470.5-321.8-469.4-321.8z"/>
					</g>
					<g id="Grupo_1_3_" transform="translate(0 0)">
						<g id="Sustracción_1_3_">
							<path class="st6" d="M-460.4-319.1l-11-0.1l0-0.7c0-1.1,0.9-1.9,1.9-1.9l7.1,0c1.1,0,1.9,0.9,1.9,1.9L-460.4-319.1z"/>
						</g>
						<g id="Sustracción_2_3_">
							<path class="st6" d="M-471.4-315.3l11,0.1l0,0.7c0,1.1-0.9,1.9-1.9,1.9l-7.1,0c-1.1,0-1.9-0.9-1.9-1.9L-471.4-315.3z"/>
						</g>
						<g id="Intersección_1_3_">
							<path class="st6" d="M-471.4-315.8l0-2.9l11,0.1l0,2.9L-471.4-315.8z"/>
						</g>
					</g>
				</g>
				<g id="Intersección_2_3_" class="st7">
					<path class="st2" d="M-471.3-319.3l0-0.6c0-1.1,0.9-1.9,1.9-1.9l7.1,0c1.1,0,1.9,0.9,1.9,1.9l0,3.5c-1.1,0.3-2.3,0.5-3.4,0.5
						C-467.3-315.8-470.2-317.3-471.3-319.3z"/>
				</g>
				<g id="Elipse_1_3_" transform="translate(15 5)">
					<g>
						<path class="st8" d="M-480.9-325.5c1.1,0,1.9,1.5,1.9,3.3c0,1.8-0.9,3.3-1.9,3.3c-1.1,0-1.9-1.5-1.9-3.3
							C-482.8-324.1-481.9-325.6-480.9-325.5z"/>
					</g>
					<g>
						<path class="st5" d="M-480.9-318.9C-480.9-318.9-480.9-318.9-480.9-318.9c-0.5,0-1-0.4-1.4-1c-0.3-0.6-0.5-1.4-0.5-2.3
							c0-1.9,0.9-3.3,1.9-3.3c0,0,0,0,0,0l0,0c1.1,0,1.9,1.5,1.9,3.3C-479-320.3-479.8-318.9-480.9-318.9z M-480.9-325.2
							c-0.8,0-1.6,1.4-1.6,3c0,0.8,0.2,1.6,0.5,2.1c0.3,0.5,0.7,0.8,1.1,0.8c0,0,0,0,0,0c0.8,0,1.6-1.4,1.6-3
							C-479.3-323.8-480-325.2-480.9-325.2C-480.9-325.2-480.9-325.2-480.9-325.2z"/>
					</g>
				</g>
			</g>
		</g>
	</g>
	<g id="logo_3_" transform="translate(482 284.751)">
		<g id="Trazado_53_3_">
			<path d="M-467.3-277.2l-3.9,0l0,4.1c0,1.2,0.9,2.1,2.1,2.1l0,0l4.1,0l0-6.2L-467.3-277.2z M-466.1-274L-466.1-274l-0.9,0l0-1.1
				l-1.1,0l0-0.9l2.1,0L-466.1-274z"/>
		</g>
		<g id="Trazado_54_3_">
			<path d="M-452.9-273.5l-0.6,0l0,2.6l0.6,0L-452.9-273.5L-452.9-273.5z M-455.8-273.5l-0.6,0l0,2.6l0.6,0l0-1.1l1.1,0l0,1.1l0.6,0
				l0-2.6l-0.3,0c-0.2,0-0.3,0.1-0.3,0.3l0,0.7l-1.1,0L-455.8-273.5z M-459.8-273.5l-0.6,0l0,2.6l0.6,0L-459.8-273.5z M-462-273
				c0.4,0,0.6,0.1,0.6,0.4c0,0.3-0.2,0.4-0.6,0.4l-0.4,0l0-0.8L-462-273z M-461.9-273.5l-1.1,0l0,2.6l0.6,0l0-0.8l0.5,0
				c0.3,0,0.5-0.1,0.7-0.2c0.2-0.2,0.3-0.4,0.3-0.7c0-0.2-0.1-0.5-0.3-0.6C-461.4-273.4-461.6-273.5-461.9-273.5 M-461.4-275.3
				c0,0.2-0.2,0.3-0.5,0.3l-0.6,0l0-0.6l0.6,0C-461.5-275.6-461.4-275.5-461.4-275.3 M-461.4-276.3c0,0.2-0.1,0.3-0.4,0.3l-0.5,0
				l0-0.5l0.5,0C-461.5-276.6-461.4-276.5-461.4-276.3 M-461.1-275.9c0.2-0.1,0.3-0.3,0.3-0.5c0-0.5-0.4-0.7-0.9-0.7l-1.2,0l0,2.6
				l1.2,0c0.2,0,0.5-0.1,0.7-0.2c0.2-0.1,0.3-0.3,0.3-0.6C-460.8-275.5-460.9-275.7-461.1-275.9 M-459-275.5l-0.7,0l0.3-0.9
				L-459-275.5z M-458.6-274.5l0.6,0l-0.9-2.5c0-0.1-0.1-0.2-0.3-0.2l-0.3,0l-1,2.6l0.6,0l0.2-0.5l1,0L-458.6-274.5z M-458-273.5
				c-0.4,0-0.7,0.1-1,0.4c-0.5,0.5-0.6,1.4-0.1,1.9c0.3,0.3,0.7,0.4,1,0.4c0.4,0,0.8-0.2,1.1-0.5l-0.4-0.4c-0.2,0.2-0.4,0.4-0.7,0.4
				c-0.2,0-0.4-0.1-0.6-0.2c-0.2-0.2-0.2-0.4-0.2-0.6c0-0.2,0.1-0.4,0.2-0.6c0.1-0.1,0.3-0.2,0.5-0.2c0.2,0,0.4,0.1,0.5,0.2
				c0.1,0.1,0.3,0.1,0.4,0l0.2-0.2C-457.2-273.4-457.6-273.5-458-273.5 M-455.8-274.5l0.5,0l0-2.6l-0.6,0l0,1.8l-1-1.6
				c-0.1-0.1-0.1-0.1-0.2-0.1l-0.5,0l0,2.6l0.6,0l0-1.8l1,1.6C-456-274.5-455.9-274.5-455.8-274.5 M-454-275.1
				c-0.2-0.2-0.2-0.4-0.2-0.6c0-0.2,0.1-0.4,0.2-0.6c0.1-0.1,0.3-0.2,0.5-0.2c0.2,0,0.4,0.1,0.5,0.2c0.1,0.1,0.3,0.1,0.4,0l0.2-0.2
				c-0.2-0.3-0.6-0.5-1-0.5c-0.4,0-0.7,0.1-1,0.4c-0.3,0.3-0.4,0.6-0.4,1c0,0.4,0.1,0.7,0.4,1c0.3,0.3,0.6,0.4,1,0.4
				c0.4,0,0.8-0.2,1.1-0.5l-0.4-0.4c-0.2,0.2-0.4,0.4-0.7,0.4C-453.6-274.9-453.8-275-454-275.1 M-451.7-273.4l-0.5,0l0,2.6l0.6,0
				l0-1.8l1,1.6c0.1,0.1,0.1,0.1,0.2,0.1l0.5,0l0-2.6l-0.6,0l0,1.8l-1-1.6C-451.5-273.4-451.6-273.4-451.7-273.4 M-449.9-275.7
				c0,0.2-0.1,0.4-0.2,0.6c-0.1,0.2-0.4,0.2-0.6,0.2c-0.2,0-0.4-0.1-0.6-0.2c-0.3-0.3-0.3-0.8,0-1.2c0.1-0.2,0.4-0.2,0.6-0.2
				c0.2,0,0.4,0.1,0.6,0.2C-450-276.2-449.9-275.9-449.9-275.7 M-449.7-274.8c0.3-0.3,0.4-0.6,0.4-1c0-0.4-0.1-0.7-0.4-1
				c-0.5-0.5-1.4-0.5-1.9,0c-0.5,0.5-0.5,1.4,0,1.9C-451.1-274.3-450.3-274.3-449.7-274.8 M-448.6-271.5c-0.2-0.2-0.2-0.4-0.2-0.6
				c0-0.2,0.1-0.4,0.2-0.6c0.1-0.1,0.3-0.2,0.5-0.2c0.2,0,0.4,0.1,0.5,0.2c0.1,0.1,0.3,0.1,0.4,0l0.2-0.2c-0.2-0.3-0.6-0.5-1-0.5
				c-0.4,0-0.7,0.1-1,0.4c-0.5,0.5-0.6,1.4-0.1,1.9c0.3,0.3,0.7,0.4,1,0.4c0.4,0,0.8-0.2,1.1-0.5l-0.4-0.4c-0.2,0.2-0.4,0.4-0.7,0.4
				C-448.3-271.3-448.5-271.4-448.6-271.5 M-444.8-270.8l0.6,0l0-2.6l-0.3,0c-0.2,0-0.3,0.1-0.3,0.3l0,0.7l-1.1,0l0-1l-0.6,0l0,2.6
				l0.6,0l0-1.1l1.1,0L-444.8-270.8z M-442.2-271.8l-0.7,0l0.3-0.9L-442.2-271.8z M-441.2-270.8l-0.9-2.5c0-0.1-0.1-0.2-0.3-0.2
				l-0.3,0l-1,2.6l0.6,0l0.2-0.5l1,0l0.2,0.5L-441.2-270.8z"/>
		</g>
	</g>
	<g id="wifi-ic_3_" transform="translate(522 277.595)">
		<g id="Grupo_6_3_" transform="translate(12.666 73.842)">
			<g id="Grupo_5_3_" transform="translate(0 0)">
				<g id="Trazado_30_3_">
					<path d="M-510-326.3c-0.1-0.1-0.3-0.1-0.4,0c-0.1,0.1-0.1,0.3,0,0.4c0.3,0.3,0.3,0.9,0,1.2c-0.1,0.1-0.1,0.3,0,0.4
						s0.3,0.1,0.4,0C-509.5-324.8-509.5-325.7-510-326.3z"/>
				</g>
				<g id="Trazado_31_3_">
					<path d="M-509.1-326.9c-0.1-0.1-0.3-0.1-0.4,0c-0.1,0.1-0.1,0.3,0,0.4c0.7,0.7,0.7,1.8,0,2.5c-0.1,0.1-0.1,0.3,0,0.4
						c0.1,0.1,0.3,0.1,0.4,0C-508.2-324.5-508.2-326-509.1-326.9z"/>
				</g>
				<g id="Trazado_32_3_">
					<path d="M-508.2-327.7c-0.1-0.1-0.3-0.1-0.4,0c-0.1,0.1-0.1,0.3,0,0.4c1.2,1.2,1.1,3.1,0,4.2c-0.1,0.1-0.1,0.3,0,0.4
						c0.1,0.1,0.3,0.1,0.4,0C-506.8-324-506.8-326.3-508.2-327.7z"/>
				</g>
			</g>
		</g>
	</g>
</g>
</svg>
