<?xml version="1.0" encoding="utf-8"?>
<!-- Generator: Adobe Illustrator 25.2.0, SVG Export Plug-In . SVG Version: 6.00 Build 0)  -->
<svg version="1.1" id="Capa_7" xmlns="http://www.w3.org/2000/svg" xmlns:xlink="http://www.w3.org/1999/xlink" x="0px" y="0px"
	 viewBox="0 0 83 54" style="enable-background:new 0 0 83 54;" xml:space="preserve">
<style type="text/css">
	.st0{fill:#CCCACA;}
	.st1{font-family:'OpenSans-Regular';}
	.st2{font-size:4.5272px;}
	.st3{fill:#FFFFFF;}
	.st4{font-size:1.5498px;}
	.st5{opacity:0.45;}
	.st6{fill:#494848;}
	.st7{fill:#A2A2A2;}
	.st8{fill:#C4C4C4;}
	.st9{opacity:0.32;fill:#FFFFFF;enable-background:new    ;}
	.st10{fill:#C9C9C9;}
	.st11{fill:none;stroke:#A2A2A2;stroke-width:0.3574;}
</style>
<g>
	<g>
		<g id="card_2_" transform="translate(-443 -254.223)">
			<g transform="matrix(1, 0, 0, 1, 443, 254.22)">
				<path id="Rectángulo_32-2_2_" class="st0" d="M7.4,1.7l70.3,0.4c2,0,3.6,1.6,3.6,3.6L81,49.3c0,2-1.6,3.6-3.6,3.6L7.1,52.4
					c-2,0-3.6-1.6-3.6-3.6L3.8,5.2C3.8,3.3,5.4,1.7,7.4,1.7z"/>
			</g>
			<g transform="matrix(1, 0, 0, 1, 443, 254.22)">
				<text transform="matrix(1 6.280002e-03 -6.280002e-03 1 11.1733 46.9946)" class="st1 st2">John Smith</text>
			</g>
			<g id="visa-electron-seeklogo.com_2_" transform="translate(681.474 421.49)">
				<path id="Trazado_1_2_" class="st3" d="M-174.4-126.7l-2,4.8l-1.3,0l-1-3.8c0-0.2-0.1-0.3-0.3-0.4c-0.4-0.2-0.8-0.3-1.2-0.4
					l0-0.1l2.1,0c0.3,0,0.5,0.2,0.6,0.5l0.5,2.8l1.3-3.3L-174.4-126.7z M-172.6-126.7l-1.1,4.8l-1.2,0l1.1-4.8L-172.6-126.7z
					 M-169.3-123.5c0-1.3-1.7-1.3-1.7-1.9c0-0.2,0.2-0.4,0.5-0.4c0.4,0,0.8,0,1.2,0.2l0.2-1c-0.4-0.1-0.8-0.2-1.2-0.2
					c-1.2,0-2.1,0.6-2.1,1.6c0,0.7,0.6,1.1,1.1,1.3c0.5,0.2,0.6,0.4,0.6,0.6c0,0.3-0.4,0.5-0.7,0.5c-0.4,0-0.9-0.1-1.3-0.3l-0.2,1
					c0.4,0.2,0.9,0.3,1.4,0.3C-170.1-121.8-169.3-122.5-169.3-123.5L-169.3-123.5z M-166-121.9l1.1,0l-1-4.8l-1.1,0
					c-0.2,0-0.4,0.1-0.5,0.3l-1.9,4.4l1.3,0l0.3-0.7l1.6,0L-166-121.9z M-167.4-123.6l0.7-1.8l0.4,1.8L-167.4-123.6z"/>
				<text transform="matrix(1 6.280002e-03 -6.280002e-03 1 -170.5949 -119.4427)" class="st3 st1 st4">Crédito</text>
			</g>
			<g id="Enmascarar_grupo_1_2_" transform="translate(-4298 375.223)" class="st5">
				<g id="Grupo_7_2_" transform="translate(0 -7.318)">
					<path id="Trazado_33_2_" class="st6" d="M4803.5-99.9c0,0-52.9,38.6-55.9,38.6c-3.1-0.4-3-3.1-3-3.1l0.3-43.7
						c0,0,0-3.4,3.6-3.9c1,0,37.2,0.2,37.2,0.2L4803.5-99.9z"/>
					<path id="Trazado_34_2_" class="st6" d="M4818.7-111.6l-15.2,11.6l18.5,12.1c0,0,0.3-20.7,0.3-20.1
						C4821.9-111.5,4818.7-111.6,4818.7-111.6z"/>
				</g>
			</g>
		</g>
	</g>
	<g id="chip_2_" transform="translate(482 343.223)">
		<g transform="matrix(1, 0, 0, 1, -39, -89)">
			<path id="shadow-2_2_" class="st3" d="M-430.2-232.7l7.1,0c1.1,0,1.9,0.9,1.9,1.9l0,5.2c0,1.1-0.9,1.9-1.9,1.9l-7.1,0
				c-1.1,0-1.9-0.9-1.9-1.9l0-5.2C-432.1-231.9-431.3-232.7-430.2-232.7z"/>
		</g>
		<g id="Grupo_4_2_" transform="translate(0 0)">
			<g id="Grupo_3_2_" transform="translate(0 0)">
				<g id="Grupo_2_2_" transform="translate(0 0)">
					<path id="Rectángulo_4_2_" class="st7" d="M-469.2-321.7l7.1,0c1.1,0,1.9,0.9,1.9,1.9l0,5.2c0,1.1-0.9,1.9-1.9,1.9l-7.1,0
						c-1.1,0-1.9-0.9-1.9-1.9l0-5.2C-471.1-320.9-470.3-321.7-469.2-321.7z"/>
					<g id="Grupo_1_2_" transform="translate(0 0)">
						<path id="Sustracción_1_2_" class="st8" d="M-460.2-319.1l-11-0.1l0-0.7c0-1.1,0.9-1.9,1.9-1.9l7.1,0c1.1,0,1.9,0.9,1.9,1.9
							L-460.2-319.1z"/>
						<path id="Sustracción_2_2_" class="st8" d="M-471.2-315.3l11,0.1l0,0.7c0,1.1-0.9,1.9-1.9,1.9l-7.1,0c-1.1,0-1.9-0.9-1.9-1.9
							L-471.2-315.3z"/>
						<path id="Intersección_1_2_" class="st8" d="M-471.2-315.8l0-2.9l11,0.1l0,2.9L-471.2-315.8z"/>
					</g>
				</g>
				<path id="Intersección_2_2_" class="st9" d="M-471.1-319.3l0-0.6c0-1.1,0.9-1.9,1.9-1.9l7.1,0c1.1,0,1.9,0.9,1.9,1.9l0,3.6
					c-1.1,0.3-2.3,0.5-3.4,0.5C-467.1-315.8-470-317.2-471.1-319.3z"/>
				<g id="Elipse_1_2_" transform="translate(15 5)">
					<path class="st10" d="M-480.7-325.5c1.1,0,1.9,1.5,1.9,3.3c0,1.8-0.9,3.3-1.9,3.3c-1.1,0-1.9-1.5-1.9-3.3
						S-481.7-325.5-480.7-325.5z"/>
					<path class="st11" d="M-480.7-325.3c1,0,1.7,1.4,1.7,3.2s-0.8,3.2-1.7,3.1c-1,0-1.7-1.4-1.7-3.2
						C-482.4-323.9-481.6-325.3-480.7-325.3z"/>
				</g>
			</g>
		</g>
	</g>
	<g id="logo_2_" transform="translate(482 284.751)">
		<path id="Trazado_53_2_" d="M-467.1-277.1l-3.9,0l0,4.1c0,1.2,0.9,2.1,2.1,2.1l0,0l4.1,0l0-6.2L-467.1-277.1z M-465.9-274
			L-465.9-274l-0.9,0l0-1.1l-1.1,0l0-0.9l2.1,0L-465.9-274z"/>
		<path id="Trazado_54_2_" d="M-452.7-273.4l-0.6,0l0,2.6l0.6,0L-452.7-273.4L-452.7-273.4z M-455.6-273.5l-0.6,0l0,2.6l0.6,0l0-1.1
			l1.1,0l0,1.1l0.6,0l0-2.6l-0.3,0c-0.2,0-0.3,0.1-0.3,0.3l0,0.7l-1.1,0L-455.6-273.5z M-459.6-273.5l-0.6,0l0,2.6l0.6,0
			L-459.6-273.5z M-461.8-273c0.4,0,0.6,0.1,0.6,0.4c0,0.3-0.2,0.4-0.6,0.4l-0.4,0l0-0.8L-461.8-273z M-461.7-273.5l-1.1,0l0,2.6
			l0.6,0l0-0.8l0.5,0c0.3,0,0.5-0.1,0.7-0.2c0.2-0.2,0.3-0.4,0.3-0.7c0-0.2-0.1-0.5-0.3-0.6C-461.2-273.4-461.4-273.5-461.7-273.5
			 M-461.2-275.3c0,0.2-0.2,0.3-0.5,0.3l-0.6,0l0-0.6l0.6,0C-461.3-275.6-461.2-275.5-461.2-275.3 M-461.2-276.3
			c0,0.2-0.1,0.3-0.4,0.3l-0.5,0l0-0.5l0.5,0C-461.3-276.6-461.2-276.5-461.2-276.3 M-460.9-275.8c0.2-0.1,0.3-0.3,0.3-0.5
			c0-0.5-0.4-0.7-0.9-0.7l-1.2,0l0,2.6l1.2,0c0.2,0,0.5-0.1,0.7-0.2c0.2-0.1,0.3-0.3,0.3-0.6C-460.6-275.5-460.7-275.7-460.9-275.8
			 M-458.8-275.5l-0.7,0l0.3-0.9L-458.8-275.5z M-458.4-274.5l0.6,0l-0.9-2.5c0-0.1-0.1-0.2-0.3-0.2l-0.3,0l-1,2.6l0.6,0l0.2-0.5
			l1,0L-458.4-274.5z M-457.8-273.5c-0.4,0-0.7,0.1-1,0.4c-0.5,0.5-0.6,1.4-0.1,1.9c0.3,0.3,0.7,0.4,1,0.4c0.4,0,0.8-0.2,1.1-0.5
			l-0.4-0.4c-0.2,0.2-0.4,0.4-0.7,0.4c-0.2,0-0.4-0.1-0.6-0.2c-0.2-0.2-0.2-0.4-0.2-0.6c0-0.2,0.1-0.4,0.2-0.6
			c0.1-0.1,0.3-0.2,0.5-0.2c0.2,0,0.4,0.1,0.5,0.2c0.1,0.1,0.3,0.1,0.4,0l0.2-0.2C-457-273.3-457.3-273.5-457.8-273.5 M-455.6-274.4
			l0.5,0l0-2.6l-0.6,0l0,1.8l-1-1.6c-0.1-0.1-0.1-0.1-0.2-0.1l-0.5,0l0,2.6l0.6,0l0-1.8l1,1.6C-455.8-274.5-455.7-274.4-455.6-274.4
			 M-453.8-275.1c-0.2-0.2-0.2-0.4-0.2-0.6c0-0.2,0.1-0.4,0.2-0.6c0.1-0.1,0.3-0.2,0.5-0.2c0.2,0,0.4,0.1,0.5,0.2
			c0.1,0.1,0.3,0.1,0.4,0l0.2-0.2c-0.2-0.3-0.6-0.5-1-0.5c-0.4,0-0.7,0.1-1,0.4c-0.3,0.3-0.4,0.6-0.4,1c0,0.4,0.1,0.7,0.4,1
			c0.3,0.3,0.6,0.4,1,0.4c0.4,0,0.8-0.2,1.1-0.5l-0.4-0.4c-0.2,0.2-0.4,0.4-0.7,0.4C-453.4-274.9-453.6-275-453.8-275.1
			 M-451.5-273.4l-0.5,0l0,2.6l0.6,0l0-1.8l1,1.6c0.1,0.1,0.1,0.1,0.2,0.1l0.5,0l0-2.6l-0.6,0l0,1.8l-1-1.7
			C-451.3-273.4-451.4-273.4-451.5-273.4 M-449.7-275.7c0,0.2-0.1,0.4-0.2,0.6c-0.1,0.2-0.4,0.2-0.6,0.2c-0.2,0-0.4-0.1-0.6-0.2
			c-0.3-0.3-0.3-0.8,0-1.2c0.1-0.2,0.4-0.2,0.6-0.2c0.2,0,0.4,0.1,0.6,0.2C-449.8-276.1-449.7-275.9-449.7-275.7 M-449.5-274.7
			c0.3-0.3,0.4-0.6,0.4-1c0-0.4-0.1-0.7-0.4-1c-0.5-0.5-1.4-0.5-1.9,0c-0.5,0.5-0.5,1.4,0,1.9C-450.9-274.2-450.1-274.2-449.5-274.7
			 M-448.4-271.5c-0.2-0.2-0.2-0.4-0.2-0.6c0-0.2,0.1-0.4,0.2-0.6c0.1-0.1,0.3-0.2,0.5-0.2c0.2,0,0.4,0.1,0.5,0.2
			c0.1,0.1,0.3,0.1,0.4,0l0.2-0.2c-0.2-0.3-0.6-0.5-1-0.5c-0.4,0-0.7,0.1-1,0.4c-0.5,0.5-0.6,1.4-0.1,1.9c0.3,0.3,0.7,0.4,1,0.4
			c0.4,0,0.8-0.2,1.1-0.5l-0.4-0.4c-0.2,0.2-0.4,0.4-0.7,0.4C-448.1-271.3-448.3-271.3-448.4-271.5 M-444.6-270.8l0.6,0l0-2.6
			l-0.3,0c-0.2,0-0.3,0.1-0.3,0.3l0,0.7l-1.1,0l0-1l-0.6,0l0,2.6l0.6,0l0-1.1l1.1,0L-444.6-270.8z M-442-271.8l-0.7,0l0.3-0.9
			L-442-271.8z M-441-270.7l-0.9-2.5c0-0.1-0.1-0.2-0.3-0.2l-0.3,0l-1,2.6l0.6,0l0.2-0.5l1,0l0.2,0.5L-441-270.7z"/>
	</g>
	<g id="wifi-ic_2_" transform="translate(522 277.595)">
		<g id="Grupo_6_2_" transform="translate(12.666 73.842)">
			<g id="Grupo_5_2_" transform="translate(0 0)">
				<path id="Trazado_30_2_" d="M-509.8-326.2c-0.1-0.1-0.3-0.1-0.4,0c-0.1,0.1-0.1,0.3,0,0.4c0.3,0.3,0.3,0.9,0,1.2
					c-0.1,0.1-0.1,0.3,0,0.4c0.1,0.1,0.3,0.1,0.4,0C-509.3-324.7-509.2-325.7-509.8-326.2z"/>
				<path id="Trazado_31_2_" d="M-508.9-326.9c-0.1-0.1-0.3-0.1-0.4,0c-0.1,0.1-0.1,0.3,0,0.4c0.7,0.7,0.7,1.8,0,2.5
					c-0.1,0.1-0.1,0.3,0,0.4c0.1,0.1,0.3,0.1,0.4,0C-508-324.4-508-326-508.9-326.9z"/>
				<path id="Trazado_32_2_" d="M-508-327.7c-0.1-0.1-0.3-0.1-0.4,0c-0.1,0.1-0.1,0.3,0,0.4c1.2,1.2,1.1,3.1,0,4.2
					c-0.1,0.1-0.1,0.3,0,0.4c0.1,0.1,0.3,0.1,0.4,0C-506.6-324-506.6-326.3-508-327.7z"/>
			</g>
		</g>
	</g>
</g>
</svg>
