<?xml version="1.0" encoding="utf-8"?>
<!-- Generator: Adobe Illustrator 25.2.0, SVG Export Plug-In . SVG Version: 6.00 Build 0)  -->
<svg version="1.1" id="Capa_7" xmlns="http://www.w3.org/2000/svg" xmlns:xlink="http://www.w3.org/1999/xlink" x="0px" y="0px"
	 viewBox="0 0 83 54" style="enable-background:new 0 0 83 54;" xml:space="preserve">
<style type="text/css">
	.st0{fill:#FFFFFF;}
	.st1{font-family:'OpenSans-Regular';}
	.st2{font-size:4.5548px;}
	.st3{font-size:1.5592px;}
	.st4{opacity:0.45;}
	.st5{fill:#494848;}
	.st6{fill:#A2A2A2;}
	.st7{fill:#C4C4C4;}
	.st8{opacity:0.32;fill:#FFFFFF;enable-background:new    ;}
	.st9{fill:#C9C9C9;}
	.st10{fill:none;stroke:#A2A2A2;stroke-width:0.3596;}
	.st11{fill:#FAFAFA;}
</style>
<g>
	<g>
		<g id="card_5_" transform="translate(-443 -254.223)">
			<g transform="matrix(1, 0, 0, 1, 443, 254.22)">
				<path id="Rectángulo_32-2_6_" d="M6.7,1.7l70.7,0.4c2,0,3.6,1.6,3.6,3.6l-0.3,43.9c0,2-1.6,3.6-3.6,3.6L6.4,52.7
					c-2,0-3.6-1.6-3.6-3.6L3.1,5.2C3.1,3.3,4.8,1.7,6.7,1.7z"/>
			</g>
			<g transform="matrix(1, 0, 0, 1, 443, 254.22)">
				<text transform="matrix(1 6.280002e-03 -6.280002e-03 1 10.5197 47.2611)" class="st0 st1 st2">John Smith</text>
			</g>
			<g id="visa-electron-seeklogo.com_6_" transform="translate(681.474 421.49)">
				<path id="Trazado_1_6_" class="st0" d="M-174.7-126.5l-2,4.8l-1.3,0l-1-3.9c0-0.2-0.1-0.3-0.3-0.4c-0.4-0.2-0.8-0.3-1.2-0.4
					l0-0.1l2.1,0c0.3,0,0.5,0.2,0.6,0.5l0.5,2.8l1.3-3.3L-174.7-126.5z M-172.9-126.5l-1.1,4.8l-1.2,0l1.1-4.8L-172.9-126.5z
					 M-169.6-123.2c0-1.3-1.7-1.4-1.7-1.9c0-0.2,0.2-0.4,0.5-0.4c0.4,0,0.8,0,1.2,0.2l0.2-1c-0.4-0.1-0.8-0.2-1.2-0.2
					c-1.2,0-2.1,0.6-2.1,1.6c0,0.7,0.6,1.1,1.1,1.3c0.5,0.2,0.6,0.4,0.6,0.6c0,0.3-0.4,0.5-0.7,0.5c-0.4,0-0.9-0.1-1.3-0.3l-0.2,1.1
					c0.4,0.2,0.9,0.3,1.4,0.3C-170.4-121.6-169.6-122.2-169.6-123.2L-169.6-123.2z M-166.3-121.6l1.2,0l-1-4.8l-1.1,0
					c-0.2,0-0.4,0.1-0.5,0.4l-1.9,4.5l1.3,0l0.3-0.7l1.6,0L-166.3-121.6z M-167.7-123.3l0.7-1.8l0.4,1.8L-167.7-123.3z"/>
				<text transform="matrix(1 6.280002e-03 -6.280002e-03 1 -170.9038 -119.1701)" class="st0 st1 st3">Crédito</text>
			</g>
			<g id="Enmascarar_grupo_1_6_" transform="translate(-4298 375.223)" class="st4">
				<g id="Grupo_7_6_" transform="translate(0 -7.318)">
					<path id="Trazado_33_6_" class="st5" d="M4803.2-99.8c0,0-53.2,38.8-56.3,38.8c-3.1-0.4-3.1-3.1-3.1-3.1l0.3-44
						c0,0,0-3.4,3.6-3.9c1,0,37.4,0.2,37.4,0.2L4803.2-99.8z"/>
					<path id="Trazado_34_6_" class="st5" d="M4818.5-111.6l-15.3,11.6l18.6,12.2c0,0,0.3-20.8,0.3-20.2
						C4821.7-111.5,4818.5-111.6,4818.5-111.6z"/>
				</g>
			</g>
		</g>
	</g>
	<g id="chip_6_" transform="translate(482 343.223)">
		<g transform="matrix(1, 0, 0, 1, -39, -89)">
			<path id="shadow-2_6_" class="st0" d="M-430.9-232.6l7.2,0c1.1,0,1.9,0.9,1.9,1.9l0,5.3c0,1.1-0.9,1.9-1.9,1.9l-7.2,0
				c-1.1,0-1.9-0.9-1.9-1.9l0-5.3C-432.8-231.8-431.9-232.6-430.9-232.6z"/>
		</g>
		<g id="Grupo_4_6_" transform="translate(0 0)">
			<g id="Grupo_3_6_" transform="translate(0 0)">
				<g id="Grupo_2_6_" transform="translate(0 0)">
					<path id="Rectángulo_4_6_" class="st6" d="M-469.9-321.6l7.2,0c1.1,0,1.9,0.9,1.9,1.9l0,5.3c0,1.1-0.9,1.9-1.9,1.9l-7.2,0
						c-1.1,0-1.9-0.9-1.9-1.9l0-5.3C-471.8-320.8-470.9-321.6-469.9-321.6z"/>
					<g id="Grupo_1_6_" transform="translate(0 0)">
						<path id="Sustracción_1_6_" class="st7" d="M-460.8-318.9l-11-0.1l0-0.7c0-1.1,0.9-1.9,1.9-1.9l7.2,0c1.1,0,1.9,0.9,1.9,1.9
							L-460.8-318.9z"/>
						<path id="Sustracción_2_6_" class="st7" d="M-471.8-315.2l11,0.1l0,0.7c0,1.1-0.9,1.9-1.9,1.9l-7.2,0c-1.1,0-1.9-0.9-1.9-1.9
							L-471.8-315.2z"/>
						<path id="Intersección_1_6_" class="st7" d="M-471.8-315.6l0-2.9l11,0.1l0,2.9L-471.8-315.6z"/>
					</g>
				</g>
				<path id="Intersección_2_6_" class="st8" d="M-471.8-319.1l0-0.6c0-1.1,0.9-1.9,1.9-1.9l7.2,0c1.1,0,1.9,0.9,1.9,1.9l0,3.6
					c-1.1,0.3-2.3,0.5-3.4,0.5C-467.7-315.6-470.7-317.1-471.8-319.1z"/>
				<g id="Elipse_1_6_" transform="translate(15 5)">
					<path class="st9" d="M-481.3-325.4c1.1,0,1.9,1.5,1.9,3.4c0,1.9-0.9,3.4-1.9,3.3c-1.1,0-1.9-1.5-1.9-3.4
						S-482.3-325.4-481.3-325.4z"/>
					<path class="st10" d="M-481.3-325.2c1,0,1.7,1.4,1.7,3.2c0,1.8-0.8,3.2-1.8,3.2s-1.7-1.4-1.7-3.2
						C-483-323.8-482.2-325.2-481.3-325.2z"/>
				</g>
			</g>
		</g>
	</g>
	<g id="logo_5_" transform="translate(482 284.751)">
		<path id="Trazado_53_5_" class="st0" d="M-467.7-277.1l-4,0l0,4.2c0,1.2,0.9,2.1,2.1,2.1l0,0l4.2,0l0-6.3L-467.7-277.1z
			 M-466.5-274L-466.5-274l-0.9,0l0-1.2l-1.2,0l0-0.9l2.1,0L-466.5-274z"/>
		<path id="Trazado_54_5_" class="st0" d="M-453.2-273.4l-0.6,0l0,2.6l0.6,0L-453.2-273.4L-453.2-273.4z M-456.2-273.4l-0.6,0l0,2.6
			l0.6,0l0-1.1l1.1,0l0,1.1l0.6,0l0-2.6l-0.3,0c-0.2,0-0.3,0.1-0.3,0.3l0,0.8l-1.1,0L-456.2-273.4z M-460.2-273.4l-0.6,0l0,2.6
			l0.6,0L-460.2-273.4z M-462.4-272.9c0.4,0,0.6,0.1,0.6,0.4c0,0.3-0.2,0.4-0.6,0.4l-0.4,0l0-0.8L-462.4-272.9z M-462.3-273.4
			l-1.1,0l0,2.6l0.6,0l0-0.8l0.5,0c0.3,0,0.5-0.1,0.7-0.2c0.2-0.2,0.3-0.4,0.3-0.7c0-0.2-0.1-0.5-0.3-0.6
			C-461.8-273.4-462-273.5-462.3-273.4 M-461.8-275.2c0,0.2-0.2,0.3-0.5,0.3l-0.6,0l0-0.6l0.6,0
			C-461.9-275.5-461.7-275.4-461.8-275.2 M-461.8-276.3c0,0.2-0.1,0.3-0.4,0.3l-0.5,0l0-0.5l0.5,0
			C-461.9-276.6-461.8-276.5-461.8-276.3 M-461.5-275.8c0.2-0.1,0.3-0.3,0.3-0.5c0-0.5-0.4-0.7-0.9-0.7l-1.2,0l0,2.6l1.3,0
			c0.2,0,0.5-0.1,0.7-0.2c0.2-0.1,0.3-0.3,0.3-0.6C-461.2-275.4-461.3-275.7-461.5-275.8 M-459.3-275.4l-0.7,0l0.3-0.9L-459.3-275.4
			z M-458.9-274.4l0.6,0l-0.9-2.5c0-0.1-0.1-0.2-0.3-0.2l-0.3,0l-1.1,2.6l0.6,0l0.2-0.5l1,0L-458.9-274.4z M-458.3-273.5
			c-0.4,0-0.7,0.1-1,0.4c-0.5,0.5-0.6,1.4-0.1,1.9c0.3,0.3,0.7,0.4,1.1,0.4c0.4,0,0.8-0.2,1.1-0.5l-0.4-0.4
			c-0.2,0.2-0.4,0.4-0.7,0.4c-0.2,0-0.4-0.1-0.6-0.2c-0.2-0.2-0.2-0.4-0.2-0.6c0-0.2,0.1-0.4,0.2-0.6c0.1-0.1,0.3-0.2,0.5-0.2
			c0.2,0,0.4,0.1,0.5,0.2c0.1,0.1,0.3,0.1,0.4,0l0.2-0.2C-457.5-273.3-457.9-273.5-458.3-273.5 M-456.2-274.4l0.5,0l0-2.6l-0.6,0
			l0,1.8l-1-1.7c-0.1-0.1-0.1-0.1-0.2-0.1l-0.5,0l0,2.6l0.6,0l0-1.8l1,1.7C-456.4-274.4-456.3-274.4-456.2-274.4 M-454.3-275.1
			c-0.2-0.2-0.2-0.4-0.2-0.6c0-0.2,0.1-0.4,0.2-0.6c0.1-0.1,0.3-0.2,0.5-0.2c0.2,0,0.4,0.1,0.5,0.2c0.1,0.1,0.3,0.1,0.4,0l0.2-0.2
			c-0.2-0.3-0.6-0.5-1-0.5c-0.4,0-0.7,0.1-1,0.4c-0.3,0.3-0.4,0.6-0.4,1c0,0.4,0.1,0.7,0.4,1c0.3,0.3,0.6,0.4,1,0.4
			c0.4,0,0.8-0.2,1.1-0.5l-0.4-0.4c-0.2,0.2-0.4,0.4-0.7,0.4C-454-274.9-454.2-274.9-454.3-275.1 M-452-273.4l-0.5,0l0,2.6l0.6,0
			l0-1.8l1,1.7c0.1,0.1,0.1,0.1,0.2,0.1l0.5,0l0-2.6l-0.6,0l0,1.8l-1-1.7C-451.8-273.3-451.9-273.4-452-273.4 M-450.2-275.7
			c0,0.2-0.1,0.4-0.2,0.6c-0.1,0.2-0.4,0.2-0.6,0.2c-0.2,0-0.4-0.1-0.6-0.2c-0.3-0.3-0.3-0.8,0-1.2c0.1-0.2,0.4-0.2,0.6-0.2
			c0.2,0,0.4,0.1,0.6,0.2C-450.3-276.1-450.2-275.9-450.2-275.7 M-450.1-274.7c0.3-0.3,0.4-0.6,0.4-1c0-0.4-0.1-0.7-0.4-1
			c-0.5-0.5-1.4-0.5-1.9,0c-0.5,0.5-0.5,1.4,0,1.9C-451.4-274.2-450.6-274.2-450.1-274.7 M-448.9-271.4c-0.2-0.2-0.2-0.4-0.2-0.6
			c0-0.2,0.1-0.4,0.2-0.6c0.1-0.1,0.3-0.2,0.5-0.2c0.2,0,0.4,0.1,0.5,0.2c0.1,0.1,0.3,0.1,0.4,0l0.2-0.2c-0.2-0.3-0.6-0.5-1-0.5
			c-0.4,0-0.7,0.1-1,0.4c-0.5,0.5-0.6,1.4-0.1,1.9c0.3,0.3,0.7,0.4,1.1,0.4c0.4,0,0.8-0.2,1.1-0.5l-0.4-0.4
			c-0.2,0.2-0.4,0.4-0.7,0.4C-448.6-271.2-448.8-271.3-448.9-271.4 M-445.1-270.7l0.6,0l0-2.6l-0.3,0c-0.2,0-0.3,0.1-0.3,0.3l0,0.8
			l-1.1,0l0-1l-0.6,0l0,2.6l0.6,0l0-1.1l1.1,0L-445.1-270.7z M-442.5-271.7l-0.7,0l0.3-0.9L-442.5-271.7z M-441.5-270.7l-0.9-2.5
			c0-0.1-0.1-0.2-0.3-0.2l-0.3,0l-1.1,2.6l0.6,0l0.2-0.5l1,0l0.2,0.5L-441.5-270.7z"/>
	</g>
	<g id="wifi-ic_6_" transform="translate(522 277.595)">
		<g id="Grupo_6_6_" transform="translate(12.666 73.842)">
			<g id="Grupo_5_6_" transform="translate(0 0)">
				<path id="Trazado_30_6_" class="st11" d="M-510.4-326.1c-0.1-0.1-0.3-0.1-0.4,0c-0.1,0.1-0.1,0.3,0,0.4c0.3,0.3,0.3,0.9,0,1.2
					c-0.1,0.1-0.1,0.3,0,0.4c0.1,0.1,0.3,0.1,0.4,0C-509.8-324.6-509.8-325.5-510.4-326.1z"/>
				<path id="Trazado_31_6_" class="st11" d="M-509.5-326.8c-0.1-0.1-0.3-0.1-0.4,0c-0.1,0.1-0.1,0.3,0,0.4c0.7,0.7,0.7,1.9,0,2.6
					c-0.1,0.1-0.1,0.3,0,0.4c0.1,0.1,0.3,0.1,0.4,0C-508.5-324.3-508.5-325.8-509.5-326.8z"/>
				<path id="Trazado_32_6_" class="st11" d="M-508.6-327.6c-0.1-0.1-0.3-0.1-0.4,0c-0.1,0.1-0.1,0.3,0,0.4c1.2,1.2,1.1,3.1,0,4.2
					c-0.1,0.1-0.1,0.3,0,0.4c0.1,0.1,0.3,0.1,0.4,0C-507.2-323.9-507.2-326.1-508.6-327.6z"/>
			</g>
		</g>
	</g>
</g>
</svg>
