<?xml version="1.0" encoding="utf-8"?>
<!-- Generator: Adobe Illustrator 25.2.0, SVG Export Plug-In . SVG Version: 6.00 Build 0)  -->
<svg version="1.1" id="Capa_7" xmlns="http://www.w3.org/2000/svg" xmlns:xlink="http://www.w3.org/1999/xlink" x="0px" y="0px"
	 viewBox="0 0 83 54" style="enable-background:new 0 0 83 54;" xml:space="preserve">
<style type="text/css">
	.st0{fill:#FFDD00;}
	.st1{enable-background:new    ;}
	.st2{fill:#10133F;}
	.st3{fill:#FFFFFF;}
	.st4{opacity:0.45;}
	.st5{fill:#494848;}
	.st6{fill:#A2A2A2;}
	.st7{fill:#C4C4C4;}
	.st8{opacity:0.32;enable-background:new    ;}
	.st9{fill:#C9C9C9;}
</style>
<g>
	<g>
		<g id="card_4_" transform="translate(-443 -254.223)">
			<g transform="matrix(1, 0, 0, 1, 443, 254.22)">
				<g id="Rectángulo_32-2_4_">
					<path class="st0" d="M7,1.7l70.4,0.4c2,0,3.6,1.6,3.6,3.6l-0.3,43.7c0,2-1.6,3.6-3.6,3.6L6.7,52.5c-2,0-3.6-1.6-3.6-3.6
						L3.4,5.2C3.5,3.2,5.1,1.6,7,1.7z"/>
				</g>
			</g>
			<g transform="matrix(1, 0, 0, 1, 443, 254.22)">
				<g class="st1">
					<path class="st2" d="M10.8,47.9c-0.1,0-0.2,0-0.3-0.1l0-0.3c0.1,0,0.2,0,0.3,0c0.1,0,0.3,0,0.3-0.1c0.1-0.1,0.1-0.2,0.1-0.4
						l0-3.2l0.4,0l0,3.2c0,0.3-0.1,0.5-0.2,0.7C11.2,47.8,11,47.9,10.8,47.9z"/>
					<path class="st2" d="M14.5,45.9c0,0.4-0.1,0.7-0.3,0.9s-0.5,0.3-0.8,0.3c-0.2,0-0.4-0.1-0.6-0.2c-0.2-0.1-0.3-0.2-0.4-0.4
						c-0.1-0.2-0.1-0.4-0.1-0.7c0-0.4,0.1-0.7,0.3-0.9c0.2-0.2,0.5-0.3,0.8-0.3c0.3,0,0.6,0.1,0.8,0.3
						C14.4,45.2,14.5,45.5,14.5,45.9z M12.7,45.8c0,0.3,0.1,0.5,0.2,0.7c0.1,0.2,0.3,0.2,0.5,0.2s0.4-0.1,0.5-0.2
						c0.1-0.2,0.2-0.4,0.2-0.7c0-0.3-0.1-0.5-0.2-0.7c-0.1-0.2-0.3-0.2-0.6-0.2c-0.2,0-0.4,0.1-0.5,0.2
						C12.7,45.3,12.7,45.5,12.7,45.8z"/>
					<path class="st2" d="M16.8,47.1l0-1.6c0-0.2,0-0.3-0.1-0.4c-0.1-0.1-0.2-0.1-0.4-0.1c-0.3,0-0.4,0.1-0.6,0.2
						c-0.1,0.1-0.2,0.4-0.2,0.7l0,1.3l-0.4,0l0-3.4l0.4,0l0,1c0,0.1,0,0.2,0,0.3l0,0c0.1-0.1,0.2-0.2,0.3-0.3
						c0.1-0.1,0.3-0.1,0.5-0.1c0.3,0,0.5,0.1,0.7,0.2c0.1,0.1,0.2,0.4,0.2,0.7l0,1.6L16.8,47.1z"/>
					<path class="st2" d="M19.6,47.1l0-1.6c0-0.2,0-0.3-0.1-0.4c-0.1-0.1-0.2-0.1-0.4-0.1c-0.3,0-0.4,0.1-0.6,0.2
						c-0.1,0.1-0.2,0.4-0.2,0.7l0,1.3l-0.4,0l0-2.4l0.3,0l0.1,0.3l0,0c0.1-0.1,0.2-0.2,0.3-0.3c0.1-0.1,0.3-0.1,0.5-0.1
						c0.3,0,0.5,0.1,0.7,0.2c0.1,0.1,0.2,0.4,0.2,0.7l0,1.6L19.6,47.1z"/>
					<path class="st2" d="M23.8,46.3c0,0.3-0.1,0.5-0.3,0.7c-0.2,0.2-0.5,0.2-0.8,0.2c-0.4,0-0.7-0.1-0.9-0.2l0-0.4
						c0.1,0.1,0.3,0.1,0.4,0.1c0.2,0,0.3,0.1,0.5,0.1c0.3,0,0.4,0,0.6-0.1c0.1-0.1,0.2-0.2,0.2-0.4c0-0.1,0-0.2-0.1-0.3
						c0-0.1-0.1-0.1-0.2-0.2c-0.1-0.1-0.3-0.1-0.5-0.2c-0.3-0.1-0.5-0.2-0.6-0.4c-0.1-0.1-0.2-0.3-0.2-0.6c0-0.2,0.1-0.4,0.3-0.6
						c0.2-0.1,0.4-0.2,0.7-0.2c0.3,0,0.6,0.1,0.9,0.2l-0.1,0.3c-0.3-0.1-0.5-0.2-0.8-0.2c-0.2,0-0.4,0-0.5,0.1
						c-0.1,0.1-0.2,0.2-0.2,0.4c0,0.1,0,0.2,0.1,0.3c0,0.1,0.1,0.1,0.2,0.2c0.1,0.1,0.2,0.1,0.4,0.2c0.3,0.1,0.6,0.3,0.7,0.4
						C23.7,45.9,23.8,46,23.8,46.3z"/>
					<path class="st2" d="M27.5,47.2l0-1.6c0-0.2,0-0.3-0.1-0.4C27.3,45,27.2,45,27,45c-0.2,0-0.4,0.1-0.5,0.2
						c-0.1,0.1-0.2,0.3-0.2,0.6l0,1.4l-0.4,0l0-1.6c0-0.2,0-0.3-0.1-0.4C25.7,45,25.6,45,25.4,45c-0.2,0-0.4,0.1-0.5,0.2
						c-0.1,0.1-0.2,0.4-0.2,0.7l0,1.3l-0.4,0l0-2.4l0.3,0l0.1,0.3h0c0.1-0.1,0.2-0.2,0.3-0.3c0.1-0.1,0.3-0.1,0.4-0.1
						c0.4,0,0.6,0.1,0.7,0.4l0,0c0.1-0.1,0.2-0.2,0.3-0.3c0.1-0.1,0.3-0.1,0.5-0.1c0.3,0,0.5,0.1,0.6,0.2c0.1,0.1,0.2,0.4,0.2,0.7
						l0,1.6L27.5,47.2z"/>
					<path class="st2" d="M28.6,44.1c0-0.1,0-0.1,0.1-0.2c0,0,0.1-0.1,0.2-0.1c0.1,0,0.1,0,0.2,0.1c0,0,0.1,0.1,0.1,0.2
						c0,0.1,0,0.1-0.1,0.2c0,0-0.1,0.1-0.2,0.1c-0.1,0-0.1,0-0.2-0.1C28.6,44.2,28.6,44.2,28.6,44.1z M29,47.2l-0.4,0l0-2.4l0.4,0
						L29,47.2z"/>
					<path class="st2" d="M30.5,46.9c0.1,0,0.1,0,0.2,0c0.1,0,0.1,0,0.1,0l0,0.3c0,0-0.1,0-0.2,0c-0.1,0-0.1,0-0.2,0
						c-0.5,0-0.7-0.3-0.7-0.7l0-1.4l-0.3,0l0-0.2l0.3-0.2l0.2-0.5l0.2,0l0,0.6l0.7,0l0,0.3l-0.7,0l0,1.4c0,0.1,0,0.3,0.1,0.3
						C30.3,46.9,30.4,46.9,30.5,46.9z"/>
					<path class="st2" d="M33,47.2l0-1.6c0-0.2,0-0.3-0.1-0.4c-0.1-0.1-0.2-0.1-0.4-0.1c-0.3,0-0.4,0.1-0.6,0.2
						c-0.1,0.1-0.2,0.4-0.2,0.7l0,1.3l-0.4,0l0-3.4l0.4,0l0,1c0,0.1,0,0.2,0,0.3h0c0.1-0.1,0.2-0.2,0.3-0.3c0.1-0.1,0.3-0.1,0.5-0.1
						c0.3,0,0.5,0.1,0.7,0.2c0.1,0.1,0.2,0.4,0.2,0.7l0,1.6L33,47.2z"/>
				</g>
			</g>
			<g id="visa-electron-seeklogo.com_4_" transform="translate(681.474 421.49)">
				<g id="Trazado_1_4_">
					<path class="st3" d="M-174.6-126.7l-2,4.8l-1.3,0l-1-3.8c0-0.2-0.1-0.3-0.3-0.4c-0.4-0.2-0.8-0.3-1.2-0.4l0-0.1l2.1,0
						c0.3,0,0.5,0.2,0.6,0.5l0.5,2.8l1.3-3.3L-174.6-126.7z M-172.9-126.7l-1.1,4.8l-1.2,0l1.1-4.8L-172.9-126.7z M-169.5-123.4
						c0-1.3-1.7-1.3-1.7-1.9c0-0.2,0.2-0.4,0.5-0.4c0.4,0,0.8,0,1.2,0.2l0.2-1c-0.4-0.1-0.8-0.2-1.2-0.2c-1.2,0-2.1,0.6-2.1,1.6
						c0,0.7,0.6,1.1,1.1,1.3c0.5,0.2,0.6,0.4,0.6,0.6c0,0.3-0.4,0.5-0.7,0.5c-0.4,0-0.9-0.1-1.3-0.3l-0.2,1.1
						c0.4,0.2,0.9,0.3,1.4,0.3C-170.4-121.8-169.5-122.4-169.5-123.4L-169.5-123.4z M-166.3-121.8l1.1,0l-1-4.8l-1.1,0
						c-0.2,0-0.4,0.1-0.5,0.3l-1.9,4.4l1.3,0l0.3-0.7l1.6,0L-166.3-121.8z M-167.7-123.5l0.7-1.8l0.4,1.8L-167.7-123.5z"/>
				</g>
				<g class="st1">
					<path class="st3" d="M-170.2-120.4c-0.1,0-0.2,0-0.3,0.1c-0.1,0.1-0.1,0.2-0.1,0.3c0,0.1,0,0.3,0.1,0.3
						c0.1,0.1,0.2,0.1,0.3,0.1c0.1,0,0.2,0,0.3,0l0,0.1c-0.1,0-0.2,0-0.3,0c-0.2,0-0.3-0.1-0.4-0.2c-0.1-0.1-0.1-0.2-0.1-0.4
						c0-0.1,0-0.2,0.1-0.3c0-0.1,0.1-0.2,0.2-0.2c0.1,0,0.2-0.1,0.3-0.1c0.1,0,0.2,0,0.3,0.1l-0.1,0.1
						C-170-120.4-170.1-120.4-170.2-120.4z"/>
					<path class="st3" d="M-169.3-120.2C-169.3-120.2-169.2-120.2-169.3-120.2l0.1,0.1c0,0-0.1,0-0.1,0c-0.1,0-0.1,0-0.2,0.1
						c0,0.1-0.1,0.1-0.1,0.2l0,0.4l-0.1,0l0-0.8l0.1,0l0,0.2h0c0-0.1,0.1-0.1,0.1-0.1C-169.4-120.2-169.4-120.2-169.3-120.2z"/>
					<path class="st3" d="M-168.7-119.4c-0.1,0-0.2,0-0.3-0.1c-0.1-0.1-0.1-0.2-0.1-0.3c0-0.1,0-0.2,0.1-0.3
						c0.1-0.1,0.2-0.1,0.3-0.1c0.1,0,0.2,0,0.2,0.1c0.1,0.1,0.1,0.2,0.1,0.3l0,0.1l-0.6,0c0,0.1,0,0.2,0.1,0.2
						c0,0.1,0.1,0.1,0.2,0.1c0.1,0,0.2,0,0.3-0.1l0,0.1c0,0-0.1,0-0.1,0C-168.6-119.4-168.6-119.4-168.7-119.4z M-168.7-120.1
						c-0.1,0-0.1,0-0.2,0.1c0,0-0.1,0.1-0.1,0.2l0.4,0c0-0.1,0-0.1-0.1-0.2C-168.6-120.1-168.7-120.1-168.7-120.1z M-168.8-120.3
						c0,0,0.1-0.1,0.1-0.1c0,0,0.1-0.1,0.1-0.1l0.2,0v0c0,0-0.1,0.1-0.1,0.1S-168.7-120.3-168.8-120.3L-168.8-120.3L-168.8-120.3z"
						/>
					<path class="st3" d="M-167.6-119.5L-167.6-119.5c-0.1,0.1-0.2,0.1-0.3,0.1c-0.1,0-0.2,0-0.3-0.1c-0.1-0.1-0.1-0.2-0.1-0.3
						c0-0.1,0-0.2,0.1-0.3c0.1-0.1,0.1-0.1,0.3-0.1c0.1,0,0.2,0,0.3,0.1h0l0-0.1l0-0.1l0-0.3l0.1,0l0,1.2l-0.1,0L-167.6-119.5z
						 M-167.8-119.5c0.1,0,0.1,0,0.2-0.1c0,0,0.1-0.1,0.1-0.2v0c0-0.1,0-0.2-0.1-0.3c0-0.1-0.1-0.1-0.2-0.1c-0.1,0-0.1,0-0.2,0.1
						c0,0.1-0.1,0.1-0.1,0.2c0,0.1,0,0.2,0.1,0.2C-168-119.5-167.9-119.5-167.8-119.5z"/>
					<path class="st3" d="M-167.2-120.4C-167.2-120.4-167.2-120.5-167.2-120.4C-167.1-120.5-167.1-120.5-167.2-120.4
						c0.1-0.1,0.1-0.1,0.1-0.1c0,0,0,0,0,0.1c0,0,0,0,0,0.1S-167.1-120.3-167.2-120.4C-167.1-120.3-167.1-120.3-167.2-120.4
						C-167.2-120.4-167.2-120.4-167.2-120.4z M-167-119.4l-0.1,0l0-0.8l0.1,0L-167-119.4z"/>
					<path class="st3" d="M-166.5-119.4C-166.4-119.4-166.4-119.4-166.5-119.4c0.1,0,0.1,0,0.1,0l0,0.1
						C-166.4-119.4-166.4-119.4-166.5-119.4c0,0.1,0,0.1,0,0.1c-0.2,0-0.2-0.1-0.2-0.3l0-0.5l-0.1,0l0-0.1l0.1-0.1l0.1-0.2l0.1,0
						l0,0.2l0.2,0l0,0.1l-0.2,0l0,0.5C-166.6-119.6-166.6-119.5-166.5-119.4C-166.5-119.5-166.5-119.4-166.5-119.4z"/>
					<path class="st3" d="M-165.4-119.8c0,0.1,0,0.2-0.1,0.3c-0.1,0.1-0.2,0.1-0.3,0.1c-0.1,0-0.1,0-0.2-0.1c-0.1,0-0.1-0.1-0.1-0.2
						c0-0.1,0-0.1,0-0.2c0-0.1,0-0.2,0.1-0.3c0.1-0.1,0.2-0.1,0.3-0.1c0.1,0,0.2,0,0.3,0.1C-165.5-120-165.4-119.9-165.4-119.8z
						 M-166.1-119.8c0,0.1,0,0.2,0.1,0.2c0,0.1,0.1,0.1,0.2,0.1c0.1,0,0.1,0,0.2-0.1c0-0.1,0.1-0.1,0.1-0.2c0-0.1,0-0.2-0.1-0.2
						c0-0.1-0.1-0.1-0.2-0.1c-0.1,0-0.1,0-0.2,0.1C-166-120-166.1-119.9-166.1-119.8z"/>
				</g>
			</g>
			<g id="Enmascarar_grupo_1_4_" transform="translate(-4298 375.223)" class="st4">
				<g id="Grupo_7_4_" transform="translate(0 -7.318)">
					<g id="Trazado_33_4_">
						<path class="st5" d="M4803.3-99.9c0,0-53,38.7-56,38.7c-3.1-0.4-3-3.1-3-3.1l0.3-43.8c0,0,0-3.4,3.6-3.9
							c1,0,37.3,0.2,37.3,0.2L4803.3-99.9z"/>
					</g>
					<g id="Trazado_34_4_">
						<path class="st5" d="M4818.5-111.6l-15.2,11.6l18.5,12.1c0,0,0.3-20.8,0.3-20.1C4821.7-111.6,4818.5-111.6,4818.5-111.6z"/>
					</g>
				</g>
			</g>
		</g>
	</g>
	<g id="chip_4_" transform="translate(482 343.223)">
		<g transform="matrix(1, 0, 0, 1, -39, -89)">
			<g id="shadow-2_4_">
				<path class="st3" d="M-430.6-232.7l7.2,0c1.1,0,1.9,0.9,1.9,1.9l0,5.3c0,1.1-0.9,1.9-1.9,1.9l-7.2,0c-1.1,0-1.9-0.9-1.9-1.9
					l0-5.3C-432.5-231.9-431.6-232.7-430.6-232.7z"/>
			</g>
		</g>
		<g id="Grupo_4_4_" transform="translate(0 0)">
			<g id="Grupo_3_4_" transform="translate(0 0)">
				<g id="Grupo_2_4_" transform="translate(0 0)">
					<g id="Rectángulo_4_4_">
						<path class="st6" d="M-469.6-321.7l7.2,0c1.1,0,1.9,0.9,1.9,1.9l0,5.3c0,1.1-0.9,1.9-1.9,1.9l-7.2,0c-1.1,0-1.9-0.9-1.9-1.9
							l0-5.3C-471.5-320.9-470.6-321.7-469.6-321.7z"/>
					</g>
					<g id="Grupo_1_4_" transform="translate(0 0)">
						<g id="Sustracción_1_4_">
							<path class="st7" d="M-460.5-319l-11-0.1l0-0.7c0-1.1,0.9-1.9,1.9-1.9l7.2,0c1.1,0,1.9,0.9,1.9,1.9L-460.5-319z"/>
						</g>
						<g id="Sustracción_2_4_">
							<path class="st7" d="M-471.5-315.3l11,0.1l0,0.7c0,1.1-0.9,1.9-1.9,1.9l-7.2,0c-1.1,0-1.9-0.9-1.9-1.9L-471.5-315.3z"/>
						</g>
						<g id="Intersección_1_4_">
							<path class="st7" d="M-471.5-315.8l0-2.9l11,0.1l0,2.9L-471.5-315.8z"/>
						</g>
					</g>
				</g>
				<g id="Intersección_2_4_" class="st8">
					<path class="st3" d="M-471.5-319.2l0-0.6c0-1.1,0.9-1.9,1.9-1.9l7.2,0c1.1,0,1.9,0.9,1.9,1.9l0,3.6c-1.1,0.3-2.3,0.5-3.4,0.5
						C-467.4-315.7-470.4-317.2-471.5-319.2z"/>
				</g>
				<g id="Elipse_1_4_" transform="translate(15 5)">
					<g>
						<path class="st9" d="M-481-325.5c1.1,0,1.9,1.5,1.9,3.4c0,1.8-0.9,3.3-1.9,3.3c-1.1,0-1.9-1.5-1.9-3.4
							C-482.9-324-482.1-325.5-481-325.5z"/>
					</g>
					<g>
						<path class="st6" d="M-481-318.8C-481.1-318.8-481.1-318.8-481-318.8c-1.1,0-1.9-1.5-1.9-3.4c0-0.9,0.2-1.7,0.5-2.3
							c0.4-0.7,0.9-1,1.4-1c0,0,0,0,0,0c1.1,0,1.9,1.5,1.9,3.4c0,0.9-0.2,1.7-0.5,2.3C-480-319.2-480.5-318.8-481-318.8z
							 M-481-325.1c-0.4,0-0.8,0.3-1.1,0.8c-0.3,0.6-0.5,1.3-0.5,2.1c0,1.6,0.7,3,1.5,3c0,0,0,0,0,0c0.4,0,0.8-0.3,1.1-0.8
							c0.3-0.6,0.5-1.3,0.5-2.1C-479.5-323.8-480.2-325.1-481-325.1C-481-325.1-481-325.1-481-325.1z"/>
					</g>
				</g>
			</g>
		</g>
	</g>
	<g id="logo_4_" transform="translate(482 284.751)">
		<g id="Trazado_53_4_">
			<path class="st2" d="M-467.5-277.2l-3.9,0l0,4.2c0,1.2,0.9,2.1,2.1,2.1l0,0l4.2,0l0-6.3L-467.5-277.2z M-466.2-274L-466.2-274
				l-0.9,0l0-1.1l-1.1,0l0-0.9l2.1,0L-466.2-274z"/>
		</g>
		<g id="Trazado_54_4_">
			<path class="st2" d="M-453-273.4l-0.6,0l0,2.6l0.6,0L-453-273.4L-453-273.4z M-455.9-273.5l-0.6,0l0,2.6l0.6,0l0-1.1l1.1,0l0,1.1
				l0.6,0l0-2.6l-0.3,0c-0.2,0-0.3,0.1-0.3,0.3l0,0.7l-1.1,0L-455.9-273.5z M-460-273.5l-0.6,0l0,2.6l0.6,0L-460-273.5z M-462.1-273
				c0.4,0,0.6,0.1,0.6,0.4c0,0.3-0.2,0.4-0.6,0.4l-0.4,0l0-0.8L-462.1-273z M-462-273.5l-1.1,0l0,2.6l0.6,0l0-0.8l0.5,0
				c0.3,0,0.5-0.1,0.7-0.2c0.2-0.2,0.3-0.4,0.3-0.7c0-0.2-0.1-0.5-0.3-0.6C-461.5-273.4-461.8-273.5-462-273.5 M-461.5-275.3
				c0,0.2-0.2,0.3-0.5,0.3l-0.6,0l0-0.6l0.6,0C-461.7-275.6-461.5-275.5-461.5-275.3 M-461.6-276.3c0,0.2-0.1,0.3-0.4,0.3l-0.5,0
				l0-0.5l0.5,0C-461.7-276.6-461.6-276.5-461.6-276.3 M-461.3-275.9c0.2-0.1,0.3-0.3,0.3-0.5c0-0.5-0.4-0.7-0.9-0.7l-1.2,0l0,2.6
				l1.2,0c0.2,0,0.5-0.1,0.7-0.2c0.2-0.1,0.3-0.3,0.3-0.6C-460.9-275.5-461.1-275.7-461.3-275.9 M-459.1-275.5l-0.7,0l0.3-0.9
				L-459.1-275.5z M-458.7-274.5l0.6,0l-0.9-2.5c0-0.1-0.1-0.2-0.3-0.2l-0.3,0l-1,2.6l0.6,0l0.2-0.5l1,0L-458.7-274.5z
				 M-458.1-273.5c-0.4,0-0.7,0.1-1,0.4c-0.5,0.5-0.6,1.4-0.1,1.9c0.3,0.3,0.7,0.4,1,0.4c0.4,0,0.8-0.2,1.1-0.5l-0.4-0.4
				c-0.2,0.2-0.4,0.4-0.7,0.4c-0.2,0-0.4-0.1-0.6-0.2c-0.2-0.2-0.2-0.4-0.2-0.6c0-0.2,0.1-0.4,0.2-0.6c0.1-0.1,0.3-0.2,0.5-0.2
				c0.2,0,0.4,0.1,0.5,0.2c0.1,0.1,0.3,0.1,0.4,0l0.2-0.2C-457.3-273.3-457.7-273.5-458.1-273.5 M-455.9-274.5l0.5,0l0-2.6l-0.6,0
				l0,1.8l-1-1.7c-0.1-0.1-0.1-0.1-0.2-0.1l-0.5,0l0,2.6l0.6,0l0-1.8l1,1.6C-456.1-274.5-456-274.5-455.9-274.5 M-454.1-275.1
				c-0.2-0.2-0.2-0.4-0.2-0.6c0-0.2,0.1-0.4,0.2-0.6c0.1-0.1,0.3-0.2,0.5-0.2c0.2,0,0.4,0.1,0.5,0.2c0.1,0.1,0.3,0.1,0.4,0l0.2-0.2
				c-0.2-0.3-0.6-0.5-1-0.5c-0.4,0-0.7,0.1-1,0.4c-0.3,0.3-0.4,0.6-0.4,1c0,0.4,0.1,0.7,0.4,1c0.3,0.3,0.6,0.4,1,0.4
				c0.4,0,0.8-0.2,1.1-0.5l-0.4-0.4c-0.2,0.2-0.4,0.4-0.7,0.4C-453.7-274.9-454-275-454.1-275.1 M-451.8-273.4l-0.5,0l0,2.6l0.6,0
				l0-1.8l1,1.6c0.1,0.1,0.1,0.1,0.2,0.1l0.5,0l0-2.6l-0.6,0l0,1.8l-1-1.7C-451.6-273.4-451.7-273.4-451.8-273.4 M-450-275.7
				c0,0.2-0.1,0.4-0.2,0.6c-0.1,0.2-0.4,0.2-0.6,0.2c-0.2,0-0.4-0.1-0.6-0.2c-0.3-0.3-0.3-0.8,0-1.2c0.1-0.2,0.4-0.2,0.6-0.2
				c0.2,0,0.4,0.1,0.6,0.2C-450.1-276.2-450-276-450-275.7 M-449.9-274.8c0.3-0.3,0.4-0.6,0.4-1c0-0.4-0.1-0.7-0.4-1
				c-0.5-0.5-1.4-0.5-1.9,0c-0.5,0.5-0.5,1.4,0,1.9C-451.2-274.3-450.4-274.2-449.9-274.8 M-448.7-271.5c-0.2-0.2-0.2-0.4-0.2-0.6
				c0-0.2,0.1-0.4,0.2-0.6c0.1-0.1,0.3-0.2,0.5-0.2c0.2,0,0.4,0.1,0.5,0.2c0.1,0.1,0.3,0.1,0.4,0l0.2-0.2c-0.2-0.3-0.6-0.5-1-0.5
				c-0.4,0-0.7,0.1-1,0.4c-0.5,0.5-0.6,1.4-0.1,1.9c0.3,0.3,0.7,0.4,1,0.4c0.4,0,0.8-0.2,1.1-0.5l-0.4-0.4c-0.2,0.2-0.4,0.4-0.7,0.4
				C-448.4-271.3-448.6-271.3-448.7-271.5 M-444.9-270.8l0.6,0l0-2.6l-0.3,0c-0.2,0-0.3,0.1-0.3,0.3l0,0.7l-1.1,0l0-1l-0.6,0l0,2.6
				l0.6,0l0-1.1l1.1,0L-444.9-270.8z M-442.3-271.8l-0.7,0l0.3-0.9L-442.3-271.8z M-441.3-270.7l-0.9-2.5c0-0.1-0.1-0.2-0.3-0.2
				l-0.3,0l-1,2.6l0.6,0l0.2-0.5l1,0l0.2,0.5L-441.3-270.7z"/>
		</g>
	</g>
	<g id="wifi-ic_4_" transform="translate(522 277.595)">
		<g id="Grupo_6_4_" transform="translate(12.666 73.842)">
			<g id="Grupo_5_4_" transform="translate(0 0)">
				<g id="Trazado_30_4_">
					<path class="st2" d="M-510.1-326.2c-0.1-0.1-0.3-0.1-0.4,0c-0.1,0.1-0.1,0.3,0,0.4c0.3,0.3,0.3,0.9,0,1.2
						c-0.1,0.1-0.1,0.3,0,0.4c0.1,0.1,0.3,0.1,0.4,0C-509.6-324.7-509.6-325.6-510.1-326.2z"/>
				</g>
				<g id="Trazado_31_4_">
					<path class="st2" d="M-509.2-326.9c-0.1-0.1-0.3-0.1-0.4,0c-0.1,0.1-0.1,0.3,0,0.4c0.7,0.7,0.7,1.9,0,2.6
						c-0.1,0.1-0.1,0.3,0,0.4c0.1,0.1,0.3,0.1,0.4,0C-508.3-324.4-508.3-325.9-509.2-326.9z"/>
				</g>
				<g id="Trazado_32_4_">
					<path class="st2" d="M-508.3-327.7c-0.1-0.1-0.3-0.1-0.4,0c-0.1,0.1-0.1,0.3,0,0.4c1.2,1.2,1.1,3.1,0,4.2
						c-0.1,0.1-0.1,0.3,0,0.4c0.1,0.1,0.3,0.1,0.4,0C-507-324-507-326.3-508.3-327.7z"/>
				</g>
			</g>
		</g>
	</g>
</g>
</svg>
